<?xml version="1.0" encoding="utf-8"?>
<!-- Generator: Adobe Illustrator 18.0.0, SVG Export Plug-In . SVG Version: 6.00 Build 0)  -->
<!DOCTYPE svg PUBLIC "-//W3C//DTD SVG 1.1//EN" "http://www.w3.org/Graphics/SVG/1.1/DTD/svg11.dtd">
<svg version="1.1" id="Icons" xmlns="http://www.w3.org/2000/svg" xmlns:xlink="http://www.w3.org/1999/xlink" x="0px" y="0px"
	 viewBox="40.3 31 18.7 37.8" enable-background="new 40.3 31 18.7 37.8" xml:space="preserve">
<path id="Facebook_1_" fill="#E54C3C" d="M44.9,38.9c0,0.9,0,5,0,5h-3.7V50h3.7v18.1h7.5V50h5c0,0,0.5-2.9,0.7-6.1
	c-0.7,0-5.7,0-5.7,0s0-3.6,0-4.2c0-0.6,0.8-1.5,1.6-1.5c0.8,0,2.5,0,4.1,0c0-0.8,0-3.7,0-6.4c-2.1,0-4.5,0-5.6,0
	C44.7,31.9,44.9,38,44.9,38.9z"/>
</svg>
