<?xml version="1.0" encoding="utf-8"?>
<!-- Generator: Adobe Illustrator 17.0.0, SVG Export Plug-In . SVG Version: 6.00 Build 0)  -->
<!DOCTYPE svg PUBLIC "-//W3C//DTD SVG 1.1//EN" "http://www.w3.org/Graphics/SVG/1.1/DTD/svg11.dtd">
<svg version="1.1" id="Icons" xmlns="http://www.w3.org/2000/svg" xmlns:xlink="http://www.w3.org/1999/xlink" x="0px" y="0px"
	 width="612px" height="792px" viewBox="0 0 612 792" enable-background="new 0 0 612 792" xml:space="preserve">
<path id="Facebook_1_" fill="#192530" d="M180.776,164.476c0,18.857,0,104.762,0,104.762h-77.524v127.809h77.524v379.238h157.143
	V397.048h104.762c0,0,10.476-60.762,14.667-127.809c-14.667,0-119.429,0-119.429,0s0-75.429,0-88
	c0-12.571,16.762-31.429,33.524-31.429c16.762,0,52.381,0,85.905,0c0-16.762,0-77.524,0-134.095c-44,0-94.286,0-117.333,0
	C176.586,17.81,180.776,145.619,180.776,164.476z"/>
</svg>
