<?xml version="1.0" encoding="utf-8"?>
<!-- Generator: Adobe Illustrator 17.0.0, SVG Export Plug-In . SVG Version: 6.00 Build 0)  -->
<!DOCTYPE svg PUBLIC "-//W3C//DTD SVG 1.1//EN" "http://www.w3.org/Graphics/SVG/1.1/DTD/svg11.dtd">
<svg version="1.1" id="Layer_1" xmlns="http://www.w3.org/2000/svg" xmlns:xlink="http://www.w3.org/1999/xlink" x="0px" y="0px"
	 width="612px" height="792px" viewBox="0 0 612 792" enable-background="new 0 0 612 792" xml:space="preserve">
<path fill="#192530" d="M86.554,173.666h438.891c41.966,0,75.189,31.474,75.189,75.189v438.891
	c0,45.463-34.971,75.189-75.189,75.189H86.554c-41.966,0-75.189-31.474-75.189-75.189V248.854
	C11.366,205.14,44.589,173.666,86.554,173.666L86.554,173.666z M441.514,238.363c-13.989,0-26.229,12.24-26.229,26.229v64.697
	c0,13.989,12.24,26.229,26.229,26.229h66.446c13.989,0,26.229-12.24,26.229-26.229V266.34c0-13.989-12.24-26.229-26.229-26.229
	h-66.446V238.363z M535.937,423.711H483.48c5.246,15.737,6.994,33.223,6.994,50.709c0,97.92-82.183,178.354-183.6,178.354
	s-183.6-80.434-183.6-178.354c0-17.486,3.497-34.971,6.994-50.709H76.063v250.046c0,12.24,10.491,22.731,22.731,22.731h412.663
	c12.24,0,22.731-10.491,22.731-22.731L535.937,423.711L535.937,423.711z M306.874,352.02c-66.446,0-118.903,50.709-118.903,115.406
	s52.457,115.406,118.903,115.406s118.903-50.709,118.903-115.406S373.32,352.02,306.874,352.02z"/>
</svg>
