<?xml version="1.0" encoding="utf-8"?>
<!-- Generator: Adobe Illustrator 18.0.0, SVG Export Plug-In . SVG Version: 6.00 Build 0)  -->
<!DOCTYPE svg PUBLIC "-//W3C//DTD SVG 1.1//EN" "http://www.w3.org/Graphics/SVG/1.1/DTD/svg11.dtd">
<svg version="1.1" id="Layer_1" xmlns="http://www.w3.org/2000/svg" xmlns:xlink="http://www.w3.org/1999/xlink" x="0px" y="0px"
	 viewBox="34.3 33.3 35 35.3" enable-background="new 34.3 33.3 35 35.3" xml:space="preserve">
<path fill="#E54C3C" d="M39.4,34.1h25.1c2.4,0,4.3,1.8,4.3,4.3v25.1c0,2.6-2,4.3-4.3,4.3H39.4c-2.4,0-4.3-1.8-4.3-4.3V38.4
	C35.1,35.9,37,34.1,39.4,34.1L39.4,34.1z M59.7,37.8c-0.8,0-1.5,0.7-1.5,1.5V43c0,0.8,0.7,1.5,1.5,1.5h3.8c0.8,0,1.5-0.7,1.5-1.5
	v-3.6c0-0.8-0.7-1.5-1.5-1.5H59.7L59.7,37.8z M65.1,48.4h-3c0.3,0.9,0.4,1.9,0.4,2.9c0,5.6-4.7,10.2-10.5,10.2
	c-5.8,0-10.5-4.6-10.5-10.2c0-1,0.2-2,0.4-2.9h-3.1v14.3c0,0.7,0.6,1.3,1.3,1.3h23.6c0.7,0,1.3-0.6,1.3-1.3L65.1,48.4L65.1,48.4z
	 M52,44.3c-3.8,0-6.8,2.9-6.8,6.6s3,6.6,6.8,6.6c3.8,0,6.8-2.9,6.8-6.6S55.8,44.3,52,44.3z"/>
</svg>
