<?xml version="1.0" encoding="utf-8"?>
<!-- Generator: Adobe Illustrator 17.1.0, SVG Export Plug-In . SVG Version: 6.00 Build 0)  -->
<!DOCTYPE svg PUBLIC "-//W3C//DTD SVG 1.1//EN" "http://www.w3.org/Graphics/SVG/1.1/DTD/svg11.dtd">
<svg version="1.1" id="Layer_1" xmlns="http://www.w3.org/2000/svg" xmlns:xlink="http://www.w3.org/1999/xlink" x="0px" y="0px"
	 viewBox="0 0 95.9 71.8" enable-background="new 0 0 95.9 71.8" xml:space="preserve">
<path fill="#EEEEEE" d="M28.5,14.7h39c3.7,0,6.7,2.8,6.7,6.7v39c0,4-3.1,6.7-6.7,6.7h-39c-3.7,0-6.7-2.8-6.7-6.7v-39
	C21.8,17.5,24.7,14.7,28.5,14.7L28.5,14.7z M60,20.4c-1.2,0-2.3,1.1-2.3,2.3v5.7c0,1.2,1.1,2.3,2.3,2.3h5.9c1.2,0,2.3-1.1,2.3-2.3
	v-5.6c0-1.2-1.1-2.5-2.3-2.5L60,20.4z M68.4,36.9h-4.7c0.5,1.4,0.6,3,0.6,4.5c0,8.7-7.3,15.8-16.3,15.8s-16.3-7.1-16.3-15.8
	c0-1.6,0.3-3.1,0.6-4.5h-4.8v22.2c0,1.1,0.9,2,2,2h36.7c1.1,0,2-0.9,2-2L68.4,36.9L68.4,36.9z M48,30.5c-5.9,0-10.6,4.5-10.6,10.3
	S42.1,51,48,51s10.6-4.5,10.6-10.3S53.9,30.5,48,30.5z"/>
<g>
	<circle fill="#3498DB" cx="48" cy="40.8" r="9.2"/>
	<path fill="#58B7E0" d="M42.2,37.6c0.2-0.2,0.3-0.5,0.4-0.8c0.1-0.2,0.1-0.5,0-0.7c0-0.1-0.1-0.2-0.2-0.2c-0.2,0-0.4,0-0.5,0
		c0,0-0.1,0-0.1,0c-0.4,0.2-0.6,0.5-0.8,0.9c0,0,0,0,0,0c-0.1,0.1-0.2,0.2-0.1,0.3c0,0,0,0,0,0.1c0,0.4,0,0.8,0.2,0.9
		c0.1,0.1,0.2,0.1,0.2,0.1c0,0,0,0,0.1,0C41.8,38.1,42,37.9,42.2,37.6C42.2,37.6,42.2,37.6,42.2,37.6z"/>
	<path fill="#58B7E0" d="M50.7,34.5C50.7,34.5,50.7,34.5,50.7,34.5c-0.1-0.1-0.1-0.1-0.1-0.1c0-0.1,0-0.2-0.1-0.3c0,0,0,0,0,0l0,0
		c0-0.1-0.1-0.1-0.1-0.2c-0.1-0.2-0.3-0.1-0.4,0.1c0,0.1-0.1,0.2-0.1,0.4c0,0.1,0,0.1,0.1,0.2c0,0.1,0.2,0.2,0.2,0.3
		c0.1,0,0.1,0,0.2,0c0,0,0,0,0,0c0.1,0,0.1,0,0.2,0c0,0,0.1,0,0.1,0C50.8,34.7,50.9,34.6,50.7,34.5z"/>
	<path fill="#58B7E0" d="M54.7,41.7c0-0.3-0.2-0.6-0.5-0.7c0,0-0.1-0.1-0.1-0.1c-0.3-0.3-0.8-0.4-1.1-0.2c-0.4,0.2-0.5,0.7-0.5,1.1
		c0,0,0,0.1,0,0.1c-0.3,0.7,0.2,1.9,1.1,1.5c0.1,0,0.2-0.1,0.2-0.2C54.3,43,54.7,42.2,54.7,41.7z"/>
	<path fill="#2A8EC6" d="M42.3,40.6c-0.2-0.1-0.3-0.2-0.5-0.2c-0.1-0.1-0.2-0.2-0.4-0.2c-0.4-0.2-0.7-0.3-1.1-0.3
		c-0.2,0-0.3,0.1-0.3,0.2c-0.2,0.8-0.1,1.7,0.2,2.6v0c0.1,0.2,0.2,0.5,0.3,0.6c0,0.1,0.1,0.1,0.1,0.2c0.1,0.2,0.2,0.3,0.4,0.5
		c0.2,0.2,0.3,0.2,0.6,0.3c0.1,0.1,0.1,0.1,0.2,0.2s0.2,0,0.3,0c0.1,0,0.1-0.1,0.2-0.1c0.1,0,0.2-0.1,0.2-0.1
		c0.2-0.1,0.4-0.3,0.6-0.5C43.5,42.9,43.2,41.2,42.3,40.6z"/>
	<path fill="#2A8EC6" d="M43.3,39.2c0.1-0.1,0.1-0.3,0.1-0.4c0-0.1-0.1-0.2-0.2-0.3c-0.1-0.2-0.3-0.3-0.5-0.2
		c-0.1,0-0.3,0.1-0.3,0.2c0,0.1,0,0.1,0,0.2c-0.1,0-0.1,0.1,0,0.2c0,0,0,0.1,0,0.1c-0.1,0.2,0.1,0.5,0.2,0.7c0.1,0.1,0.2,0.1,0.3,0
		c0,0,0.1,0,0.1-0.1c0.1,0,0.1,0,0.2,0.1C43.3,39.8,43.5,39.4,43.3,39.2z"/>
	<path fill="#2A8EC6" d="M46.4,48.1C46.4,48.1,46.4,48.1,46.4,48.1c0-0.1-0.1-0.2-0.1-0.2c-0.4-1.1-2.1-2-3.2-1.7
		c-0.1,0-0.2,0.2-0.2,0.3c0,0.3,0.1,0.6,0.3,0.9c0.3,0.9,1.8,1.5,2.6,1.2c0.1,0,0.2,0,0.3-0.1c0.1,0,0.2-0.1,0.2-0.2
		C46.4,48.3,46.5,48.2,46.4,48.1z"/>
	<path fill="#2A8EC6" d="M54.3,46.3C54.3,46.3,54.3,46.3,54.3,46.3c0.2-0.4,0.4-0.8,0.3-1.2c0-0.1,0-0.2-0.1-0.2c0-0.1,0-0.1,0-0.2
		v0c0-0.1,0-0.2,0-0.3c0-0.1-0.1-0.2-0.2-0.2s-0.2,0-0.2,0c-0.1-0.1-0.2-0.1-0.2-0.1c-0.7-0.2-1.6,0.3-2.1,0.9
		c-0.5,0.6-0.5,1.5,0.1,2c0.1,0.1,0.1,0.1,0.2,0.1c0.4,0.4,1.1,0.2,1.5-0.1c0.2-0.2,0.3-0.3,0.5-0.5C54.2,46.5,54.2,46.4,54.3,46.3z
		"/>
	<path fill="#2A8EC6" d="M52.4,33.8c0-0.2-0.2-0.3-0.4-0.2c0.1-0.1,0,0,0,0s-0.1,0-0.1,0.1l0,0c0,0-0.1,0-0.1,0.1c0,0,0,0-0.1,0h0
		c0,0-0.1,0-0.1,0.1c-0.1,0.1-0.1,0.2-0.1,0.2c0,0.1,0.1,0.2,0.2,0.3c0.1,0,0.2,0,0.3,0.1c0.2,0.1,0.4-0.1,0.3-0.3
		C52.4,34,52.4,33.9,52.4,33.8z"/>
	<path fill="#2A8EC6" d="M54.4,35.5C54.4,35.5,54.4,35.4,54.4,35.5c-0.2-0.2-0.3-0.4-0.5-0.4c-0.2-0.1-0.4-0.2-0.6-0.2
		c-0.2,0-0.3,0-0.5,0.1c-0.1,0-0.2,0-0.2,0c-0.1,0-0.2,0.1-0.2,0.2s0,0.2-0.1,0.3c-0.1,0.2,0,0.5,0.1,0.6c0.4,0.6,1.2,0.6,1.7,0.3
		c0,0,0,0,0.1,0c0.1,0,0.2-0.1,0.2-0.2C54.6,36,54.5,35.7,54.4,35.5z"/>
	<path fill="#2A8EC6" d="M51.7,35.6c-0.1-0.1-0.2-0.2-0.3-0.2c0,0-0.1-0.1-0.1-0.1c-0.2-0.1-0.5,0.2-0.3,0.4c0,0,0.1,0.1,0.1,0.1
		c0,0,0,0,0,0v0c0,0.2,0.2,0.3,0.3,0.2C51.6,36.1,51.9,35.8,51.7,35.6z"/>
</g>
</svg>
