<?xml version="1.0" encoding="utf-8"?>
<!-- Generator: Adobe Illustrator 17.1.0, SVG Export Plug-In . SVG Version: 6.00 Build 0)  -->
<!DOCTYPE svg PUBLIC "-//W3C//DTD SVG 1.1//EN" "http://www.w3.org/Graphics/SVG/1.1/DTD/svg11.dtd">
<svg version="1.1" id="Layer_1" xmlns="http://www.w3.org/2000/svg" xmlns:xlink="http://www.w3.org/1999/xlink" x="0px" y="0px"
	 viewBox="0 0 95.9 71.8" enable-background="new 0 0 95.9 71.8" xml:space="preserve">
<g>
	<g>
		<path fill="#D4252A" d="M70,62.1c-9,0-18,0-27.1,0c-2.8,0-4.8-1.7-6.6-3.5c-3.8-3.9-6.4-8.6-8.8-13.4c-4.3-8.6-8.4-17.3-12.6-25.9
			c-2.2-4.6-4.7-9-7.9-13C5.2,3.9,3.2,1.9,0.4,0.6c1.5,0,2.8,0,4.1,0c7.3,0.3,14.7,0.5,22,0.9c4.7,0.3,9.3,1,13.8,2.3
			c8.2,2.4,13.7,7.7,17.2,15.4c2.7,6,4.4,12.3,6,18.6c1.6,6.5,3.1,13.1,4.8,19.6C68.7,59,69.4,60.5,70,62.1z"/>
		<path fill="#EEEEEE" d="M74.4,13.2c3.4,0,6.4,0,9.5,0c1,0,1.6,0.5,1.9,1.3c0.7,1.8,1.4,3.6,1.8,5.5c1.2,5.8,1.6,11.8,1.7,17.7
			c0.2,6.4,0.3,12.9,0.4,19.3c0,0.4,0.1,0.9,0.1,1.3c0.4,2.9,1.5,3.8,4.4,3.8c0.4,0,0.7,0,1.2,0c0,3,0,6,0,9
			c-3.7,0.4-7.4,0.5-10.7-1.4c-2.6-1.4-4-3.8-4.6-6.6c-0.3-1.6-0.5-3.3-0.6-5c-0.2-7.9-0.2-15.8-0.5-23.7c-0.2-5.5-0.7-11-2-16.3
			C76.6,16.3,76.1,14.6,74.4,13.2z"/>
	</g>
</g>
</svg>
