<?xml version="1.0" encoding="utf-8"?>
<!-- Generator: Adobe Illustrator 17.1.0, SVG Export Plug-In . SVG Version: 6.00 Build 0)  -->
<!DOCTYPE svg PUBLIC "-//W3C//DTD SVG 1.1//EN" "http://www.w3.org/Graphics/SVG/1.1/DTD/svg11.dtd">
<svg version="1.1" id="Layer_1" xmlns="http://www.w3.org/2000/svg" xmlns:xlink="http://www.w3.org/1999/xlink" x="0px" y="0px"
	 viewBox="0 0 60.6 60.6" enable-background="new 0 0 60.6 60.6" xml:space="preserve">
<g>
	<circle fill="#3498DB" cx="30.3" cy="30.3" r="30"/>
	<path fill="#58B7E0" d="M11.4,20c0.7-0.7,1.1-1.6,1.2-2.6c0.2-0.8,0.2-1.6,0.1-2.4c0-0.3-0.3-0.5-0.6-0.6c-0.6-0.1-1.2-0.1-1.7,0.1
		c-0.1,0-0.3,0-0.4,0c-1.2,0.6-2,1.7-2.5,2.9c0,0-0.1,0-0.1,0.1c-0.2,0.4-0.5,0.5-0.4,1c0,0.1,0.1,0.1,0.1,0.2
		C7,19.9,7,21.3,7.8,21.6c0.2,0.2,0.5,0.3,0.8,0.2c0.1,0,0.1,0,0.2-0.1c1.1,0,2-0.7,2.6-1.6C11.3,20.1,11.4,20.1,11.4,20z"/>
	<path fill="#58B7E0" d="M39.1,9.9c-0.1,0-0.1-0.1-0.2-0.2c0-0.1,0-0.1,0-0.2c0.1-0.3,0-0.6-0.2-0.9c0,0,0,0,0-0.1c0,0,0,0,0,0
		c-0.1-0.2-0.3-0.4-0.4-0.6c-0.4-0.5-1.1-0.4-1.3,0.2c-0.1,0.4-0.4,0.8-0.4,1.2c0,0.2,0.1,0.3,0.2,0.5c0.1,0.4,0.5,0.8,0.8,1
		c0.2,0.1,0.4,0.1,0.6,0.1c0,0,0,0,0,0.1c0.2,0.1,0.4,0,0.5-0.1c0.1,0,0.2-0.1,0.3-0.1C39.4,10.7,39.5,10.1,39.1,9.9z"/>
	<path fill="#58B7E0" d="M51.9,33.3c0-1.1-0.6-1.8-1.5-2.2c-0.1-0.1-0.2-0.3-0.3-0.4c-0.9-1.1-2.5-1.4-3.7-0.6
		c-1.2,0.8-1.6,2.3-1.7,3.6c0,0.1,0,0.2,0,0.2c-0.9,2.4,0.8,6.3,3.5,5c0.3-0.1,0.5-0.3,0.7-0.5C50.6,37.5,51.9,34.9,51.9,33.3z"/>
	<path fill="#2A8EC6" d="M11.8,29.9c-0.6-0.3-1.1-0.6-1.6-0.7c-0.4-0.3-0.8-0.5-1.2-0.7c-1.2-0.7-2.4-1.1-3.7-1.1
		c-0.5,0-0.9,0.3-1,0.8c-0.7,2.6-0.3,5.6,0.6,8.3c0,0,0,0.1,0,0.1c0.2,0.8,0.5,1.5,0.9,2.1c0.1,0.2,0.2,0.4,0.3,0.6
		c0.4,0.6,0.8,1.1,1.4,1.5c0.5,0.5,1.1,0.8,1.8,1c0.2,0.2,0.4,0.3,0.6,0.5c0.2,0.2,0.6,0.1,0.9,0c0.2-0.1,0.4-0.3,0.6-0.4
		c0.3-0.1,0.5-0.2,0.7-0.3c0.7-0.3,1.3-0.9,1.8-1.7C15.5,37.1,14.7,31.6,11.8,29.9z"/>
	<path fill="#2A8EC6" d="M14.9,25.3c0.2-0.4,0.3-0.9,0.2-1.4c-0.1-0.4-0.3-0.7-0.6-0.9c-0.2-0.7-1.1-1.1-1.6-0.5
		c-0.4-0.1-0.9,0.2-1,0.6c-0.1,0.2-0.1,0.4-0.1,0.6c-0.2,0.1-0.2,0.3-0.1,0.5c0,0.1-0.1,0.2-0.1,0.3c-0.3,0.8,0.3,1.7,0.8,2.3
		c0.2,0.2,0.7,0.3,0.9,0.1c0.1-0.1,0.2-0.1,0.2-0.2c0.2,0.1,0.3,0.1,0.5,0.2C15,27.1,15.6,25.9,14.9,25.3z"/>
	<path fill="#2A8EC6" d="M25.1,54.2c0-0.1-0.1-0.2-0.1-0.3c0-0.1-0.1-0.2-0.1-0.3c-1.3-3.7-6.9-6.4-10.5-5.5
		c-0.4,0.1-0.7,0.5-0.7,0.9c0,1.1,0.4,2.1,1,3c0.9,2.9,5.7,5,8.6,3.8c0.3-0.1,0.6-0.1,0.9-0.3c0.3-0.1,0.5-0.3,0.6-0.5
		C25.1,54.8,25.2,54.5,25.1,54.2z"/>
	<path fill="#2A8EC6" d="M50.6,48.4c0-0.1,0.1-0.1,0.1-0.2c0.7-1.1,1.1-2.4,0.9-3.6c0-0.2-0.1-0.5-0.2-0.6c0-0.2,0-0.4,0-0.6
		c0,0,0-0.1,0-0.1c0.1-0.3,0.1-0.6,0.1-0.9c0-0.2-0.2-0.6-0.5-0.6c-0.3,0-0.5,0-0.8,0c-0.2-0.2-0.5-0.3-0.8-0.4
		c-2.4-0.8-5.3,1.1-6.7,2.9c-1.6,2-1.6,4.8,0.3,6.5c0.2,0.2,0.3,0.3,0.5,0.4c1.4,1.2,3.7,0.8,5-0.3c0.6-0.5,1.1-1,1.6-1.7
		C50.3,48.9,50.4,48.7,50.6,48.4z"/>
	<path fill="#2A8EC6" d="M44.4,7.7c0-0.5-0.8-1-1.2-0.5c0.2-0.3,0-0.1-0.1-0.1c-0.1,0-0.3,0.1-0.4,0.2c0,0,0,0,0,0
		c-0.1,0-0.3,0.1-0.4,0.2c-0.1,0-0.1,0.1-0.2,0.1c0,0-0.1,0-0.1,0c-0.1-0.1-0.2,0.1-0.2,0.2c-0.2,0.2-0.2,0.5-0.2,0.7
		c0.1,0.4,0.3,0.8,0.7,1c0.3,0.1,0.6,0.1,0.9,0.2c0.7,0.4,1.3-0.4,1.1-0.9C44.4,8.4,44.4,7.9,44.4,7.7z"/>
	<path fill="#2A8EC6" d="M50.9,13.2c0-0.1,0-0.2-0.1-0.2c-0.4-0.6-1-1-1.6-1.2c-0.6-0.3-1.3-0.5-1.8-0.6c-0.6-0.1-1.1,0-1.6,0.2
		c-0.2,0-0.5,0-0.7,0.1c-0.3,0-0.6,0.4-0.7,0.7c-0.1,0.3-0.1,0.6-0.2,0.9c-0.2,0.7-0.1,1.5,0.3,2.1c1.2,1.8,3.9,2,5.6,0.9
		c0.1,0,0.1,0,0.2,0c0.4,0,0.7-0.3,0.8-0.6C51.5,14.7,51.3,13.9,50.9,13.2z"/>
	<path fill="#2A8EC6" d="M42.3,13.5c-0.2-0.4-0.6-0.8-1.1-0.8c-0.1-0.1-0.3-0.2-0.4-0.3c-0.7-0.3-1.6,0.6-0.9,1.2
		c0.1,0.1,0.2,0.2,0.3,0.2c0,0,0,0,0,0.1c0,0,0,0.1,0,0.1c-0.1,0.7,0.6,0.9,1.1,0.7C42,15,42.8,14.3,42.3,13.5z"/>
</g>
</svg>
