<?xml version="1.0" encoding="utf-8"?>
<!-- Generator: Adobe Illustrator 17.1.0, SVG Export Plug-In . SVG Version: 6.00 Build 0)  -->
<!DOCTYPE svg PUBLIC "-//W3C//DTD SVG 1.1//EN" "http://www.w3.org/Graphics/SVG/1.1/DTD/svg11.dtd">
<svg version="1.1" id="Layer_1" xmlns="http://www.w3.org/2000/svg" xmlns:xlink="http://www.w3.org/1999/xlink" x="0px" y="0px"
	 viewBox="0 0 837.3 395" enable-background="new 0 0 837.3 395" xml:space="preserve">
<g>
	<path fill="#9E9790" d="M775.6,268c-6.1-2.9-10.8-8.9-15.9-13.2c-2.2-1.9-4.5-3.8-6.8-5.7c-6.7-9.9-14.4-19.5-25-24.2
		c-1-0.5-2.1-0.6-3.1-0.6c-5.6-5.1-11.5-10.1-17.9-14.3c-3.1-2.1-6.5-0.5-8.2,2.1c-1.6-1.3-3.3-2.6-5-3.9c-2.6-2-5.6-1-7.5,1
		c-3.5-4-7.4-7.6-12.2-10c-4.4-2.1-9.3,0.4-10,4.8c-1.2-1.3-2.3-2.6-3.4-3.9c-1.4-1.7-3.1-2.4-4.7-2.3c-4.8-6.2-9.7-12.3-15.3-17.8
		c-4.6-4.6-10.3-1-11,3.9c-0.2,0-0.5,0.1-0.7,0.2c-4.9-0.9-8.1,5-6,9.2c13.8,27.1,42,41.7,61,64.5c4,4.8,10,0.8,10.6-4.1
		c3.8,3,7.7,5.8,11.7,8.6c3.5,2.4,7.2,0.6,9-2.4c3.9,3,8.1,5.6,12.9,7.3c1.7,0.6,3.5,0.3,5-0.6c2.3,2.3,4.6,4.6,7,6.7
		c3.3,2.9,7.4,2,9.9-0.4c0.6,0.5,1.1,1,1.7,1.4c3.4,2.7,7.1,1.8,9.1-0.7c0.5-0.2,1-0.5,1.4-0.9c2.3,2,4.8,3.8,7.6,5.1
		C776.5,280.8,782.3,271.2,775.6,268z"/>
	<path fill="#9E9790" d="M226.5,154.3c-1.3,0.7-2.5,1.4-3.8,2.2c1.5-5.1-5-9.3-7.5-4.1c-0.2,0.5-0.5,0.9-0.8,1.4
		c-1.4-0.9-3.2-0.9-4.8,0.7c-1.5,1.4-2.9,2.9-4.3,4.4c-0.9-0.3-2-0.2-3,0.5c-0.4,0.3-0.9,0.7-1.3,1c-1.3-1.1-3.1-1.5-4.7-0.6
		c-0.5,0.3-1,0.6-1.5,0.9c-1.3-1.7-3.5-2.3-5.3-1.1c-0.5,0.3-0.9,0.7-1.3,1c-1.2-1.7-3.5-2.2-5.3-1.1c-2.7,1.5-5,3.5-7.2,5.7
		c-1.2-0.6-2.6-0.7-3.7,0.2c-2,1.5-3.8,3.2-5.5,5c-1.4-1.5-3.7-1.7-5.6,0.1c-1.1,1-2.1,2.1-3.1,3.1c-1.2-1-2.8-1.3-4.4-0.3
		c-1.3,0.8-2.4,1.8-3.5,2.9c-0.1,0-0.2-0.1-0.2-0.1c-2.6-0.6-4.9,0.1-6.9,1.6c-1-0.8-2.2-1.1-3.3-0.8c-2.5,0.8-4.5,2.2-6.3,4.1
		c-0.9-0.3-1.9-0.2-3,0.5c-1.2,0.8-2.3,1.7-3.3,2.7c-1-0.7-2.2-0.8-3.4,0c-1.4-2.2-4.3-3.2-6.1-0.8c-0.5,0.6-0.9,1.2-1.4,1.8
		c-0.7,0.4-1.3,0.7-1.9,1.1c-0.6-0.2-1.2-0.2-1.9,0.1c-2.2,1-4.2,2.3-6,3.9c-0.2-3.2-3.4-6-6-3.8c-0.8,0.7-1.6,1.4-2.4,2.2
		c0,0,0,0,0,0c-2.8,1.5-4.7,4.3-6.4,7.1c-0.4,0.1-0.8,0.2-1.1,0.5c-0.5,0.4-1.1,0.8-1.6,1.2c-1-0.9-2.3-1.2-3.6-0.3
		c-1.4,1-2.7,2.2-4,3.3c-1-0.6-2.3-0.6-3.3,0.7c-5.9,7.6-13.2,13.1-19.7,19.9c-5.9,6.3-10.4,14.6-17.3,19.5c-2.9,2-0.3,7.3,2.6,5.3
		c5.6-3.7,9.9-9.4,14.4-14.8c-1.8,3.6,2.5,8.2,5.4,4.8c0.7-0.8,1.4-1.6,2-2.4c2.9-3.3,5.9-6.6,8.8-9.9c1.2,1.6,3.3,2.1,5,0.2
		c0,0,0,0,0,0c1.2,1.8,3.7,2.6,5.5,0.6c1.4-1.6,2.8-3.3,4.2-5c1.1,2.4,3.8,3.6,5.8,1c0.7-1,1.5-1.9,2.2-2.8c1.8-0.2,3.5-1.1,5.1-2.2
		c1.2,0.4,2.6,0.1,3.8-1.1c0.4-0.4,0.8-0.9,1.3-1.3c1,0,1.9-0.4,2.8-1.3c0.9-1,1.8-2,2.7-3.1c1,2.8,4.5,4.1,6.7,1.7
		c1.1-1.3,2.1-2.7,3-4.2c1.4,1.1,3.2,1.2,4.8-0.7c0.7-0.9,1.4-1.8,2-2.7c1.4,1.9,4.3,2.4,6.2,0.5c1-1,1.9-2.1,2.7-3.3
		c1.3,2.6,4.2,3.9,6.2,1.1c1-1.3,1.8-2.7,2.7-4.2c1.5,1.1,3.6,1.2,5-0.6c1-1.3,2-2.7,3.1-4.1c1.6,1.3,4,1.5,5.6-0.3
		c1.2-1.3,2.3-2.7,3.4-4.1c1.6,1.4,3.9,1.7,5.5-0.3c1-1.2,2-2.5,3-3.8c1.1,1.6,3.2,2.5,5,1.6c1.4,2,4.3,2.7,6.4,0.7
		c1.5-1.4,2.9-3.1,4.3-4.7c1.3,1.5,3.3,2.1,4.9,0.7c0.5-0.4,0.9-0.8,1.4-1.3c1,0.8,2.3,1.1,3.5,0.5c0.7,2.1,3.1,3.6,5,1.6
		c8.4-8.5,16.8-17.5,26.8-23.3C232.3,158,229.5,152.7,226.5,154.3z"/>
	<path fill="#9E9790" d="M237.2,234.1c-0.2,0.2-0.4,0.3-0.7,0.5c-0.8,0.6-1.3,1.4-1.5,2.3c0,0,0,0,0,0c-0.8,0.7-1.5,1.4-2.3,2.1
		c-1,0.8-1.9,1.5-2.5,2c-0.2,0.2-0.5,0.5-0.7,0.7c0.4-0.6,0.9-1.1,1.3-1.7c3.5-4.7-2.1-11.6-5.7-7c-1.2,1.5-2.5,3-3.8,4.5
		c-1.1-0.6-2.5-0.8-3.8,0c-1.8,1-3.4,2.4-4.9,4c-2,0.5-3.6,1.4-5.1,2.7c-0.9-0.7-2-1-3.1-0.4c-2.3,1.1-4.3,2.7-6,4.4
		c-0.7-0.4-1.6-0.5-2.6-0.2c-2,0.6-3.9,1.7-5.6,3c-1.2-1-2.7-1.2-4,0c-0.8,0.7-1.5,1.4-2.3,2.1c-0.9-0.9-2.1-1.3-3.5-0.9
		c-2.9,0.9-5.2,2.8-7.1,5.3c-0.9-0.4-1.9-0.2-2.9,0.7c-0.4,0.4-0.8,0.7-1.2,1.1c-1.1-1.5-3.2-2.1-5-1.1c-1.8,1-3.4,2.3-4.9,3.8
		c-1.1-0.6-2.4-0.7-3.7,0.1c-0.4,0.3-0.8,0.5-1.2,0.8c-0.9-0.7-2-1-3.2-0.8c-2.7,0.5-5,2.2-7.1,4.4c-0.6,0-1.2,0.2-1.8,0.6
		c0,0-0.1,0.1-0.1,0.1c-1.1-1.2-2.7-1.7-4.4-0.7c-1.8,1-3.4,2.3-4.9,3.7c-0.3,0-0.5,0.1-0.8,0.2c-0.3-0.3-0.5-0.5-0.8-0.7
		c0.8-0.8,1.6-1.5,2.4-2.3c3.3-3.3-1.4-9-4.7-5.7c-3.6,3.6-7.3,7.1-11.1,10.3c-0.7,0.5-1.4,0.9-2,1.4c-2.8,2-5.4,4.4-7.9,6.9
		c-6.8,5.4-13.6,10.7-20.1,16.4c-5.5,4.8-11,9.8-15.6,15.9c-3.3,4.3-6.6,10.2-4.2,16.2c1,2.6,4.1,1.8,4.9-0.4
		c1.2,0.5,2.7,0.3,3.9-0.8c0.5-0.5,1-0.9,1.5-1.4c0.6,0.1,1.1,0,1.7-0.4c1.2-0.9,2.4-1.8,3.6-2.8c0.8-0.8,1.2-1.8,1.2-2.9
		c1.9-1.8,3.8-3.5,5.7-5.3c0.9,0.3,2,0.3,3-0.3c6-3.6,11.4-8.3,16.6-13.5c1.3,1.6,3.5,2.1,5.4,0.3c0.9-0.9,1.8-1.8,2.6-2.7
		c0.4-0.1,0.9-0.4,1.3-0.8c2.7-2.3,5-5.1,7.3-8c1.2,2.1,3.8,2.8,5.9,0.8c0.1-0.1,0.2-0.3,0.4-0.4c1.5,1.3,3.6,1.6,5.1-0.2
		c0.6-0.7,1.1-1.5,1.6-2.2c1.1,1.8,3.2,2.7,4.9,1.2c1-0.8,1.9-1.8,2.7-2.8c1.4,1,3.2,1.1,4.7-0.6c0.2-0.3,0.5-0.6,0.7-0.8
		c0.8,2.4,3.1,3.7,5.5,2.3c1.8-1.1,3.2-2.5,4.5-4.2c0.9,0.2,1.8,0.1,2.6-0.4c1.8-1,3.3-2.5,4.7-4.2c1.1,1.5,2.9,2.2,4.4,0.9
		c1.5,1.5,3.8,1.9,5.3-0.2c1.5-2,3-4.6,4.6-7.1c1.4,2.1,4.2,2.9,6.2,0.7c1.2-1.5,2.4-3.1,3.6-4.9c1,2.1,3,3.2,5,1.3
		c0.6-0.5,1.1-1.1,1.6-1.6c1,3,4.7,5.1,6.7,2c0.4-0.6,0.8-1.2,1.2-1.7c0.4,2.7,3.3,4.8,5.4,2.3c4.2-5.1,8.6-10,13.1-14.8
		c2.6-2.9,5.5-5.8,8-9c2.1-1.9,5-3.8,6.1-6.5C243,236.1,240.1,232,237.2,234.1z"/>
</g>
<g>
	<path fill="#D6CCB6" d="M779.5,273.2c-2.4-1.5-5-2.9-7.6-4.1c-0.1,0-0.2-0.1-0.2-0.1c-15-3.6-29.8-7.6-44.5-12.1
		c-15.5-4.7-30.8-10.2-45.7-16.8c-14.2-3.7-28.4-7.3-42.5-11.4c0,0,0,0,0,0c-9.6-2.8-19.1-6-28.5-9.5c-0.3-0.1-0.6-0.3-0.8-0.4
		c-0.8,0-1.6,0-2.4-0.1c-2.7,0-4.1-1.9-4.4-4c-2.6-0.1-5.3-0.2-8-0.1c-3.2,0.1-3.2,4.9,0,4.9c0.3,0,0.6,0,0.8,0
		c-0.3,0.6-0.4,1.4-0.3,2c0.3,1.8,0.5,3.6,0.6,5.4c-0.1,0.1-0.1,0.2-0.2,0.3c-1.8,0-3.7,1.6-3.4,3.9c0.1,0.6,0.2,1.2,0.3,1.9
		c-0.5,0.3-1,0.8-1,1.6c-0.2,3.8-0.6,7.5-1.1,11.2c-1.1,2.8-1.5,6-0.8,9c0.5,2.2,2.7,2.7,4.3,1.9c0.2,0.2,0.5,0.4,0.7,0.6
		c1.2,3.4,3.1,6.5,4.9,9.6c0.7,1.6,1.4,3.2,2.2,4.8c-0.6,2.4-0.6,5,0,7.6c0.6,2.9,3.8,2.7,5.4,1.1c0.2,0.6,0.6,1,1,1.4
		c0,0.4-0.1,0.8-0.1,1.2c-0.6,0.2-1.1,0.5-1.5,0.9c-1.1,0.1-2.2,0.8-2.7,2.2c-1,3-1.5,6.2-1.5,9.4c-1.4,1.3-2.7,2.9-3.8,4.7
		c-1.2,1.9,0,3.9,1.7,4.6c0.1,1.1,0.7,2.3,1.7,2.8c-0.9,0.5-1.6,1.4-1.7,2.6c-0.1,1-0.2,2-0.4,2.9c-2.4,4.8-5.4,9.4-6.7,14.7
		c-0.4,1.5,0.3,2.9,1.6,3.6c0.1,0.3,0.2,0.6,0.4,0.8c-1.3,0.1-2.6,0.2-3.9,0.4c-2.8,0.5-1.6,4.7,1.2,4.2c1.9-0.3,3.9-0.2,5.9,0
		c0.5-0.7,1.2-1.4,2.1-1.6c3-0.6,6.2,1.2,9.3,2.2l0,0h0c0.3,1,0.5,0.5,0.8,0.6c0.1,0,0.1,0.2,0.2,0.2c0.2,0.1,0.4,0.2,0.7,0.3
		c0.1,0,0.2,0.1,0.2,0.1c0.2,0.1,0.4,0.2,0.6,0.2c0.1,0,0.2,0.1,0.2,0.1c0.3,0.1,0.6,0.2,0.8,0.2c8.5,1.9,16.9,4.3,25.3,6.9
		c2.2,0.7,4.4,1.4,6.5,2.2l0,0c14.6,4.9,28.9,10.5,43.6,15.3c9.7,3.2,19.8,5.8,29.8,8.4c2.1,0.1,4.2,0.1,6.3-0.1
		c2.4,0.8,4.8,1.5,7.3,1.9c8.4,1.3,17.4-1.5,20-10.2c0.8-2.6,1.6-5.2,2.5-7.8c0.1-0.4,0.3-0.7,0.4-1.1c2.1-5.1,3.7-10.3,5.1-15.6
		c1.5-4.3,3.1-8.7,4.6-13c3-8.2,7.5-16.2,11.4-24.5c2.2-4.7,4.5-9.9,5.6-15.2C781.8,282.1,780.9,277.6,779.5,273.2z"/>
	<path fill="#D6CCB6" d="M807.6,209.7c9.3,0.1,18.8,1,28-0.6c0-0.5-0.1-1-0.1-1.5c-6.2-6.2-14.1-10.8-22.3-13.8
		c-1.1-0.4-1.3-2.2,0-2.5c5.6-1.4,10.6-4.9,15.9-7.4c-8.3-5.7-18.4-11.4-28.8-13.9c-5.6-3.4-12-5.8-17.8-8
		c-10.7-4-21.9-6.9-32.7-10.8c-32-11.6-63.2-24.7-96.9-31.1c-0.9-0.2-1.8-0.2-2.6,0c-4.4-0.4-8.6,0.2-11.9,2.6
		C634,134.4,629.5,146,626,158c-3.3,11.3-5.6,22.5-3.9,34.3c0.4,0.2,0.7,0.4,1.1,0.5c46.6,17.9,95.1,30.2,142,47.3c0,0,0,0,0,0
		c18,3.5,35.9,8.2,53.2,14.5c0.3-0.2,0.6-0.4,0.9-0.6c-6.2-7.1-12.6-14.1-19.1-21c0.4,0,0.8-0.1,1.1-0.2c1.1-0.2,2.1-0.6,2.9-1.3
		c9.3-0.5,18.7-0.7,28-1.4c0.3-0.9,0.6-1.7,0.8-2.6c-7.7-6.5-16.3-11.5-25.7-15.2C806,211.8,806.1,209.7,807.6,209.7z M809.1,247.9
		c0-0.7,1.1-0.7,1.1,0v1.3c0,0.7-1.1,0.7-1.1,0V247.9z"/>
</g>
<path fill="#B7AB97" d="M263.7,226.3c0.5,0,0.9,0,1.4,0c2.2,0.2,2.6-3.3,0.5-3.8c-0.9-0.2-1.8-0.3-2.8-0.3
	C263.2,223.6,263.5,225,263.7,226.3z"/>
<path fill="#B7AB97" d="M270.1,330.3c-0.5-2-0.9-4.1-1.3-6.1c-0.1-0.6-0.3-1-0.6-1.4c-0.2-2.4-0.6-4.8-1.3-7.1
	c-0.3-0.9-0.8-1.5-1.4-1.9c1.3-1,2.2-2.8,1.4-4.7c-2.2-5-4.5-10-6.1-15.2c-1.1-2.9-4.6-3-6.2-1.2c-0.6-3.7-1.7-7.4-3.6-10.6
	c-0.9-2.5-2.1-4.8-3.7-6.4c0.3,3.7,0.7,7.3,1.2,11c3,8.1,5.6,16.4,7.7,24.7c2.5,8.5,4.5,17.2,6.1,26c0,0.1,0,0.1,0,0.2
	c2.5-0.7,5-1.4,7.6-1.9C273,335,272.4,331.2,270.1,330.3z"/>
<path fill="#9E9790" d="M295,268.8c-3.2-6.2-7.8-11.6-11.2-17.8c-2.8-5-5.6-10.3-10.2-13.9c-1.2-0.9-3-1.3-4.1,0
	c-7.6,9.1-18.7,18.8-22.7,30.6c0.2,4.1,0.5,8.3,0.9,12.4c0.6,0,1.1-0.3,1.5-0.7c0.7,0,1.5-0.3,1.7-1.3c0.3-1.4,0.7-2.9,1.1-4.4
	c0.3,0.1,0.6,0.1,0.8,0.1c1,0.2,2.1-0.2,2.8-1.4c0.6-1.2,1.3-2.4,1.9-3.5c0.4,0.1,0.9,0.1,1.3,0.1c0.9,0.6,2.1,0.7,3.2,0.2
	c0.9,2.4,4.5,2.9,5.5-0.1c0.5-1.5,0.9-3,1.3-4.5c1.2,0.7,2.7,0.7,3.6-0.4c0.2,0,0.3,0,0.5-0.1c1.3,1.3,3.8,1.3,4.7-0.1
	c0,0.1,0.1,0.1,0.1,0.2c1.4,3,6.3,0.9,5.3-2.2c-0.1-0.2-0.2-0.5-0.2-0.7c2.4,3.9,5,7.7,7.8,11.1C292.6,274.9,296.4,271.5,295,268.8z
	"/>
<path fill="#9E9790" d="M589.6,243.6c-1.6-2.4-5.3-1.5-5.3,1.4c-0.2,10.1-6.1,18.8-10.9,27.4c-1.5,2.6,1.5,5.6,4.1,4.1
	c1.9-1.1,3.5-2.6,4.8-4.2c0.9,0.8,2.2,1.1,3.3,0.7c0.5,0.1,1,0.2,1.6,0.2c0.6,0,1.6-0.4,2.5-0.7c0.5,0.6,1.1,0.8,1.8,0.9
	c0.9,0.6,2,0.7,3,0.3c0.6,0.5,1.3,1,1.9,1.5c0.3,0.6,0.7,1.3,1,1.9c0.7,1.2,2,1.6,3.1,1.3c0.9,0.5,1.7,0.5,2.4,0.2
	c0,0.4,0.1,0.9,0.1,1.3c0.1,2.7,4.2,2.7,4.2,0C607.7,265,597,255,589.6,243.6z"/>
<path fill="#3498DB" d="M431.3,1.3c-96.6,0-175,78.4-175,175c0,4.4,0.2,8.8,0.5,13.1c0.6,4.4,1.1,8.7,1.5,13.1
	c0.9,5.7,2,11.4,3.4,17c0.4,0.6,0.7,1.3,0.9,2c0.5,1.8,0.9,3.7,1.2,5.5c21.7,71.9,88.5,124.3,167.5,124.3c96.6,0,175-78.4,175-175
	S528,1.3,431.3,1.3z"/>
<path fill="#53B1E5" d="M557.9,213.6c-2.5-14.7-15.6-27.5-31.5-25.8c-16.4,1.7-27.9,17.2-30.1,32.8c-2.1,14.8,3.9,28.4,16.3,34.3
	c9.2,7.6,22.6,10.1,33.7,4.8c9.4-4.4,13.6-14.9,14.7-24.8c0.4-1.5,0.7-3,0.9-4.5C562.7,224.2,561.1,218.4,557.9,213.6z"/>
<path fill="#2B8BC1" d="M346.2,205c-8.7-15.1-20.3-33.1-37.2-39.8c-6-2.4-12.2-1.2-17.1,2.1c-4.7,1.2-7.6,4.1-9.4,7.8
	c-1.5,0.7-2.8,2-3.5,3.2c-8.3,15.9-2.3,35.6,4.3,51c6.5,15.3,15.6,31.7,29.4,41.6c3.2,2.3,8.1,0.6,9.9-2.6c0.8-1.4,1.1-2.7,1-4.1
	c6.5,3.2,14,4.6,21.2,2.9c9.3-2.2,13.3-10.9,14.2-19.5C360.5,233.2,353.3,217.3,346.2,205z"/>
<path fill="#E5DBC1" d="M608.1,280.2c-0.4-3.8-2.6-5.8-6.3-6.3c-2.9-0.4-5.8-0.8-8.6-1.4c-9.3-4.6-19.1-8.4-28.7-12.1
	c-13.7-5.3-27.8-9.5-42.1-13c-29.4-7.1-59.2-9.1-89.4-7.8c-26.6,1.1-53.2,3.6-79.7,6.3c-15.5,1.6-31,4-46.3,7.1
	c-13.8,2.8-28,5.9-41,11.5c-6,2.6-14.6,6.4-17.4,13c-0.4,0-0.9,0.1-1.2,0.3c0.1,1.6,0.3,3.2,0.5,4.8c0.4,0.5,0.8,1,1.2,1.5
	c0.4,1.4,1.1,2.6,2.3,3.5c8.6,13.9,12,31.1,14.4,46.9c1.4,9.2,2.3,18.4,2.9,27.7c-0.2,0.6-0.3,1.2-0.3,1.9
	c-0.2,5.8-0.5,11.6,1.1,17.2c0.1,3.5,0.2,6.9,0.3,10.4c0,2,2,3.7,4,3c53.2-17.3,108.5-28.4,164.6-28.2c28.7,0.1,57,4.4,85.1,10.1
	c13.1,2.7,27.4,4.8,39.6,10.5c2.2,1,4.3,2.1,6.6,3c2.4,0.9,3.8,2.3,5.8,3.5c1.4,0.8,2.7,0.8,3.7,0.2c0.1-0.1,0.3-0.1,0.4-0.2
	c1.1,0.6,2.4,0.4,3.4-0.3c2.3,0,4.7-1.3,5.6-4.1c5.3-15.1,5.2-31.7,6.8-47.5c1.5-15.3,5.9-30.1,9.1-45.1
	C606.9,291.5,608.8,286.3,608.1,280.2z"/>
<g>
	<path fill="#3498DB" d="M331.9,285.1c-0.7-1.1-1.6-2-2.7-2.9c0,0,0,0-0.1-0.1c0,0,0,0,0,0c-0.3-0.2-0.6-0.5-0.9-0.7
		c-0.7-0.5-1.4-0.7-2.1-0.7c-0.4-0.2-0.8-0.4-1.2-0.6c-2.4-2-5.5-3.5-8.6-3.7c-4.5-1.4-9.4-1.7-13.8-0.1c-0.3,0.1-0.7,0.3-1,0.5
		c-1.3,0.4-2.4,1.5-3,2.8c-2.2,0-4.4,2.1-3.8,4.8c0.7,2.9,2,5.4,3.7,7.7c-1.4,7.2,2,14,4.2,21c0.4,1.3,1.2,2.2,2.3,2.7
		c0.4,1,0.8,2,1.2,2.9c0,0.1,0.1,0.2,0.1,0.2c-2.8,12.6,1.1,27,4.8,39c0.9,3,3.9,3.8,6.5,2.7c8.3-3.7,5.8-16.9,3-26.5
		c-0.1-0.7-0.2-1.4-0.4-2.1c-0.5-2.6-1-5.1-1.8-7.6c-0.2-0.9-0.4-1.7-0.5-2.6c-0.2-1-0.3-2.3-0.1-3.3c0.6-0.1,1.2-0.2,1.9-0.2
		c3.2-0.3,6.1-0.8,8.6-3c2.1-1.8,3.2-4,3.5-6.4c0.1-0.1,0.2-0.1,0.3-0.2c1.7-0.2,3.4-1.2,4-3.1C337.7,299.1,336.1,290.7,331.9,285.1
		z"/>
	<g>
		<path fill="#192530" d="M333,276.7c-6.8-4.9-16.9-5.4-25-5c-6.4,0.3-15.2,1.8-16.8,8.9c-1.3,0.7-2.2,2.3-1.4,4
			c12,24.4,10,52.8,16,78.8c0.3,1.4,1.7,2.3,3.1,2.3c5.2,0.2,9.7-1.9,14.8-2.6c0.4-0.1,0.8-0.2,1.1-0.4c2-0.2,4.1-2,3.7-4.6
			c-1.1-6.5-1.1-13-2.1-19.5c-0.9-5.9-3-11.5-3.8-17.3c8.7-3,16.1-8.6,19.7-17.3C346.2,294.2,341.1,282.5,333,276.7z M335.5,300.9
			c-2,7.9-10.8,12.4-18,14.3c-1.5,0.4-2.8,1.9-2.7,3.5c0.5,6.9,2.6,13.4,4,20.1c1.3,6,1.3,12.3,2,18.5c-3.2,0.6-6.3,1.6-9.4,2
			c-5.3-25.3-4.3-52-15.7-75.7c0.4-0.3,0.6-0.7,0.8-1.2c1.5-4.4,10.1-4,13.7-4c5.8,0,11.8,0.6,17,3.2
			C334.2,285.1,337.4,293.6,335.5,300.9z"/>
		<path fill="#192530" d="M316.2,290.1c-0.7-0.6-1.7-0.9-2.6-0.6c-1.6,0.4-2.2,1.9-1.9,3.4c0.3,2.1,0.8,4.1,0.8,6.2
			c0,1.5,1.3,3,2.9,2.9c3.6-0.2,6.6-2.8,6.9-6.5C322.6,292.1,319.4,289.7,316.2,290.1z"/>
	</g>
</g>
<g>
	<path fill="#3498DB" d="M378.9,332.9c-2.7-0.2-5.7-0.3-8.5-0.9c-0.5-6.1-1.7-12.2-2.7-18.3c-1.7-10-2.7-21.3-4.1-31.8
		c-1-7.2-3.6-15.3-12.3-15c-2.2,0.1-4.3,1.9-4.2,4.2c0.1,2.6,0.9,4.6,2.1,6.9c0.6,1.1,1,2.3,1.3,3.5c0.1,1.2,0.2,2.4,0.3,3.5
		c-0.8,0.8-1.4,1.8-1.4,3.1c-0.3,11.9,4,22.9,5.8,34.5c1.3,8.3-0.6,20,5.4,26.6c1,1.1,2.8,1.6,4.3,1.2c0.9,0.6,1.9,1,2.9,1.1
		c5.9,0.5,11.7-0.3,17.4-1.4c4.2-0.9,10.3-2.4,10.7-7.6C396.6,334.8,384.2,333.4,378.9,332.9z"/>
	<path fill="#192530" d="M396.5,333.2c0.1-1.3-0.5-2.1-1.4-2.5c-0.5-0.7-1.4-1.2-2.5-1.3c-6-0.1-11.8,1.7-17.8,2
		c-3.6-16-4.8-32.7-6.7-48.9c-0.7-5.7-1.6-11.6-5.4-16c-4.7-5.5-12.3,0.2-17.8-1.9c-2-0.8-3.6,1.3-3.5,3.1c0,0.5,0,1,0.3,1.6
		c2.8,5.3,3.4,11.4,4,17.3c0.6,6.7,1.4,13.2,2.6,19.7c2.8,14.9,1.4,30.8,5.7,45.4c0.7,2.5,3.2,2.9,4.9,1.8c0.3,0.2,0.7,0.4,1.1,0.5
		c11.2,2.2,22.2-1.7,33.4-1.7C403.9,352.1,396.2,338.2,396.5,333.2z M392.4,346.1c-1.8,0-3.6,0.1-5.4,0.3c-8.5,0.8-17.1,3.5-25.6,2
		c-0.4-0.1-0.8-0.1-1.2,0c-2.5-14.6-2.9-29.5-5.9-44c-2.1-10.7-1.7-23.1-5.6-33.5c0.1,0,0.1,0,0.2,0c2.6,0,6.9-1.7,9.2,0.1
		c2.1,1.6,2.5,5.9,3,8.3c0.6,3.2,0.9,6.4,1.2,9.6c1.6,15.4,3.1,31.5,6.8,46.6c0.4,1.5,1.7,2.3,3.2,2.4c6.3,0.4,12.3-1.7,18.6-1.9
		c0.3,2.2,1.1,4.3,1.8,6.6C393.1,344.1,393.9,346.1,392.4,346.1z"/>
</g>
<g>
	<path fill="#3498DB" d="M440.6,267.8c-1.8-1.5-4.8-2.1-6.6,0c-4,4.8-4.5,10.1-4.7,16.2c-0.2,7.8-1.1,15.6-1.4,23.4
		c-0.3,6.9-0.2,13.9-1.6,20.7c-1.3,1.6-2.9,3-4.9,4c-0.1,0-0.1,0.1-0.2,0.1c-3.8-2.3-6.1-6.8-7.5-11.7c-1.5-8.4-1.8-17.7-2-19.8
		c-1-10.6,1.9-23.8-4.1-33.2c-1.9-3-5.8-2.8-7.7,0c-3.5,5.1-1.9,12.1-0.7,17.7c1.7,8.3,2.5,16.8,3.9,25.2c0.3,1.6,0.6,3.2,1,4.9
		c0.2,1.4,0.3,2.7,0.5,4.1c0.7,5.9,1.5,11.8,4.9,16.8c0,0.8,0.1,1.6,0.4,2.5c2.4,5.6,7.5,8.9,13.6,6.9c5.8-1.9,9.5-7.5,11.3-13
		c5.2-7.8,6.9-18.7,8.5-27.4c1.2-6.9,2.3-13.9,2.4-20.9C445.8,278.7,445.2,271.5,440.6,267.8z"/>
	<path fill="#192530" d="M445,263.5c-0.2-0.1-0.4-0.2-0.7-0.2c-4.2-1-10.3-2.5-13.8,1.1c-4.7,4.9-3.8,13.6-3.9,19.8
		c-0.1,7.3-1.1,14.6-1.7,21.9c-0.6,6.7-1.4,14-4.4,20.2c-3.5-3.8-3.9-9.9-4.2-14.9c-0.4-7.2-0.2-14.3-0.8-21.5
		c-0.4-4.9-0.9-9.9-1.1-14.8c-0.2-3.3-0.3-6.6-2-9.6c-2.8-4.8-9.9-3.9-14.5-3.8c-1.5,0-2.4,0.9-2.7,2c-1.2,0.4-2,1.5-1.5,3.1
		c2.9,8.6,1.2,17.9,1.9,26.8c0.8,10.5,1.9,21.1,3.2,31.6c1.6,12.3,8.9,26.6,22.9,27c12.9,0.3,17.8-15.3,20.4-25.2
		c2.4-9,3.8-18.1,4.8-27.3c0.6-5.2,1-10.4,1-15.6c0-5.4-0.5-10.7,0.8-16C449.6,265.2,447.2,263.4,445,263.5z M440.8,289
		c-0.3,9.2-1.5,18.4-3.2,27.4c-1.7,8.8-4,26.3-14.5,28.9c-6.2,1.5-11.3-4.5-13.9-9.2c-3.6-6.5-3.9-13.8-4.6-20.9
		c-0.9-9.1-2.6-18.3-2.8-27.5c-0.2-6.8,0.2-13.6-1.9-20.1c2.2,0,4.6,0,6.4,1c2.4,1.2,1.6,8.2,1.7,10.2c0.6,8.3,1.6,16.5,1.7,24.9
		c0,10.2-0.4,25.7,10.9,30.4c1.3,0.5,3-0.3,3.6-1.5c5.7-10.8,6.7-22.2,7.8-34.1c0.6-6.5,1.1-12.9,1.4-19.4c0.1-2.1-0.3-8.8,2.1-9.9
		c1.7-0.7,3.9-0.1,5.8,0.5C440.3,276,441.1,282.5,440.8,289z"/>
</g>
<g>
	<path fill="#3498DB" d="M505.1,282.5c-2.6-3.1-6.2-4.6-9.9-5.8c-5-1.7-10-3.4-15.2-4.6c-4.1-0.9-8.2-1.4-12.2-2.4
		c-2.7-0.7-5.6-1.4-8.4-1.3c-7.9,0.3-7.2,8.4-3.5,13.1c3.7,4.6,11.8,5,16.4,1.6c0.2,1.1,0.8,2.2,1.9,2.9c0.1,0.4,0.2,0.8,0.2,0.9
		c0.2,2.2,0.2,4.5,0.2,6.7c0,0.4,0,0.9,0,1.3c-0.8,4.2-0.9,8.6-0.9,12.9c-0.1,1.2-0.2,2.4-0.4,3.7c-1,9.8-2.5,19.5-3.8,29.3
		c-0.6,4.8,3.5,15.3,10.1,10.3c5.7-4.3,5.5-10.4,5.1-17c-0.1-2.2-0.3-4.3-0.4-6.5c0.3-0.3,0.5-0.7,0.7-1.1c2.7-6.6,2-14.4,2.9-21.4
		c0.2-2,0.4-4,0.5-6c0.1-0.1,0.2-0.3,0.3-0.4c1.5-2.6,2.4-5.1,2.5-7.7c4.1,0.4,8.2,0.4,11.9-0.2C506.9,290.1,507.1,285,505.1,282.5z
		"/>
	<path fill="#192530" d="M509.2,280.2c-1.7-4.7-6.6-6.4-11-7.6c-7.1-2.1-14.3-3.8-21.6-5.1c-7.3-1.3-14.7-1.8-21.8-4.2
		c-1.6-0.5-2.7,0.4-3,1.6c-0.4,0.6-0.6,1.3-0.4,2.2c1.6,7.4-2.7,18.8,8.2,19.8c1.8,0.2,3.7,0,5.6,0.1c3.7,0.1,5.2,0.1,5.4,4.2
		c0.2,5.3-1.4,10.6-2,15.8c-1.4,12.7-3.7,25.3-4.7,38c-0.8,10.9,10.3,9.7,17.7,10.4c1.1,0.1,1.9-0.3,2.4-1c1.3-0.1,2.4-0.9,2.6-2.6
		c1-7.4,2.1-14.7,3-22.1c1-8.1,2.6-16.3,2.4-24.4c-0.1-3.6-0.4-7.3,0.5-10.8c0.5,0.1,0.9,0.2,1.4,0.3c1.2,0.3,2.4,0.6,3.7,0.8
		c3.8,0.7,8.5,0.6,11-2.9C511,289.1,510.6,284,509.2,280.2z M494.7,288c-10.8-2.3-9.3,12.2-9.3,18.9c0.1,7.2-1.7,14.6-2.7,21.7
		c-1,6.8-2,13.7-3,20.5c-3.6,0.1-9.2,0.5-9.5-3c-0.5-4.6,1.3-10.2,1.9-14.9c1.4-11.2,2.2-22.4,3.9-33.6c0.9-6.3,1.6-15.8-6.8-16.6
		c-3.4-0.3-7,0.2-10.4-0.4c-1.7-0.3-1.7-6.7-1.7-11.2c4.8,1.5,9.7,2.4,14.6,3.4c6.2,1.2,12.3,2.9,18.4,4.6
		c4.5,1.2,12.6,2.1,13.3,7.7C504.1,291,498.6,288.8,494.7,288z"/>
</g>
<g>
	<path fill="#3498DB" d="M560,325.1c0.1-8.9-2-19.1-7.6-26.4c-1.3-7.6-8.2-10.4-15.4-10.1c-3.5-0.6-7,0.5-10.1,2.2
		c-4.2,1.6-7.7,4.1-8.9,8c-8.4,6.6-11.7,17.9-10.4,28.7c0,2.5,0.2,4.9,1,7.3c-2.5,3.2-1.1,8.2,0.7,11.5c1.2,2.2,2.8,4,4.7,5.4
		c0.1,0.2,0.1,0.4,0.2,0.6c3.1,6.3,10.7,8.3,18,7.2c9.2,1.2,17.8-2.5,23.5-10.4C560.1,342.9,562.5,332.9,560,325.1z M516.7,328.4
		c0.7-0.8,1.2-1.8,1.2-3c0.2-6,2.1-10.9,5.2-15.4c1-1,2.1-2,3.2-2.8c0.5,0.2,1.1,0.4,1.7,0.4c5.7,0.1,11.7-1.9,15.2,2.4
		c1.4,3.3,2.4,6.8,4.3,9.9c0.4,0.7,0.9,1.2,1.5,1.6c-3.2,4.6-3.7,10.3-6.7,15c-2.7,4.3-8.6,6.1-13.7,7.9c-1.5-1.4-2.9-3.1-4.2-5
		c-1.5-2.1-3.8-4.5-6.5-5.9C517.4,331.9,517,330.2,516.7,328.4z"/>
	<g>
		<path fill="#192530" d="M559.4,296.5c-4.6-9-16.3-15.9-26.5-14c-8,1.5-16.1,8.5-20.4,15.4c-0.5,0.1-1.1,0.4-1.6,0.8
			c-7.4,6.2-9.6,17.3-10.1,26.4c-0.5,9.5,1.3,20.1,7,27.9c11.9,16.4,39.2,16,50.7-0.5c5.5-8,6.8-18.7,6.9-28.2
			C565.5,315,563.8,305,559.4,296.5z M554.2,345.1c-7,15.8-30.8,16.7-40.6,3.1c-7.5-10.4-7.4-27.8-1.2-39.6c1.5,0.3,3.3-0.5,3.2-2.5
			c0-1,0.1-2,0.4-2.9c0.3-0.5,0.6-1,0.6-1.5c2.5-4.9,9-8.9,13.1-11c8.5-4.6,18.4,0.9,23,8.6c3.7,6.1,4.7,14.3,5.1,21.3
			C558.4,328.8,557.6,337.6,554.2,345.1z"/>
		<path fill="#192530" d="M531.1,304c-22.7,3.1-17.3,46.9,2.4,41.6C556.3,343.3,556.6,300.6,531.1,304z M529.8,338.6
			c-0.7,0-1.3,0.1-1.8,0.4c-7.6-4.5-7-25.4,4.1-28.2c8.3-2.1,11.7,6.7,11.6,13.3C543.6,332.5,538.4,338.9,529.8,338.6z"/>
	</g>
</g>
<path fill="#2B8BC1" d="M315.4,118.9c-0.6-3.8-1.9-7.6-4.3-10.5c-1-1.9-2.1-3.7-3.4-5.1c-3.1-3.5-8-2.5-11.2,0
	c-0.8,0.6-1.6,1.3-2.4,2.1c-0.4,0.2-0.8,0.5-1.2,0.8c-4.4,3.1-7,8.1-8.2,13.7c-3.6,9.6-3.5,20.3,4.7,27c7.3,6,16.3,2.6,21.4-4.5
	c1.8-2.5,3-5,3.7-7.8C317,130.1,317.6,124.6,315.4,118.9z"/>
<path fill="#2B8BC1" d="M341.9,152.8c-0.2-0.7-0.5-1.3-0.8-1.9c-0.4-5.4-4.7-10.4-10.1-11.5c-3.5-0.7-7,0.9-8,4.5
	c-1.8,1.3-3.1,3-3.7,5.2c-1.2,4.2,1.1,8,4.3,10.4c3.1,2.4,7.1,2.9,10.5,1.8C338.7,161.9,343.7,157.7,341.9,152.8z"/>
<path fill="#2B8BC1" d="M560,87.3c-3.5-7.8-9.4-15.1-14.9-20.6c-4-4-8.4-7.7-13.2-11.1c-0.7-1.3-1.7-2.4-3.2-3.4
	c-4.7-2.9-10-5.4-15.7-7.1c-5.9-3.1-12.1-5.3-18.6-6.1c-2.9-0.4-5.6-0.2-8.2,0.4c-6.5,0.1-12.4,2.4-16.7,8.4c-2,2.7-2.8,5.9-2.9,9.3
	c-4.5,6.9-5.8,16.1-4.4,24.5c3.3,19.9,23.4,33.4,40.6,40.4c2.8,1.1,5.7,2.1,8.8,3c1.8,0.5,3.7,1.1,5.5,1.5c8.2,2,16.7,2.3,24.2-0.8
	c0.7-0.2,1.4-0.4,2.1-0.7c3.4-0.3,6.7-1.3,9.7-3.1c4.5-2.8,7.2-7,8.4-11.7C565.3,103.1,563.7,94.8,560,87.3z"/>
<path fill="#53B1E5" d="M275.5,148c-0.1-0.1-0.2-0.2-0.3-0.3c-0.4-0.8-1-1.6-1.6-2.3c-0.8-0.9-2-0.5-2.6,0.3
	c-4.6,6.4-3.6,16.5,2.2,22c0.7,0.7,1.8,0.5,2.3-0.3C279.3,161.9,279.3,153.4,275.5,148z"/>
<path fill="#53B1E5" d="M329.9,121.3c-0.1-0.6-0.2-1.3-0.3-1.9c-0.3-1.9-2.8-1.5-3.4-0.1c-0.2,0-0.3,0.1-0.5,0.2
	c-0.7,0.3-1.1,1.3-0.9,2c0,0.1-0.1,0.6-0.2,0.8c-0.1,0.3-0.1,0.6-0.2,1c-0.1,0.3-0.2,0.6-0.3,0.9c-0.4,0.6-0.3,1.3,0.1,1.9
	c0,0.5-0.1,1.1,0.1,1.7c0.2,1.3,2.1,1.2,2.5,0c0-0.2,0.1-0.3,0.2-0.5c0.1,0,0.2-0.1,0.4-0.2c1,0.7,2.5,0.6,2.8-0.9
	c0.1-0.6,0.1-1,0-1.6c0,0,0,0,0,0C331.4,123.9,331.2,121.7,329.9,121.3z"/>
<path fill="#53B1E5" d="M481.1,26.3c-0.6-0.8-1.2-1.5-1.9-2.1c-0.1-0.4-0.2-0.8-0.6-1c-0.6-0.5-1.3-1-2-1.4c-1.2-0.8-2.4-1.5-3.8-2
	c-1.9-0.8-3.8-1.2-5.6-0.9c-1.5,0.1-2.9,0.5-4.3,1.2c-0.4,0.1-0.8,0.2-1.3,0.4c-0.8,0.3-1.4,1-1.5,1.8c0,0,0,0,0,0
	c-0.7,0.7-0.8,2,0,2.7c0.3,0.3,0.6,0.5,0.9,0.8c1.6,2.4,3.6,3.9,5.9,4.6c4.5,2,10,1.7,13.7-1.4C481.4,28.4,481.6,27.1,481.1,26.3z"
	/>
<path fill="#53B1E5" d="M574.9,135.4c-0.6-1.5-1.7-2.6-3.1-3.2c-0.1-0.1-0.3-0.2-0.5-0.3c-0.2-0.2-0.5-0.3-0.7-0.3
	c-0.4-0.3-0.8-0.5-1.3-0.7c-1.6-0.8-3.5,0.2-3.5,2c0,0.1,0,0.1,0,0.2c-0.6,0.6-1,1.4-0.7,2.3c0,0.2,0.1,0.4,0.1,0.5
	c-0.9,4.7,1.8,9.4,6.2,11.5c1,0.5,2.1,0.3,2.7-0.7c1.1-1.8,1.8-4,1.8-6.1C576.1,138.6,575.8,136.9,574.9,135.4z"/>
<g>
	<path fill="#D6CCB6" d="M265.9,326.8c-0.3-2.2-1.3-4.2-3-5c-0.5-0.3-1-0.5-1.6-0.7c0.3-9-1.5-17.9-3.9-26.4
		c-1.3-4.6-2.7-10-4.8-14.9c-0.3-3.8-0.3-7.7,0.1-11.5c1.1-3.5,2.1-7,3-10.5c2.1-3.1,4-6.3,6.4-9.1c0.9-1,1.9-1.9,2.8-2.9
		c0.1,0,0.1,0,0.2-0.1c1.5-1.2,5.2-4.7,2.5-6.7c-0.1-0.1-0.2-0.1-0.3-0.1c-0.1,0-0.2,0-0.3,0c-1,0.4-1.8,1-2.6,1.7
		c-3.6,1.3-7,3.8-10.3,5.7c-4.7,2.8-9.5,4.5-14.4,6.5c-3.3,1.4-8.2,2.2-11.7,4.5c-7.8,1.8-15.6,3.4-23.4,5.7
		c-17.9,5.3-36,10.3-53.7,16.7c-17,6.2-34.1,13.5-50,23c-11,6.6-21.9,13.8-33.4,19.3c0.9,4.6,3.1,9.2,4.9,13.1
		c2.3,5.1,4.9,9.8,6.7,15.2c2.9,9,4.9,18.4,7.6,27.5c0.4,1.8,0.8,3.5,1.1,5.3c1.5,7.8,5.7,12.3,12.8,11c4-0.8,8-3.8,11.6-5.7
		c5.5-3,11.1-5.9,16.8-8.5c0.6-0.3,1.2-0.5,1.7-0.8c0,0,0,0.1-0.1,0.1c8.9-3.9,18.2-6.9,27.4-9.7c11.1-5,22.3-9.5,33.7-12.9
		c20.7-9,43.3-13.7,65.2-12.8c2.4-0.8,4.7-1.7,7.1-2.5c0,0,0,0,0,0c0.5-0.1,0.9-0.3,1.4-0.4C271.8,338.9,270.8,329,265.9,326.8z
		 M211,324.1c-0.1-0.8-0.3-1.5-0.6-2.2c0.2-0.2,0.3-0.4,0.5-0.7c0,0.1,0,0.2,0,0.3c0.1,0.7,0.3,1.3,0.5,1.8
		C211.3,323.6,211.1,323.9,211,324.1z"/>
	<path fill="#D6CCB6" d="M230.8,149.7c-0.4-7.9-2.9-15.7-5-23.1c-2-7-3.3-18.8-9.9-22.1c-1.4-0.7-2.8-0.8-4.2-0.5
		c-0.3-0.1-0.6-0.1-0.9-0.1c-4,0-7.8,0.7-11.5,1.8c-3.8,0.5-7.5,1.4-11.2,2c-6,1-12,2.1-18,3.5c-12,2.7-23.7,6.9-35.4,11.1
		c-23,8.2-45.7,17.3-68.6,25.5c-8.1,2.9-16.1,6.1-24,9.7c-0.1,0-0.2,0.1-0.3,0.1c-7.3,3.2-14.5,6.8-21.2,11.3
		c-2.5,1.7-5,3.4-7.5,5.3c-3.8,4.7-7.9,9.1-11,14.4c5.4-0.9,10.4-3.2,15.9-3.1c1-0.2,2-0.4,3-0.4c-0.3,0.3-0.5,0.6-0.8,0.8
		c0.1-0.1,0.1-0.1,0.2-0.2c0.2-0.1,0.4,0.1,0.3,0.3c-0.4,0.6-1,1.1-1.4,1.7c-0.2,0.2-0.3,0.4-0.4,0.5c-0.1,0.3-0.3,0.5-0.5,0.8
		c-1.5,2.7-3.6,4.9-5.6,7.1c-2.3,2.6-4.2,5.5-5.9,8.6c0.9-0.4,1.7-0.7,2.6-1.1c5.2-2.6,10.5-5.9,16.2-4.7c0.7,0.1,0.6,1,0.2,1.5
		c0.1,0.3,0.1,0.8-0.3,1c0,0,0,0,0,0c-0.3,2-2.2,3.9-3.4,5.1c-0.4,0.4-0.8,0.7-1.2,1.1c-1.6,2-3.2,4-4.8,6c-1.3,1.6-2.5,3.2-3.8,4.7
		c-0.1,0.3-0.3,0.5-0.4,0.8c1.1-0.1,2.3-0.2,3.4-0.4c0.2-0.1,0.5-0.2,0.7-0.2c3.1-1,6.4-2,9.7-1.6c0.5,0.1,0.7,0.6,0.5,1.1
		c-0.1,0.2-0.1,0.3-0.2,0.5c0,0,0,0,0,0c0,0,0,0,0,0c-0.4,0.9-1,1.7-1.7,2.5c-2.3,4.1-5.2,7.6-8,11.2c7.7-2.9,15.1-6.4,22.5-10.2
		c3.5-1.8,6.9-3.2,10.5-4.5c5-2.7,10.3-5,15.5-7.2c19.7-8.3,40.1-14.5,60-22.1c20-7.7,39.9-15.2,60.4-21.1
		c9.9-2.9,19.8-4.6,29.8-6.6c5.1-1,10.4-1.6,15.4-3.1C233.8,156.2,233.3,151,230.8,149.7z"/>
	<path fill="#D6CCB6" d="M235.1,172.4c-0.6-0.1-1.3,0-1.9,0.2c-0.6-0.2-1.2-0.4-1.9-0.5c-2.7-0.4-5.3,0.2-8,0.7
		c-5,0.9-10,1.6-15,2.4c-20.6,3.6-40.5,10-60.5,16.4C128.2,198.1,110,209,90.8,217c-1.8,0.6-3.5,1.3-5.3,1.9c-8,3-16,6.1-23.7,9.8
		c-3.3,1.6-6.7,3.3-9.8,5.5c-1.8,1.3-3.7,2.8-5.7,4c-1.2,0.3-2.5,0.7-3.5,1.3c-1,1-1.9,1.9-2.9,2.9c-0.1,0.4-0.1,0.8,0,1.3
		c0,0.1,0,0.3-0.1,0.4c-0.5,1-0.4,2.2,0,3.1c0,0.5,0,1,0.1,1.6c1,4,2.9,7.6,5.1,10.9c1.5,4.4,3.2,8.7,4.8,12.8
		c4.2,10.4,8.5,20.6,11.1,31.7c0.4,1.6,1.4,2.4,2.5,2.4C93,285,127.3,274.5,161,264.1c11.7-4.8,23.4-9.5,35.3-13.3
		c14.9-4.8,30.3-8.2,45.6-11c0.3-0.1,0.6-0.3,0.9-0.4c0.1,0,0.1,0,0.1-0.1c0.1,0,0.1-0.1,0.2-0.1c0.8-1.2,1.8-2,3-2.5
		C245,214.7,241.7,193.1,235.1,172.4z"/>
</g>
<path fill="#E5DBC1" d="M273.6,336.5c-0.7-3.6-1.4-7-2.9-10.3c-0.5-1.1-1.8-1-2.6-0.3c-0.1-0.7-0.3-1.4-0.4-2.1
	c-0.1-0.4-0.1-0.8-0.2-1.2c0-0.5,0.1-0.9,0.2-1.4c0.1-0.6-0.3-1-0.7-1c-0.2-0.6-0.3-1.2-0.5-1.8c-0.6-2.1-3.5-1.2-3.2,0.9
	c0.6,4.2,1.2,8.5,2.2,12.6c0.5,4.4,1.1,8.7,2.5,12.9c0.6,1.6,3.4,1.3,3.1-0.5c0-0.1,0-0.5-0.1-0.5c0,0,0,0,0,0c0,0,0,0.1,0,0.1
	c-0.1-1.1-0.3-2.1-0.5-3.2c0.5-0.3,0.9-0.7,0.9-1.4c0-0.3,0-0.5,0-0.8C272.6,338.7,273.9,337.8,273.6,336.5z"/>
<path fill="#E5DBC1" d="M277.7,263.3c-4.9,0.9-9.7,2.4-14.5,3.8c-2.5-0.1-5.2,0.8-7.6,2.1c-1.8,0.5-3.6,1.2-5.2,2.3
	c-0.7,0.5-1.1,1.1-1.4,1.8c-0.5,0.1-0.9,0.6-0.7,1.2c0.2,0.5,0.4,1,0.5,1.5c0.6,3.5,3.5,7.8,5,10.4c0.2,0.4,0.5,0.9,0.7,1.3
	c0.7,1.3,2.5,0.2,1.9-1.1c-0.1-0.3-0.3-0.6-0.4-0.9c0.5-0.1,0.8-0.6,0.7-1.1c-0.7-3-2.4-5.6-4.3-8.1c-0.2-0.4-0.3-0.8-0.5-1.1
	c-0.6-1.3,0.5-1.7,1.6-2.4c0.7-0.5,1.4-0.8,2.1-1.2c0.1,0,0.3-0.1,0.4-0.1c7.4-2.1,15.1-3.3,22.4-5.6
	C280.3,265.5,279.5,263,277.7,263.3z"/>
<path fill="#2B8BC1" d="M670.3,146.4c-4.2-1.5-8.5-2.5-12.7-3.5c-0.6-0.2-1.1-0.4-1.7-0.6c-3.6-1.2-7-3-10.7-3.6
	c-2.7-0.5-4.8,3.4-2,4.7c1,0.5,2,0.9,3,1.3c2.2,1.2,4.6,1.9,7.1,2.5c0,0,0.1,0,0.1,0c-1.3,3.5-1.8,7.1-2.4,10.8
	c-0.4,2.6-1,5.1-2.1,7.4c-0.9,1.8-2.2,3.2-4.2,3.3c-0.3,0-0.6,0-0.9,0c-0.7-1.1-0.1-3.6-0.2-4.7c0-2.8-3.6-3.6-5-1.4
	c-1.9,2.9-1.8,5.8-0.5,7.9c0.1,0.6,0.3,1.2,0.5,1.7c0.8,1.9,2.5,2.6,4.4,2.7c1.7,0.6,3.7,0.4,6.3-1.2c3.2-2,4.9-5.6,6.2-8.9
	c2-5.1,3.4-10.4,5.1-15.5c0.3,0.1,0.7,0.2,1,0.3c1.3,0.4,2.6,0.8,3.9,1.2c0.8,0.3,1.6,0.5,2.4,0.7c0.5,0.1,1,0.1,1.3-0.1
	C672.2,151.5,673.1,147.4,670.3,146.4z"/>
<path fill="#2B8BC1" d="M693.7,156.4c1.6-2.6-1.2-5-3.5-4.3c-1.2,0-2.3,0.7-2.7,2.2c-1,4.1-2.8,7.8-4.3,11.7
	c-1.3,3.3-2.5,6.8-4.8,9.6c-1.9,2.3-4.3,0.6-5.2-1.6c-0.8-2.1,0.3-5,0.9-7.1c1.4-5.2,3.8-10.1,5.5-15.2c0.5-1.6-0.6-2.8-2-3.2
	c-0.4-0.4-1-0.6-1.6-0.5c-0.9-0.1-1.9,0.4-2,1.6c-0.1,1-0.3,2-0.6,3c-0.5,1.2-1,2.5-1.4,3.7c-1.3,3-2.8,6-3.8,9.1
	c-1.5,4.6-3,11.3,0.6,15.3c4.3,4.7,11.1,3.7,15.3-0.6c4-4.1,4.9-9.4,6.1-14.6c1.1-2.8,2.1-5.6,2.9-8.4
	C693.4,157,693.6,156.7,693.7,156.4z"/>
<path fill="#2B8BC1" d="M706.1,187.7c-3.3-1.7-6.9-2.2-10.4-3.4c-0.2-1.1,0.9-2.5,1.7-4.1c3.3-6.4,3.7-13.8,7.4-20.1
	c1.4-2.4-1-4.6-3.1-4.3c-1.2-1.1-3.2-1.3-4,0.6c-1.4,3.1-2.1,6.3-3.3,9.5c-0.2,0.6-0.2,1.2,0.1,1.7c-2,5.9-4.4,11.6-5.9,17.6
	c-0.3,1.3,0.2,3,1.4,3.6c0.7,0.3,1.3,0.5,2,0.8c3,2.5,8.4,3.2,11.8,3.7C706.8,193.7,709.4,189.4,706.1,187.7z"/>
<path fill="#2B8BC1" d="M730.9,167.6c-3,2.8-7,4.1-10.5,6.3c0-0.1-0.1-0.2-0.1-0.3c0.2-0.5,0.3-1.1,0.1-1.7c-0.9-3.3-2.2-6.5-3-9.9
	c-0.8-3.4-5.8-1.9-5.2,1.4c0.8,4.2,1.3,10.3,4,14.2c-1,2.5-1.1,5.3-2.3,7.7c-1.3,2.8-2.8,5.8-2.1,9c0.4,1.9,2.5,2.3,4,1.6
	c3.1-1.3,3.9-4.9,4.3-7.9c0.2-1.6,0.2-3.2,0.3-4.8c0.2-1,0.4-2,0.7-3c0.3-0.1,0.6-0.3,0.8-0.5c3.9-3.4,9.2-4.4,13-7.9
	C737.9,169.2,733.7,165,730.9,167.6z"/>
<path fill="#2B8BC1" d="M754.8,198.2c0.1-0.3,0.1-0.5,0.2-0.8c0.7-1.8,1.5-3.6,2.1-5.5c1.6-5,2.7-10.2,4-15.3
	c0.5-2.1-1.3-3.7-3.3-3.3c-0.1,0-0.2,0.1-0.3,0.1c-0.9-0.5-2.1-0.5-3,0.4c-0.7,0.9-1.6,1.7-2.7,2.3c-0.2,0-0.5,0.1-0.7,0.2
	c-0.1,0-0.2,0-0.2,0c-3.4,0.2-3.4,5.5,0,5.3c1.1-0.1,2-0.3,2.8-0.7c-0.7,3.2-2.1,6.7-2.7,9.2c-0.6,2.2-1.2,4.4-1.8,6.6
	c-0.2,0.9-0.5,1.8-0.8,2.8c-1,3.2-3.2,1.8-5,1.2c-3.2-1.1-5.4,4-2.3,5.5c4.4,2,9.1,4.1,13.9,4.9c3.7,0.6,5.3-5,1.5-5.6
	c-1.4-0.2-2.7-0.6-4.1-1c0.1-0.3,0.2-0.5,0.2-0.8C753.5,202.1,754.2,200.4,754.8,198.2z"/>
<path fill="#2B8BC1" d="M781.5,180.7c-4.4-3-8.7-1.9-11.7,1c-7.7,4.4-9.1,17.3-7.8,25.1c1.8,10.6,14.9,6.2,19.2,0.4
	C786.4,200.2,790,186.6,781.5,180.7z M775.9,204.4c-1.5,1.7-4.2,3.3-6.5,2.9c-2.5-0.4-1.9-5.6-1.9-7.4c0.2-5.8,2.5-10.3,6.4-14.4
	c0.3-0.3,0.5-0.7,0.7-1.1c2.3-0.7,4.6,0.4,5.8,4.4C782.1,193.9,779.2,200.6,775.9,204.4z"/>
<path fill="#2B8BC1" d="M796.2,193c1.7,0.8,3.3-1.2,2-2.6c-0.8-0.9-1.8-1.4-3-1.8c0.2-0.7,0.3-1.5,0.3-2.2c0.1-1.8-2.8-2.2-3.2-0.4
	c-0.1,0.6-0.2,1.1-0.4,1.7c-0.6-0.2-1.1-0.3-1.7-0.5c-1.5-0.6-2.6,1.9-1.1,2.6c0.6,0.3,1.2,0.6,1.8,0.8c-0.3,0.9-0.5,1.9-0.6,2.9
	c-0.3,3.3,2.3,5.2,5.4,4.9c2.3-0.2,2.4-3.7,0-3.7c-0.7,0-1.5,0.2-1.7-0.4c-0.2-0.6,0.1-1.5,0.2-2.1
	C794.9,192.3,795.5,192.7,796.2,193z"/>
<path fill="#2B8BC1" d="M805.7,193.6c-0.6-0.6-1.3-1-2.1-1.1c0.4-1.4,0.8-2.9,0.9-4.3c0.1-1.6-2.6-2-2.8-0.4
	c-0.5,3.5-2.3,6.6-2.5,10.2c-0.1,2.2,3.4,2.2,3.4,0c0-0.7,0.1-1.3,0.2-2c0.2-0.1,0.4-0.2,0.5-0.3c0.2,0.1,0.3,0.3,0.5,0.5
	c0.7,1,1.1,2.1,0.8,3.2c-0.7,2,2.5,2.9,3.2,0.9C808.6,197.9,807.4,195.3,805.7,193.6z"/>
<path fill="#2B8BC1" d="M647.8,266.6c-2.5-1.4-5.6-2.1-8-1.3c-1,0-2,0.2-3,0.8c-1.5,0.8-2.7,2.3-3.5,3.9c-0.1,0.1-0.3,0.2-0.4,0.3
	c-2.3,2,0.8,6.1,3.3,4.3c0.4-0.3,0.9-0.6,1.3-0.8c0.6,0.1,1.3,0,1.7-0.5c2.9-0.4,5.8,1.2,8,3.5c4.6,4.8-1.7,9.3-5.4,11.7
	c-5.8,3.7-12.7,5.9-17.4,11.2c-2.8,3.1-3.1,5.4-2,7.2c-0.3,1.6,0.8,2.9,2.3,3.5c2.7,1.1,5.5,1.7,8.3,2.2c3.4,0.7,6.5,2.2,9.9,3
	c0.7,0.2,1.3,0.1,1.9-0.1c1.8,0.5,3.4-1.2,3.6-3c0.6-1.2,0.2-2.9-1.4-3.5c-0.9-0.4-1.8-0.7-2.6-1c-0.8-0.3-1.6-0.6-2.4-0.9
	c-3.5-1.3-7.1-2.4-10.5-3.9c1.9-2.2,4.5-3.9,7.2-5.4c0.9-0.5,1.8-0.9,2.6-1.4c7-3.7,14.3-7.2,15.1-15.7
	C656.9,274.2,653.2,269.7,647.8,266.6z"/>
<path fill="#2B8BC1" d="M687,291.3c-0.7-7.4-4.9-15.8-13.2-16c-1.5,0-2.9,0.3-4.1,0.8c-7.4,0.3-13.2,8.2-15.8,14.8
	c-3.9,9.7-4.5,20.5,4.6,27.6c3,2.3,6.3,3.3,9.5,3.1c2.6,0.1,5.4-0.5,8-2.1C684.7,314.1,687.9,300.9,687,291.3z M663,311.8
	c-1.9-2.7-2-6.4-1.8-9.6c0.2-6.1,4.2-13.2,9.1-16.7c6.7-4.8,8.5,8.2,8.5,12.2c-0.1,6.7-3.1,15.7-10.4,16.8
	C666.4,314.5,664.4,313.7,663,311.8z"/>
<path fill="#2B8BC1" d="M707.3,286.4c-0.3-1.3-1.8-2.3-3.3-2c-4.2-1.6-10.8,1.3-11.4,6.5c-0.1,0.5,0.2,1,0.6,1.3
	c0.3,0.7,0.9,1.3,1.8,1.6c1.7,0.4,3.3,0.4,4.9,0.2c-1.1,3.1-2.3,6.2-3.4,9.4c-0.5,1.2-1,2.4-1.5,3.6c-0.5,1.3-0.9,2.6-1.2,4
	c-1.5,3.6-3.2,7.1-4,10.8c-2.2-0.9-4.4-1.9-6.9-2.2c-3.5-0.4-5.3,2.8-4.3,5.8c0.2,0.7,0.7,1,1.3,1.2c0,0,0.1,0.1,0.1,0.1
	c2.4,1.2,4.8,2.3,7.3,3.1c3.8,1.7,7.6,3.2,11.7,4c0.1,0,0.2,0,0.3,0c0.7,0.4,1.6,0.5,2.5,0c3-1.5,3.2-5,0.7-7.1
	c-1.2-1-2.6-1.6-4-2.2c2.3-5,3.2-11.2,4.7-16.1c1.7-5.7,4.2-11.7,4.4-17.7c0-0.7,0-1.3-0.1-1.9c0-0.3,0.1-0.6,0.1-0.9
	C707.6,287.3,707.5,286.8,707.3,286.4z"/>
<path fill="#2B8BC1" d="M739.4,298.8c0.4-1,0.1-2.2-1.2-2.8c-3.6-1.8-7.4-3-11.3-4c-0.8-0.3-1.8-0.6-2.8-0.7
	c-0.6-0.1-1.1-0.3-1.7-0.4c-1.5-0.4-2.6,0.4-3.1,1.5c-0.4,0.3-0.6,0.7-0.8,1.2c-0.1,0.4-0.2,0.8-0.2,1.1
	c-4.3,5.8-10.8,21.4-1.1,22.3c2.5,0.2,4.8-0.7,7.5-0.1c4.1,0.9,4.8,4.9,4.2,8.4c-1.2,3.3-4.8,5.8-8.1,6c-1.1,0.1-4.2-0.7-6.2-2
	c-0.9-1.4-1.4-3.1-1.8-4.5c-0.9-3-5.7-3.3-6.4,0c-0.8,3.8,0.8,6.8,3.5,9c2.4,3,5.7,5,10.3,5.2c8,0.4,14.2-6.1,15.4-13.6
	c0.2-1.5,0.2-2.8,0.1-4.2c-0.2-3.5-1.4-6.9-3.8-9.5c-3.4-3.6-7.7-4.3-12.1-3.6c0.1-0.2,0.2-0.3,0.3-0.5c0.4-1,0.8-2,1.1-3.1
	c0.4-0.3,0.7-0.7,0.8-1.2c0.4-1.6,0.9-3.3,1.3-4.9c0.1,0,0.2,0.1,0.4,0.1c5.2,0.7,8.8,6.1,14.4,5
	C740.3,303.2,740.7,300.1,739.4,298.8z"/>
<g>
	<path fill="#2B8BC1" d="M46.7,201.5c-0.4-4-2.6-8.6-3.9-12.3c-0.5-1.4-0.9-2.7-1.3-4.1c-0.2-0.6-0.3-1.3-0.4-1.9
		c2.4-0.8,4.3-2.1,2.9-5.1c-0.1-0.3-0.2-0.5-0.4-0.8c-0.1-0.2-0.2-0.3-0.4-0.5c-0.1-0.1-0.1-0.1-0.2-0.2c0,0-0.1-0.1-0.1-0.1
		c-0.1,0-0.1,0-0.2,0c-0.2-0.1-0.5-0.1-0.7,0c-2.7,1.1-5.9,1.4-8.5,3c-0.1,0-0.1,0-0.2,0c-0.4,0.2-0.8,0.4-1.2,0.6c0,0,0,0,0,0
		c-0.1,0-0.3,0.1-0.4,0.2c-0.5,0.2-1,0.5-1.5,0.7c-0.4,0.2-0.7,0.7-0.6,1.2c1.9,5,3.3,3.5,7.7,2c0,0,0.1,0,0.1,0
		c0.8,3.6,2,7.1,2.8,10.7c0.4,1.6,0.8,3.2,1.4,4.7c0.1,1.6,0.4,2.9,1.1,4.4c0.3,0.6,0.9,0.8,1.4,0.6
		C45.7,204.2,46.9,203.6,46.7,201.5z"/>
	<path fill="#2B8BC1" d="M62.8,194.8c-1.3-5.1-2.9-10-4.5-14.9c0-0.2,0-0.4,0-0.6c-0.9-2.9-1.9-5.8-2.9-8.6
		c-0.2-0.6-0.8-1.1-1.4-0.8c-0.4,0.2-0.7,0.8-1,0.8h0c-0.6,0-1.2,0.6-1.2,1.4c0.1,2.3,0.9,4.5,1.8,6.7c-1,0.3-2,0.5-2.9,0.9
		c-0.3,0.1-0.7,0.2-1.1,0.4c-0.2-1-0.4-2.1-0.6-3.1c-0.3-2.2-2.9-7-4.5-3.1c-0.1,0.1-0.1,0.3-0.1,0.4c-0.2,0.3-0.2,0.7-0.2,1
		c0.9,5.1,2.6,10.1,4.1,15c0.8,2.4,1.2,8.5,3.9,9.1c0.7,0.2,1.6-0.3,1.8-1.2c0.5-2.9-1.2-6.3-2-9c-0.3-0.9-0.5-1.8-0.8-2.7
		c1.4-0.3,2.9-1.4,4.4-2.4c1,4.7,2.1,10.8,5.2,12.6C61.9,197.2,63.1,196.1,62.8,194.8z"/>
	<path fill="#2B8BC1" d="M70.5,186c-0.2-0.1-0.4-0.1-0.6,0c-1.2,0.2-2.1,1-3.4,1.1c-0.3-1.2-0.7-2.4-1.1-3.6c-0.3-1.2-0.6-2.3-1-3.5
		c0.9,0,1.6-0.5,2.4-1c1.5-0.3,3.1-0.5,4-2c1.2-2-0.2-4.3-2-4.8c-1.6-0.4-3.5,0.6-5.1,1.7c-0.1,0-0.2,0.1-0.4,0.1
		c-0.2,0.1-0.3,0.2-0.5,0.2c-0.2-0.8-0.3-1.6-0.5-2.4c2.2,0,5.1-2.1,6.5-2.9c0.6-0.4,0.9-1.3,0.7-2c0-0.2-0.1-0.3-0.1-0.4
		c1-1.1,0.2-3.4-1.3-2.8c-1.1,0.4-4.8,1.3-6.8,2.9c-0.4,0.1-0.8,0.2-1.2,0.2c-1,0-1.8,1.2-1.5,2.4c1,3.8,1.6,7.4,2.9,11.1
		c0.8,2.2,1.6,4.4,2.2,6.6c0.4,1.8,0.8,3.5,1.4,5.3c0.5,1.5,2.2,1.2,2.5,0c0.5-0.1,1-0.2,1.5-0.3c2-0.4,5-0.8,4.9-3.9
		C74.1,185.5,72,185.3,70.5,186z"/>
	<path fill="#2B8BC1" d="M93.7,177c-0.3-1-0.7-2-1.1-2.9c0-0.1,0-0.3-0.1-0.5c-0.7-2-1.7-3.5-3.5-4.3c-2.4-1.1-6.2-1-7.8-3.5
		c-0.4-1.6,0.7-3.6,1.9-4.5c0.9-0.1,1.9,0,2.8,0.2c0,0,0,0-0.1,0.1c-0.6,0.5,0,1.6,0.6,1.1c0.2-0.2,0.4-0.3,0.6-0.5
		c0.3-0.3,0.6-0.6,0.9-0.8c0.3-0.4,1.1-0.8,1.2-1.4c0.1-0.3-0.1-0.7-0.4-0.8c-1-3.2-3.5-3.8-5.7-2.7c-2,0.1-3.7,1.4-4.5,3.6
		c-0.2,0.3-0.3,0.7-0.3,1.1c0,0.1-0.1,0.2-0.1,0.3c-0.4,1.7-0.3,3.2,0,4.6c0.2,1.3,0.6,2.5,1.5,3.7c2,2.7,6.1,3.6,8.9,4.1
		c0.4,0.3,0.8,0.6,1.1,1c0.3,0.6,0.5,1.2,0.7,1.8c0,0,0,0.1,0,0.1c-0.1,0.5-0.3,1-0.5,1.4c-0.4,0.2-0.8,0.5-1.3,0.7
		c-0.8,0.2-1.7,0.2-2.5,0.2c-0.6-0.3-1.2-0.7-1.6-1c-0.6-0.4-1.5,0-1.8,0.7c-0.7,0.3-1,1.3-0.7,2.1c-0.1,0.3-0.3,0.5-0.4,0.8
		c-0.2,0.5-0.1,1.2,0.4,1.5c1.6,0.8,4.9,1.6,7.2,0.8c0.3,0,0.6-0.1,0.9-0.3c0.7-0.2,1.3-0.6,1.8-1.2c1-0.9,1.6-2.2,1.6-3.9
		C93.7,178.3,93.9,177.7,93.7,177z"/>
	<path fill="#2B8BC1" d="M108.2,163.9C108.2,163.9,108.2,163.9,108.2,163.9c-0.3-3.5-1.8-7.1-3.1-10.2c-0.1-0.3-0.3-0.6-0.5-0.8
		c-0.1-0.3-0.2-0.7-0.3-1c-0.6-1.9-1.7-1.7-3.1-1.2c-1.8,0.6-1.7,2.9-1.7,4.7c0.1,2.7,0.1,5.6,0.4,8.3c-1-0.8-1.9-1.6-2.8-2.6
		c-0.1-0.1-0.1-0.2-0.2-0.2c-0.3-0.4-0.5-0.8-0.8-1.2c0-0.1,0-0.3-0.1-0.5c-1-1.8-2.1-4.3-3.8-5.4c-0.8-0.6-2-0.1-2.4,0.8
		c0,0,0,0,0,0c-0.3,0.1-0.5,0.4-0.5,0.7c0,0.4,0.1,0.7,0.2,1c-0.1,0.3-0.2,0.6-0.1,1c0.4,1.6,1,3.1,1.6,4.6c1.2,6,2.9,12.5,5.5,17.6
		c0,0.1,0.1,0.2,0.2,0.2c0,0,0,0,0,0.1c0.2,0.4,0.8,0.7,1.2,0.5c1.1-0.5,1.9-1.4,1.6-3c-0.8-3.6-2.6-7-3.6-10.7
		c0.1,0.1,0.1,0.1,0.2,0.2c0.2,0.2,0.4,0.4,0.6,0.6c0.2,0.2,0.4,0.5,0.7,0.7c0.4,0.4,0.7,0.8,1,1.1c0.4,0.5,0.9,1,1.3,1.4
		c0.1,0.1,0.2,0.2,0.4,0.4c0.2,0.2,0.5,0.5,0.7,0.7c0.1,0,0.1,0.1,0.2,0.2c0,0,0.1,0,0.1,0.1c0.4,0.3,0.7,0.6,1.1,0.9
		c0.1,0.1,0.2,0.1,0.3,0.2c0.2,0.1,0.3,0.2,0.5,0.3c0.7,0.4,1.3-0.2,1.4-1c0.1-2.1,0.1-4.2-0.2-6.3c0.1-0.7,0.1-1.5,0.2-2.3
		c0.4,1.8,0.7,3.7,1.2,4.9c0.7,1.8,1.3,4.7,2.5,6.4c0.1,0.4,0.2,0.8,0.2,1.2c0.1,0.6,0.7,0.9,1.2,0.8c0.4-0.1,0.7-0.2,0.9-0.4
		c0.2,0,0.4,0,0.7,0c0.5-0.1,1-0.9,0.9-1.4C111.3,171.3,109.8,167.6,108.2,163.9z"/>
	<path fill="#2B8BC1" d="M114.7,165.1c0.2-0.3,0.3-0.6,0.2-1.1c-0.9-5-2.9-11.5-5.4-15.8c-0.7-1.2-2.1-0.8-2.5,0.4
		c-1,3.2,0.8,6.9,1.8,9.8c1.8,4.8,2.7,10.9,5.1,15.3c0.7,1.2,2.1,0.8,2.4-0.4C117.2,170.7,115.7,167.6,114.7,165.1z"/>
	<path fill="#2B8BC1" d="M125.2,168.9c-0.1-0.4-0.2-0.8-0.4-1.3c-1-3.6-1.9-7.4-3.1-10.9c-0.7-2.5-1.5-4.9-2.3-7.3
		c1.2-0.2,2.4-0.4,3.4-1.1c0.5-0.4,0.8-1.1,0.9-1.8c0.1-0.2,0.1-0.3,0.1-0.5c0.1-1.4-0.5-2.2-1.3-2.5c-0.3-0.2-0.7-0.3-1.1-0.3
		c0,0,0,0,0,0c-1.1-0.1-2.3,0.2-3,0.4c-0.8,0.3-2,0.7-3.2,1.3c-1.1,0.4-2.2,0.9-3,1.8c-0.2,0.1-0.4,0.2-0.6,0.4
		c-0.2-0.3-0.7-0.2-0.7,0.2c-0.3,1.6,0.3,3.4,1,4.7c0.3,0.5,0.8,0.6,1.3,0.4c0.7-0.5,1.5-1,2.2-1.4c0.4-0.2,0.7-0.3,1-0.5
		c0.4,2.5,1.5,4.8,2.2,7.3c1.2,4.2,2.1,8.6,3.6,12.7c0.7,1.8,2.5,1.3,2.8-0.1C125.3,169.9,125.4,169.5,125.2,168.9z"/>
	<path fill="#2B8BC1" d="M141.3,155.1c-1.7-5.5-3.1-11-5.8-16c-0.4-0.8-1.4-1-2-0.3c-0.5-0.1-1.1,0.4-1.2,1
		c-0.3,2.1,0.6,4.1,1.5,5.9c0.1,0.2,0.2,0.4,0.2,0.6c-1.2,0-3,0.4-4.3,1.3c-0.4-1.3-0.8-2.7-1.3-4c-0.7-2-1.3-3.2-3.2-3.4
		c-0.7-0.1-1.5,0.8-1.4,1.7c0.6,5.1,2.5,9.7,3.9,14.6c1,3.6,1.5,7.4,3.5,10.4c0.9,1.4,2.7,0.8,2.8-1c0.1-3-1-5.9-1.9-8.7
		c0.2-0.3,0.2-0.6,0.1-1c-0.3-1.1-0.7-2.2-1-3.3c0,0,0,0,0,0c0.6-0.1,1.2-0.6,1.8-0.8c0.8-0.3,1.6-0.5,2.4-0.8
		c0.1,0.4,0.3,0.9,0.4,1.3c1,4,2.2,8,4,11.6c0.5,0.9,1.6,1,2.2,0.3C144,162.2,142,157.5,141.3,155.1z"/>
	<path fill="#2B8BC1" d="M155.8,152.6c-0.2-1.4-0.8-2.5-1.5-3.3c-1.9-3-5.9-4.3-9.1-4.9c-0.8-0.7-1.4-1.6-1.9-2.7
		c0-0.1,0-0.1,0.1-0.2c0-0.5,0.2-1,0.4-1.5c0.5-0.9,1.3-1.3,2.1-1.3c0.3-0.1,0.6-0.2,1-0.1c0.2,0.1,0.4,0.2,0.7,0.3
		c0.3,0.2,0.6,0.2,0.8,0.2c0.1,0.6,0.9,0.8,1.1,0.3c0.2,0,0.3-0.1,0.5-0.2c0.2,0,0.4-0.1,0.5-0.4c0,0,0-0.1,0-0.1
		c0.1-0.1,0.3-0.2,0.4-0.4c0.4-0.7,0.8-1.6,1-2.4c0.1-0.4-0.1-0.8-0.3-1c0-0.4-0.1-0.9-0.5-1.1c-1-0.5-2-0.6-3-0.3
		c-2.3-1-6.4,0.6-7.5,2.7c-1.3,2.5-1.4,6.3-0.6,9.1c1.1,3.8,4.5,4.3,7.5,4.8c0.8,0.3,1.6,0.5,2.4,0.8c0.7,0.6,1.4,1.2,1.9,2
		c0.1,0.2,0.2,0.5,0.2,0.7c0.1,0.6,0.2,1.2,0.3,1.9c-0.8,1.7-2.9,2.9-4.7,2.4c-0.3-0.2-1-0.3-1-0.5c0,0,0-0.1,0-0.1
		c0-1-1.3-1.2-1.5-0.2c-0.1,0.5-0.2,1.1-0.3,1.6c-0.2,0.7-0.4,1.4-0.3,2.2c0.2,1.2,1.6,1.6,2.4,1.8c0.7,0.2,1.5,0.2,2.1,0.1
		C153.3,162.9,156.7,158,155.8,152.6z"/>
	<path fill="#2B8BC1" d="M167.7,135.7c-2-4.2-7.7-9.2-11.7-5.2c-2,2-2.6,5.1-2.4,8.2c-0.1,0.9,0,1.7,0,2.5c-0.1,0.3-0.1,0.6,0,0.9
		c1.3,6.4,4.7,14.1,11,14.8c1.7,0.2,3-0.6,3.8-1.9c0.2-0.2,0.4-0.3,0.5-0.6C173,149.7,170,140.7,167.7,135.7z M165.4,151.8
		c-2.3,1-3.9-1.2-5.1-3.2c-1.7-2.9-2.7-6.5-2.9-10c-0.2-3,2-6,4.4-3.2c1.2,1.5,2.2,3.1,3.2,4.8c1.2,2.2,1.7,4.7,1.8,7.3
		c0.1,1.6-0.3,2.9-1.1,4.1C165.6,151.6,165.5,151.7,165.4,151.8z"/>
	<path fill="#2B8BC1" d="M183.1,137c0.1-0.2,0.2-0.4,0.1-0.7c-1.2-3.4-2.1-7.1-3.5-10.4c-0.3-0.6-0.5-1.1-0.8-1.4
		c-0.4-0.8-1-1.2-1.9-0.8c-0.2,0-0.3,0-0.5,0c-0.5,0-0.9,0.7-0.8,1.2c1.2,4.3,2.8,8.5,4,12.8c0.3,1,0.5,2,0.8,3.1
		c-0.8-1.4-1.7-2.7-2.5-4.1c-0.4-0.6-0.8-1.2-1.2-1.7c-0.3-0.5-0.7-1-1.1-1.6c-0.3-0.4-0.5-0.8-0.8-1.2c-0.6-0.9-1.1-1.9-1.7-2.8
		c0.1-0.2,0-0.5-0.1-0.7c-0.3-0.3-0.5-0.6-0.7-0.9c-0.8-1-1.4-1.6-2.1-1.9c0,0-0.1-0.1-0.1-0.1c-0.2-0.1-0.4-0.1-0.5-0.1
		c-0.6,0-1.3,0.2-2.2,0.7c-0.1,0-0.2,0-0.2,0.1c-0.1,0.1-0.2,0.1-0.4,0.2c-0.1,0-0.1,0.1-0.1,0.1c-0.1,0-0.1,0.1-0.3,0.1
		c-0.2,0-0.4,0-0.6,0c-0.1,0-0.1,0.1,0,0.2c0.2,0,0.3,0.1,0.4,0.1c0,0.1,0,0.2,0.1,0.3c-0.2,0.2-0.3,0.5-0.1,0.9
		c0.3,0.7,0.6,1.4,0.9,2.1c0.4,2,1.1,4.5,2.1,7.2c0.2,0.9,0.5,1.7,0.8,2.6c1.4,4.1,2.5,8.2,3.6,12.4c0.1,0.5,0.6,0.8,1,0.6
		c0.4-0.1,0.9-0.2,1.3-0.3c0.4,0,0.8-0.4,0.8-1c-0.2-6-2.4-11.2-4.1-16.7c2.3,3.4,4.6,7.1,7.2,10.1c0.2,0.3,0.4,0.6,0.7,0.9
		c0.7,1.2,1.5,2.3,2.5,3.1c0.1,0.1,0.2,0.2,0.4,0.2c0.2,0.3,0.5,0.5,0.9,0.3c0.5-0.3,1-0.5,1.5-0.5c0.3-0.1,0.6-0.6,0.6-0.9
		C185.8,144.7,184.5,140.8,183.1,137z"/>
	<path fill="#2B8BC1" d="M190.2,140.7c-1.2-4.1-2.6-8-3.7-12.1c-0.5-1.8-0.9-4.9-2.4-6c-1.1-0.9-2.1-0.5-2.6,0.4
		c-0.4,0.1-0.7,0.6-0.7,1c0.3,2.7,1.5,5,2.6,7.3c0.1,0.6,0.2,1.2,0.4,1.7c0.7,2.7,1.7,5.3,2.4,7.9c0.7,2.8,0.9,5.6,2.6,7.9
		c0.3,0.3,0.7,0.4,1,0.2C192.4,149.6,190.6,142.1,190.2,140.7z"/>
	<path fill="#2B8BC1" d="M205.8,143.5c-1.9-5-4.8-9.6-7.2-14.4c-1.4-2.9-3.4-9.7-7.1-9.6c-2.6,0.1-2.7,2.4-2.4,4.8
		c-0.2,2.1,0.4,4.1,0.8,6.2c0.2,0.9,0.4,1.8,0.7,2.7c0.3,1.5,0.6,3,0.8,4.5c0.6,3.4,0.5,6.9,1.6,10.1c0.2,0.5,0.7,0.6,1,0.2
		c0,0,0,0,0.1,0c0.1,0,0.1,0,0.1,0c0,0,0,0,0.1,0c0.5,0.6,1.2,0.3,1.5-0.4c0.9-2.6-0.1-5.6-0.8-8.3c0.4-0.1,0.8-0.3,1.2-0.6
		c0.6-0.4,1.4-0.7,2-1.1c0.4,0.6,0.8,1.2,1.2,1.8c0.1,0.3,0.3,0.6,0.4,0.9c0.8,2,2.1,5.5,4.5,4.8c0.2-0.1,0.4-0.2,0.5-0.3
		C205.4,144.8,206.1,144.3,205.8,143.5z M194.2,133.7c-0.1,0-0.2,0.1-0.2,0.1c-0.3-1.7-0.6-3.5-0.9-5.2c0-0.3-0.1-0.6-0.1-0.9
		c0,0,0,0,0-0.1c0.2,0.1,0.4,0.2,0.5,0.3c0.5,1.8,1.3,3.5,2.1,5.1C195.2,133.3,194.7,133.5,194.2,133.7z"/>
	<path fill="#2B8BC1" d="M215.4,124.1c-0.1-0.5-0.3-1-0.5-1.4c-0.3-1.2-0.9-3.5-1.6-5.3c-0.3-1.2-0.7-2.3-1.3-3.4
		c-0.4-0.7-1.4-0.6-1.6,0.2c0,0,0,0,0,0c-0.6,0.1-1,0.5-1,1.3c-0.2,3.4,1.8,7.2,2.7,10.4c0.5,1.9,1.1,3.8,1.7,5.7
		c-0.9-1.2-2-2.3-2.9-3.4c-1.6-2-3.3-3.9-4.8-5.9c-0.6-1-1.3-2-2-2.9c0,0,0,0,0-0.1c-0.9-1.5-2.1-2-3.3-1.3c-0.7-0.3-1.3,0.1-1.3,1
		c-0.1,3.7,2.1,7.8,3.2,11.2c1.6,4.7,2.6,10,4.9,14.3c0.4,0.8,1.4,0.4,1.5-0.3c0.4,0,0.8-0.4,0.8-1c-0.3-4.4-2.4-9.1-3.7-13.2
		c-0.2-0.6-0.4-1.2-0.5-1.9c0,0,0.1,0.1,0.1,0.1c2.2,3.1,4.2,6.3,6.4,9.2c0.3,0.4,0.5,0.9,0.8,1.3c0.4,0.7,1.1,1.9,1.8,2.4
		c0.2,0.4,0.6,0.8,1.1,0.7c0.9-0.2,1.7-0.5,2.5-0.9c0,0,0.1,0,0.1,0c0.6,0.1,1.3-0.2,1.2-1.1C219,134.3,217.1,129.2,215.4,124.1z"/>
</g>
<g>
	<path fill="#2B8BC1" d="M76.6,273.7c-0.1-0.1-0.1-0.3-0.2-0.4c-1.2-3.1-2.6-6.1-4-9.1c0-0.4-0.2-0.9-0.5-1.1
		c-0.6-1.4-1.2-2.7-1.7-4.1c-1.4-3.6-3-8.5-6.4-10.3c-0.7-0.4-1.5-0.1-1.8,0.9c-0.2,0.8-0.3,1.5-0.4,2.3c-0.1,0.2-0.2,0.4-0.2,0.6
		c0,5.1,0.1,10.1,0.3,15.2c-0.1,1.9,0,3.8,0.2,5.6c0.1,2,0.3,3.9,0.9,5.8c-0.3,1.8-0.1,3.5,0.6,5.3c0.3,0.6,0.9,0.7,1.4,0.4
		c0.4,0.3,1,0.2,1.3-0.2c1.7-2,1.3-5.8,1.1-8.3c-0.1-1.7-0.2-3.6-0.4-5.5c1.2-0.7,2.4-1.4,3.5-2.2c0.8,2.4,1.8,5.1,3.5,6.8
		c0.1,0.1,0.2,0.2,0.3,0.3c0.5,1.3,1.3,2.4,2.3,3.4c0.6,0.6,1.5,0.2,1.5-0.7C78,276.7,77.3,275.1,76.6,273.7z M65.9,266.1
		C65.8,266.1,65.8,266,65.9,266.1c-0.3-2.9-0.8-5.7-1.3-8.4c0-0.7,0.1-1.5,0.1-2.2c1.3,2.9,2.6,5.8,3.8,8.7
		C67.6,264.8,66.7,265.4,65.9,266.1z"/>
	<path fill="#2B8BC1" d="M84.6,273.5c-3.1-8.4-4.4-18.2-8.8-25.8c-0.1-0.6-0.1-1.2-0.2-1.8c-0.1-0.5-0.6-0.4-0.6,0.1v0.1
		c-0.1,0-0.2-0.1-0.3-0.1c0,0-0.1-0.1-0.1-0.1c0-0.1-0.1-0.1-0.2-0.2c0-0.1,0-0.2,0-0.2c-0.1-0.3-0.4-0.5-0.6-0.7
		c-0.6-0.5-1.2-0.3-1.6,0.2c-0.3,0.3-0.6,0.7-0.5,1.3c0.3,4.3,2,8,3.6,11.8c2,4.7,2.9,9.9,4.7,14.7c0.1,0.5,0.2,0.9,0.3,1.4
		c0.3,2,1.2,3.9,3,3.1c1-0.4,1.2-1.3,1.1-2.4C84.7,274.5,84.8,274,84.6,273.5z"/>
	<path fill="#2B8BC1" d="M98.9,264.2c-0.2-0.1-0.3-0.3-0.4-0.4c-2-2-3.8-5.6-5.8-7.8c-0.3-0.5-0.6-1.1-0.9-1.6
		c-0.2-0.5-0.6-0.7-0.9-0.8c1.5-5.4,0.6-12.1-4.2-14c-2.2-0.9-4.4,0-5.6,1.8c-0.3,0.2-0.6,0.4-0.9,0.6c-0.6,0-1.2,0.4-1.4,1.2
		c-1,3.5,0.9,7.5,2.2,10.6c0.1,0.3,0.3,0.6,0.4,1c0.5,1.7,1,3.3,1.5,4.9c1.3,4.3,2,9.3,5,12.6c0.8,0.9,1.8,0.1,2-0.8
		c0.1-0.2,0.2-0.4,0.2-0.7c0.4-0.3,0.6-0.9,0.5-1.5c-0.3-1.2-0.6-2.4-0.9-3.6c-0.1-2.2-0.6-4.3-1.3-6.3c0.4-0.3,0.8-0.6,1.2-0.9
		c0.2,0,0.5,0,0.7,0.1c1.9,3.4,4.2,6.4,7.1,9C99,268.8,100.5,265.6,98.9,264.2z M85.2,245.9c0.8,0.7,1.5,1.4,2.3,2.1
		c0.6,1.2,0.7,2.7,0.4,4.2c0,0.1-0.1,0.2-0.1,0.3c-0.2,0.3-0.4,0.6-0.7,0.9c-0.3,0.3-0.5,0.7-0.8,1c-0.3-0.7-0.7-1.4-1-2.1
		c-0.7-1.9-1.4-3.8-2.1-5.7c0-0.1,0-0.1,0-0.2C83.9,246.3,84.5,246.1,85.2,245.9z"/>
	<path fill="#2B8BC1" d="M122,236.6c-1.8-4.2-4.2-10.6-8.4-12.1c-0.7-0.3-1.6,0.3-1.7,1.1c-0.4,2.1-0.4,4.3-0.2,6.4
		c0,5,0.3,9.9,0.3,14.9c0.1,4.4-0.5,9.1,1.4,13.2c0.5,1.1,1.9,1,2.4,0c0.1-0.2,0.2-0.4,0.3-0.7c0.5,0,1-0.4,1-1
		c0-0.5-0.1-0.9-0.2-1.4c0.5-2.5,0.3-5.3,0-7.8c1.6-0.2,3.4-1.2,4.7-2.2c1.4,2.8,2.7,5.6,4,8.5c0.7,1.5,2.8,0.8,2.7-0.9
		C127.8,248.1,124.5,242.3,122,236.6z M117.3,242.7c-0.5,0.3-1,0.5-1.4,0.8c-0.2-1-0.3-1.9-0.5-2.9c0-0.7,0-1.4,0-2.1
		c0-1-0.4-3.2-0.1-4.4c0.7,1.6,1.6,3.2,2.2,4.6c0.5,1,0.9,2,1.4,3C118.3,242,117.8,242.3,117.3,242.7z"/>
	<path fill="#2B8BC1" d="M143.5,247.6c0-0.2-0.1-0.3-0.2-0.5c0-0.1,0.1-0.3,0.1-0.4c0,0,0,0,0,0c0.2-0.4,0.2-0.8,0-1.2
		c0-4.7-1.9-9.4-3.2-13.8c-1.4-4.9-1.8-10.5-5.4-14.2c-1-1-2.5-0.3-2.5,1.2c-0.1,5,1.9,9.8,3.5,14.3c0.2,0.7,0.5,1.5,0.7,2.2
		c-2.6-3.5-5.2-7.1-6.8-11.3c-0.3-0.8-0.8-1-1.4-0.8c-0.5-0.8-1.1-1.5-1.7-2.2c-0.4-0.4-0.9-0.5-1.3-0.3c-0.8-0.7-2.2-0.2-2.2,1.2
		c0,4.7,1.8,9.1,3,13.5c1.6,5.6,3.2,11.2,5.5,16.4c0.1,0.2,0.2,0.4,0.4,0.5c0.1,0.2,0.1,0.3,0.2,0.5c0.3,0.8,1,0.9,1.5,0.7
		c0,0,0,0,0,0c0.7,0.6,1.9,0.3,1.9-0.9c-0.1-3.4-1.8-6.3-2.8-9.5c-0.7-2.4-1.4-4.7-2.2-7c-0.3-1.6-0.7-3.2-1.1-4.8
		c1.8,3.2,3.6,6.3,5.5,9.4c1.8,3,3.1,8.2,6.6,8.8C142.7,249.8,143.9,248.9,143.5,247.6z"/>
	<path fill="#2B8BC1" d="M140.9,214.9c0,0-0.1,0-0.2,0c-0.3,0.3-0.7,0.6-1,0.9c0,0,0,0,0,0c-0.3,0.1-0.6,0.4-0.7,0.7
		c-0.3,0.2-0.4,0.6-0.3,1.2c0.2,0.8,0.4,1.7,0.6,2.5c0.6,3,1.6,5.9,2.4,8.8c1.7,5.9,3.3,11.7,5.3,17.4c0.2,0.7,0.8,1,1.3,0.9
		c0.5,0.4,1.1,0.3,1.5-0.1c0.3,0,0.6-0.1,0.8-0.3c1.8-0.2,3.1-1.4,4-3.1C163.5,233.8,152.7,206.4,140.9,214.9z M151.2,242.1
		c-0.4-1.8-1.3-3.5-2-5.1c-2.4-5.4-3.3-11.4-4.9-17.2c4.3-1,6.9,7,7.8,11c0.4,1.7,1.2,6.5,0.6,9.6
		C152.3,241.1,151.8,241.6,151.2,242.1z"/>
	<path fill="#2B8BC1" d="M177.9,220.9c-1.1-1.3-2.6-1.9-4.1-2.3c-0.2,0-0.3-0.1-0.5-0.1c-0.6-0.5-1.2-0.9-1.8-1.3
		c-0.8-1.2-1.5-2.5-1.8-4c0.1-1,0.8-1.8,1.7-2.2c0.5-0.1,1,0,1.6,0.4c0.5,0.3,1,0.2,1.4,0c0.4,0.2,0.8,0.5,1.2,0.8
		c0.9,0.7,2-0.1,2.3-1.1c0.9-2.4-1-4.1-2.8-4.5c-0.4-0.1-0.9-0.1-1.4-0.1c-3-0.9-5.9-0.3-7.5,2.1c-0.4,0.5-0.7,1-0.9,1.7
		c-0.3,0.9-0.4,1.7-0.4,2.4c-0.2,1.1,0,2.2,0.5,3.2c0,0.1,0.1,0.2,0.1,0.2c0.1,0.5,0.2,1,0.4,1.4c0.5,1.2,1.3,2.2,2.3,3
		c0.1,0.1,0.3,0.3,0.4,0.4c1.4,1.3,3.2,2,4.8,3c3,1.7,2.5,6.6,0.9,8.1c-1.7-0.3-3.3-0.7-4.7-2c-0.8-0.8-2-0.5-2.4,0.7
		c-0.9,3.1,0.8,5.2,3.3,6c0.6,0.2,1.3,0.3,2,0.4c4.2,1.9,8.8,0.2,9.5-6.3C182.5,227.3,180,223.3,177.9,220.9z"/>
	<path fill="#2B8BC1" d="M193.7,207.6c-0.9-2.9-3.1-5.6-5.9-5.8c-0.1,0-0.2,0-0.2,0c-2.8-1.6-6.1-1.6-8.1,1.2
		c-1.1,0.1-2.2,1.6-1.4,2.9c1,1.6,1.7,3.2,2.4,4.9c1.6,6.5,2.8,13.2,4.6,19.6c0.1,0.5,0.3,1.1,0.5,1.6c0.7,2.2,3.7,1.2,3-1
		c-0.1-0.2-0.1-0.4-0.2-0.6c-0.5-3.3-1-6.8-1.7-10.3c0.2-0.1,0.4-0.3,0.6-0.5C192,218,195.7,213.7,193.7,207.6z M186.9,207.3
		c3.4,0.9,1,5.9-1.2,8.1c0-0.1,0-0.2-0.1-0.2c-0.6-2.8-1.3-5.5-2.6-8C184.3,207,185.6,206.9,186.9,207.3z"/>
	<path fill="#2B8BC1" d="M210.5,225c-1.8-6-4-11.7-5.7-17.8c-1-3.5-2.4-8.6-5.8-9.8c-0.1,0-0.1,0-0.2,0c-0.3-2.3-3.5-2.2-3.6,0.4
		c-0.1,1.4,0,2.7,0.1,4.1c0.2,3.8,0.4,7.5,0.7,11.3c-0.2,0.3-0.3,0.6-0.3,1c-0.1,4.4-0.1,8.8,0.2,13.2c0.1,1.6,2.2,2.7,2.9,0.9
		c0.1-0.2,0.2-0.4,0.2-0.6c0.5-0.3,0.8-0.8,0.8-1.6c0-0.3,0-0.6,0-0.9c0.5-1.9,0.7-3.9,0.8-5.9c0.6-0.2,1.2-0.5,1.8-0.8
		c0.2-0.1,0.4-0.1,0.6-0.2c0.4-0.1,0.8-0.3,1.1-0.6c0.2,0.3,0.3,0.6,0.5,1c0.6,2.4,1.2,4.8,2.2,7.1c0.3,0.6,0.7,0.9,1.1,0.9
		C209,227.9,211.1,226.9,210.5,225z M202.1,213.8c-0.6,0.1-1.1,0.3-1.7,0.4c-0.1-1.5-0.3-3-0.5-4.5
		C200.5,211.1,201.3,212.4,202.1,213.8z"/>
	<path fill="#2B8BC1" d="M223.9,216.5c-0.1-1.6-2.3-2.8-3-0.9c-0.5,1.2-1.2,1.7-2,1.7c-0.2-0.1-0.4-0.1-0.6-0.1c0,0-0.1,0-0.1,0
		c-1.7-0.5-3.7-2.6-4.7-3.8c-0.1-0.1-0.2-0.3-0.3-0.4c-1-2.8-1.1-6.1-0.9-9c0.1-1.9,0.5-4.1,1.5-5.5c1.3-1.8,3.3-0.1,4.5,0.9
		c1.1,0.9,2.2-0.2,2.4-1.4c0.5-0.8,0.6-1.9-0.1-2.8c-0.4-0.6-0.9-1-1.3-1.4c-2.9-2.7-5.6-2.6-7.7-0.9c-1.7,0.4-2.6,1.5-3.1,3.1
		c-0.5-0.1-1.1,0.3-1.2,1.1c-0.2,2-0.2,3.9,0,5.9c-0.1,1.1-0.1,2.3,0.1,3.4c0.5,4.2,2.1,11,5.4,13.8c1.2,1.2,2.6,2,4.3,2.2
		C220.8,222.8,224.2,221.1,223.9,216.5z"/>
	<path fill="#2B8BC1" d="M233.1,213.4c-0.1,0.1-0.6,0.5-1.1,0.9c-0.7-2.1-1.4-4.3-1.9-6.5c-0.4-1.6-0.4-2.9-0.2-4.1
		c2.9-0.2,6-1.7,6.2-5.1c0.1-0.8-0.6-1.5-1.3-1.5c-1.9,0-3.9,0.5-5.3,1.7c-0.4,0.1-0.8,0.2-1.2,0.3c-0.5-1.6-1-3.1-1.5-4.7
		c0.4-0.4,0.9-0.8,1.6-1c2.1-0.6,3.9-1,5.4-2.8c0.8-1.1,0.2-2.7-1-2.8c-3.3-0.2-6.2,1-9.1,2.6c-0.7-0.5-1.7,0-1.7,1
		c-1.3,0.5-0.2,5.4,0,6.1c0.5,1.7,1.3,3.4,2,5c0.5,1.5,1,2.9,1.6,4.3c0.7,2.9,1.3,5.8,2,8.7c0.4,1.6,1,2.6,1.8,3.1
		c0.2,0.5,0.7,0.8,1.2,0.7c0.2,0,0.4-0.1,0.6-0.2c0.4,0,0.9-0.1,1.4-0.2c0.9,0.2,2-0.1,3.2-0.8c1.9-0.4,3.8-1.5,3.8-3.8
		C239.5,210.3,234.7,212.5,233.1,213.4z"/>
</g>
<g>
	<path fill="#2B8BC1" d="M133.7,347.9c-1.3-6-3.9-11.8-6.4-17.2c-1.6-3.4-4.6-10.5-8.8-9.7c-0.5,0.1-1,0.8-0.9,1.4
		c0,0.4,0.1,0.7,0.1,1.1c-0.1,0.1-0.1,0.3-0.2,0.5c-0.7,5.6,0.1,10.9,1.1,16.2c0,0.3,0,0.7,0,1c-2.1-4.4-4.6-8.6-6.8-12.6
		c-1.2-2.1-3-3.8-4.1-2.7c-0.6-0.2-1.3,0-1.4,0.9c-1,5.6-0.6,11.2,0.2,16.8c0.1,2.1,0.2,4.1,0.3,6.2c0.2,2.6,0.3,5.7,1.4,8.1
		c0,0.7,0.1,1.3,0.1,2c0,0.8,0.5,1.3,1.2,1.4c5.4,0.5,2.5-14,1.5-18.9c-0.3-2.5-0.5-5-0.8-7.5c2,4.2,4.2,8.4,5.9,12.9
		c1.3,3.4,2.7,6.3,5.7,7.8c0.7,0.3,1.5-0.5,1.5-1.3c0-0.1,0-0.2,0-0.2c0.1-0.1,0.2-0.3,0.3-0.6c0-0.2,0.1-0.4,0.1-0.6
		c0.2,0,0.3-0.2,0.3-0.5c0-0.2-0.1-0.5-0.1-0.7c0.5-3.5-0.1-7-0.7-10.6c-0.7-3.7-1.2-7.4-1.8-11.1c2.1,3.7,4,7.5,5.8,11.4
		c1.4,2.9,2.3,6.8,4.8,8.7c0.7,0.5,1.4,0.1,1.6-0.6C133.6,349,133.8,348.5,133.7,347.9z M123.6,328.6c-0.8-1.3-1.7-2.6-2.5-3.8
		c-0.2-0.4-0.6-0.5-0.9-0.5c0-0.1,0-0.3,0-0.4C121.3,324.6,122.5,326.5,123.6,328.6z"/>
	<path fill="#2B8BC1" d="M148.8,328.5c-0.8-5.7-1.8-13.4-6-17.2c-1-0.9-2.2,0.6-2,1.8c0.7,4,1.7,8,2.7,12c0.2,3.4,0.6,6.9-0.1,10.3
		c-0.6,3.1-1.1,2.9-3,1.4c-0.6-0.5-1.3-1-2-1.6c-1.1-2.1-2-4.3-3-6.4c-0.1-0.4-0.3-0.8-0.4-1.2c-0.1-0.5-0.3-1-0.4-1.4
		c-0.3-1.2-0.6-2.5-0.9-3.7c-0.1-0.4-0.3-0.6-0.6-0.7c-0.4-1.1-0.9-2.2-1.5-3.2c-0.1-0.2-0.3-0.4-0.4-0.5c-0.1-0.3-0.2-0.5-0.3-0.8
		c-0.5-1-1.8-0.7-2.1,0.3c-1.3,5.7,1.9,11.7,4.5,16.7c0.4,1.1,0.9,2.2,1.4,3.2c1.3,3.3,3,6.1,5.9,7.7c1.9,1.1,3.9,0.4,5.4-0.9
		c0,0,0,0,0,0C150.5,341.3,149.4,333,148.8,328.5z"/>
	<path fill="#2B8BC1" d="M167.9,326.9c-0.9-4.5-3.7-7.8-7.4-9.4c-1.8-0.8-3.6-1.1-5.4-2.1c-0.4-0.2-0.7-0.4-0.9-0.7
		c0-0.5,0-1,0.1-1.5c0.8-4.5,3.7-2.8,6-2.7c0.9,0,1.8-1.1,1.4-2.2c-3-9.5-15.9-2.4-12,6.4c0.3,2.5,2.3,4.3,4.4,5.6
		c0.7,0.6,1.6,1.1,2.5,1.4c1.2,0.6,2.3,1.1,3.4,1.8c1.8,1.1,3,2.5,3.7,4.1c0.2,4.2-2.8,6.1-5.7,4.6c-0.9-0.7-1.8-1.5-2.3-2.3
		c-0.9-1.2-2.2-0.4-2.5,0.8c-0.2,0.1-0.4,0.3-0.3,0.7c0.1,0.4,0.3,0.8,0.4,1.2c-0.6,4.5,9.8,9.3,12.8,2.1
		C167.5,332.6,168.4,329.4,167.9,326.9z"/>
	<path fill="#2B8BC1" d="M184.4,324.4c-2.8-1.6-5.7,1-8.4,2.5c-0.8-3.2-1.7-6.4-2.7-9.6c1.2-0.6,3.1-1.4,4.4-2.4
		c0.3-0.1,0.7-0.2,1-0.3c1-0.3,1.1-1.4,0.7-2.2c0.1-0.4,0.1-0.9-0.1-1.4c0-0.8-0.6-1.6-1.5-1.4c-1.8,0.3-3.4,1.3-5,2.2
		c-0.4,0.2-0.8,0.4-1.2,0.6c-0.8-2.2-1.6-4.3-2.5-6.3c3.1-0.8,5.9-2.4,8.9-3.3c0.5-0.2,1-0.8,1-1.5c-0.1-1.4-0.3-2.4-1.5-3
		c-0.1-0.1-0.2-0.1-0.3-0.1c-0.2-0.1-0.3-0.2-0.5-0.2c-1.1-0.1-2.2,0.1-3.3,0.7c-2.4,0.6-4.7,1.5-6.9,2.8c-0.4-0.2-0.8-0.1-1.1,0.1
		c-0.8-0.2-1.8,0.7-1.4,1.7c1.4,4.5,3.2,8.9,4.9,13.3c0.8,3.1,1.5,6.3,2,9.4c0.5,2.6,1.1,6.1,3.3,7.4c0.8,0.5,1.7-0.1,1.8-1.1
		c1.6,0.6,3.7-0.1,5.4-1C183,330.5,187.8,326.4,184.4,324.4z"/>
	<path fill="#2B8BC1" d="M199,291.8c-0.6-1.8-2.8-1.5-3.1,0c-0.6,0.4-1,1.2-0.6,2.2c0.1,0.3,0.3,0.6,0.4,0.9
		c0.1,2.4,0.9,5.1,1.3,7.1c0.9,4.5,2.1,8.9,2.6,13.4c0,0.3-0.1,0.6-0.1,0.8c-1.2,5.6-5.8,2.7-7.7-0.4c-0.2-0.3-0.3-0.6-0.5-0.9
		c0-0.2,0-0.3-0.1-0.5c-1.1-3.4-1.9-6.8-3.3-10.1c0-0.1,0-0.1,0-0.2c-0.7-2.7-1.3-5.4-2.5-7.8c-0.1-0.2-0.1-0.4-0.2-0.6
		c-0.2-0.7-0.7-0.9-1.2-0.9c-0.5,0-1,0.4-1.2,1.1c-0.3,0.2-0.6,0.5-0.7,1c-0.5,1.9,0.6,4.9,0.9,6.7c0.6,3.2,1.2,6.4,2.1,9.6
		c1.9,7.4,5.9,14.4,13.4,12c3.5-1.1,5-4.1,5.4-8C205.3,309.3,200.9,297.7,199,291.8z"/>
	<path fill="#2B8BC1" d="M228.8,303.1c-1-2-2-4-3.1-6.1c-0.1-0.2-0.1-0.3-0.2-0.5c-0.9-2.5-1.7-5-3.4-6.8c-0.6-1.3-1.3-2.6-1.9-3.9
		c-0.3-0.6-0.8-0.7-1.2-0.5c-0.7-0.2-1.5,0.2-1.7,1.1c-1,3.8-0.3,7.6-0.3,11.6c0,2.9,0,5.8-0.1,8.7c-0.1-0.2-0.2-0.4-0.3-0.6
		c-1.2-3.2-2.4-6.4-3.8-9.5c-1.1-2.4-2.7-6.4-5.3-7.3c-0.6-1.4-2.4-1-2.5,0.6c0,1.2,0,2.4,0.1,3.5c0.1,2.9,0.6,5.7,1.2,8.6
		c0.2,2.6,0.3,5.1,0.8,7.6c-0.5,3.5-0.3,7.4,0.6,10.5c0.2,0.7,0.8,1.2,1.4,0.9c3.4-1.3,2-9.5,1.7-12.3c-0.3-2.7-0.6-5.4-0.9-8.2
		c1.7,4.8,4.2,9.1,7.1,13c0.1,0.2,0.3,0.3,0.5,0.4c0.2,0.4,0.4,0.7,0.7,1.1c0.4,0.6,1.2,0.3,1.5-0.2c2-3.6,2.5-8.7,2.3-13.5
		c1.4,2.6,3.1,5.1,4.6,7.7c0.6,1.6,1.3,3.2,2.3,4.7c0.7,1,1.8,0.7,2.1-0.2c0.1-0.1,0.2-0.3,0.2-0.5
		C232.1,309.3,230.4,306.3,228.8,303.1z"/>
</g>
<path fill="#192530" d="M205.3,304.6L205.3,304.6L205.3,304.6z"/>
</svg>
