<?xml version="1.0" encoding="utf-8"?>
<!-- Generator: Adobe Illustrator 18.0.0, SVG Export Plug-In . SVG Version: 6.00 Build 0)  -->
<!DOCTYPE svg PUBLIC "-//W3C//DTD SVG 1.1//EN" "http://www.w3.org/Graphics/SVG/1.1/DTD/svg11.dtd">
<svg version="1.1" id="Capa_1" xmlns="http://www.w3.org/2000/svg" xmlns:xlink="http://www.w3.org/1999/xlink" x="0px" y="0px"
	 viewBox="-11.2 -17.9 38.6 31.2" enable-background="new -11.2 -17.9 38.6 31.2" xml:space="preserve">
<path fill="#E54C3C" d="M27-14c-1.4,0.6-2.9,1-4.4,1.2c1.6-1,2.8-2.5,3.4-4.3c-1.5,0.9-3.1,1.5-4.9,1.9c-1.4-1.5-3.4-2.4-5.6-2.4
	c-4.2,0-7.7,3.4-7.7,7.7c0,0.6,0.1,1.2,0.2,1.8c-6.4-0.3-12.1-3.4-15.9-8c-0.7,1.1-1,2.5-1,3.9c0,2.7,1.4,5,3.4,6.4
	c-1.3,0-2.4-0.4-3.5-1v0.1c0,3.7,2.7,6.8,6.2,7.5C-3.5,0.9-4.1,1-4.9,1c-0.5,0-1,0-1.4-0.1c1,3.1,3.8,5.3,7.2,5.3
	c-2.6,2.1-6,3.3-9.6,3.3c-0.6,0-1.2,0-1.8-0.1c3.4,2.2,7.4,3.5,11.8,3.5C15.4,12.9,23.2,1.2,23.2-9l0-1C24.7-11.1,26-12.4,27-14z"/>
</svg>
