<?xml version="1.0" encoding="utf-8"?>
<!-- Generator: Adobe Illustrator 17.0.0, SVG Export Plug-In . SVG Version: 6.00 Build 0)  -->
<!DOCTYPE svg PUBLIC "-//W3C//DTD SVG 1.1//EN" "http://www.w3.org/Graphics/SVG/1.1/DTD/svg11.dtd">
<svg version="1.1" id="Capa_1" xmlns="http://www.w3.org/2000/svg" xmlns:xlink="http://www.w3.org/1999/xlink" x="0px" y="0px"
	 width="683px" height="792px" viewBox="-28.5 0 683 792" enable-background="new -28.5 0 683 792" xml:space="preserve">
<path fill="#192530" d="M653.78,274.569c-25.445,10.905-52.707,18.175-79.97,21.81c29.08-18.175,50.89-45.437,61.795-78.152
	c-27.262,16.357-56.342,27.262-89.057,34.532c-25.445-27.262-61.795-43.62-101.78-43.62c-76.335,0-139.947,61.795-139.947,139.947
	c0,10.905,1.818,21.81,3.635,32.715c-116.32-5.452-219.917-61.795-288.981-145.399C6.753,256.394,1.3,281.839,1.3,307.284
	c0,49.072,25.445,90.875,61.795,116.32c-23.627,0-43.62-7.27-63.612-18.175v1.817c0,67.247,49.072,123.589,112.685,136.312
	c-12.722,1.818-23.627,3.635-38.167,3.635c-9.087,0-18.175,0-25.445-1.818c18.175,56.342,69.065,96.327,130.859,96.327
	C132.16,679.87,70.365,701.68,4.935,701.68c-10.905,0-21.81,0-32.715-1.818c61.795,39.985,134.494,63.612,214.464,63.612
	c256.266,0,398.031-212.647,398.031-398.031v-18.175C611.978,327.277,635.605,303.649,653.78,274.569z"/>
</svg>
