<?xml version="1.0" encoding="utf-8"?>
<!-- Generator: Adobe Illustrator 17.1.0, SVG Export Plug-In . SVG Version: 6.00 Build 0)  -->
<!DOCTYPE svg PUBLIC "-//W3C//DTD SVG 1.1//EN" "http://www.w3.org/Graphics/SVG/1.1/DTD/svg11.dtd">
<svg version="1.1" id="Layer_1" xmlns="http://www.w3.org/2000/svg" xmlns:xlink="http://www.w3.org/1999/xlink" x="0px" y="0px"
	 viewBox="0 0 181.3 128.3" enable-background="new 0 0 181.3 128.3" xml:space="preserve">
<g>
	<path fill="#2680A8" d="M30.3,96.2l-1.5-6.8c-0.4-1.8-0.6-3.4-0.7-4.7c-0.1-1.3,0-2.6,0.3-3.7c0.3-1.1,0.8-2.3,1.4-3.4
		c0.7-1.1,1.4-2.5,2.4-4.1l7.3-11.7c1.6-2.5,2-5.4,1.3-8.7c-0.7-3.2-2.3-5.6-4.9-7.1c-2.5-1.5-5.4-2-8.6-1.3c-3.5,0.8-6,2.6-7.7,5.4
		c-1.7,2.8-2.3,6-1.9,9.4L1.6,61.8C1.2,57.8,1.5,54,2.4,50.6s2.3-6.5,4.4-9.2c2-2.7,4.6-5,7.6-6.8c3-1.8,6.5-3.2,10.5-4.1
		c3.7-0.8,7.2-1.1,10.7-0.7c3.4,0.4,6.5,1.3,9.3,2.8c2.8,1.5,5.2,3.6,7.2,6.3c2,2.7,3.4,6,4.3,9.9c0.6,2.7,0.8,5.2,0.5,7.4
		c-0.3,2.2-0.8,4.3-1.7,6.3c-0.8,2-1.9,4-3.1,5.9c-1.3,1.9-2.6,3.9-4,6.1c-0.9,1.3-1.7,2.5-2.3,3.5c-0.6,1-1.1,2-1.5,3
		c-0.3,1-0.5,2.1-0.5,3.2c0,1.2,0.2,2.5,0.5,4.1l1,4.7L30.3,96.2z"/>
</g>
<path fill="#2B8BC1" d="M85.9,89.7l0-9.4c0-2.5,0.1-4.6,0.4-6.4c0.3-1.8,0.8-3.4,1.5-4.8c0.7-1.4,1.7-2.8,2.9-4.1
	c1.2-1.3,2.6-2.9,4.4-4.7l13.1-13.3c2.8-2.8,4.3-6.5,4.3-11.1c0-4.4-1.5-8-4.4-10.8c-2.9-2.8-6.6-4.2-11-4.2
	c-4.8,0-8.7,1.6-11.8,4.9c-3.1,3.2-4.8,7.2-5.3,11.9L58.3,36c0.7-5.5,2.1-10.3,4.3-14.6s5-7.9,8.5-10.8c3.5-3,7.5-5.2,12-6.7
	c4.5-1.5,9.6-2.3,15-2.3c5.1,0,9.9,0.7,14.3,2.2c4.4,1.5,8.2,3.6,11.4,6.4c3.2,2.8,5.8,6.3,7.6,10.4s2.7,8.9,2.7,14.3
	c0,3.8-0.5,7.1-1.5,9.9c-1,2.8-2.4,5.5-4.1,7.8c-1.7,2.4-3.7,4.7-5.9,6.8c-2.2,2.2-4.6,4.4-7.1,6.8c-1.6,1.5-3,2.8-4.1,3.9
	c-1.1,1.1-2.1,2.3-2.8,3.5c-0.7,1.2-1.3,2.6-1.6,4.1c-0.3,1.5-0.5,3.4-0.5,5.5l0,6.5L85.9,89.7z"/>
<g>
	<path fill="#2C6D84" d="M142.5,87.6l1.8-5c0.5-1.3,1-2.4,1.5-3.3c0.5-0.9,1.1-1.6,1.7-2.2c0.7-0.6,1.4-1.1,2.3-1.6
		c0.9-0.5,2-1,3.2-1.6l9.5-4.5c2.1-1,3.5-2.6,4.4-5c0.9-2.3,0.8-4.5-0.2-6.6c-1-2-2.7-3.5-5-4.3c-2.5-0.9-4.9-0.8-7.2,0.3
		c-2.3,1.1-3.9,2.9-5.1,5.3l-11.2-5.1c1.4-2.8,3.1-5.1,5.1-6.9c2-1.8,4.2-3.2,6.6-4.1c2.4-0.9,5-1.3,7.7-1.2
		c2.7,0.1,5.5,0.6,8.4,1.7c2.7,1,5.1,2.3,7.1,3.9c2,1.6,3.6,3.5,4.8,5.6c1.2,2.1,1.8,4.4,2,7c0.2,2.5-0.3,5.2-1.3,8.1
		c-0.7,2-1.6,3.6-2.7,4.9c-1.1,1.3-2.3,2.4-3.7,3.4c-1.4,0.9-2.8,1.8-4.4,2.5c-1.6,0.7-3.3,1.5-5.1,2.2c-1.1,0.5-2.1,0.9-2.9,1.3
		c-0.8,0.4-1.5,0.8-2.2,1.3c-0.6,0.5-1.2,1.1-1.6,1.9c-0.5,0.7-0.9,1.7-1.3,2.8l-1.3,3.4L142.5,87.6z"/>
</g>
<g>
	<circle fill="#3498DB" cx="95.7" cy="113.2" r="13.5"/>
	<path fill="#58B7E0" d="M87.1,108.5c0.3-0.3,0.5-0.7,0.5-1.2c0.1-0.4,0.1-0.7,0-1.1c0-0.1-0.1-0.2-0.3-0.3c-0.3,0-0.5,0-0.8,0
		c0,0-0.1,0-0.2,0c-0.5,0.3-0.9,0.8-1.1,1.3c0,0,0,0,0,0c-0.1,0.2-0.2,0.2-0.2,0.5c0,0,0,0,0,0.1c0,0.5,0,1.2,0.3,1.3
		c0.1,0.1,0.2,0.1,0.4,0.1c0,0,0,0,0.1,0C86.5,109.3,86.9,109,87.1,108.5C87.1,108.6,87.1,108.6,87.1,108.5z"/>
	<path fill="#58B7E0" d="M99.6,104C99.6,104,99.6,103.9,99.6,104c-0.1-0.1-0.1-0.1-0.1-0.2c0-0.1,0-0.3-0.1-0.4c0,0,0,0,0,0l0,0
		c0-0.1-0.1-0.2-0.2-0.3c-0.2-0.2-0.5-0.2-0.6,0.1c0,0.2-0.2,0.4-0.2,0.5c0,0.1,0,0.1,0.1,0.2c0,0.2,0.2,0.4,0.4,0.5
		c0.1,0,0.2,0,0.3,0c0,0,0,0,0,0c0.1,0,0.2,0,0.2,0c0,0,0.1,0,0.1,0C99.8,104.4,99.8,104.1,99.6,104z"/>
	<path fill="#58B7E0" d="M105.4,114.5c0-0.5-0.3-0.8-0.7-1c0,0-0.1-0.1-0.1-0.2c-0.4-0.5-1.1-0.6-1.7-0.3s-0.7,1-0.8,1.6
		c0,0,0,0.1,0,0.1c-0.4,1.1,0.4,2.8,1.6,2.3c0.1,0,0.2-0.1,0.3-0.2C104.8,116.4,105.4,115.3,105.4,114.5z"/>
	<path fill="#2A8EC6" d="M87.3,113c-0.3-0.1-0.5-0.3-0.7-0.3c-0.2-0.1-0.4-0.2-0.5-0.3c-0.5-0.3-1.1-0.5-1.7-0.5
		c-0.2,0-0.4,0.1-0.5,0.4c-0.3,1.2-0.1,2.5,0.3,3.7v0c0.1,0.4,0.2,0.7,0.4,0.9c0,0.1,0.1,0.2,0.1,0.3c0.2,0.3,0.4,0.5,0.6,0.7
		c0.2,0.2,0.5,0.4,0.8,0.5c0.1,0.1,0.2,0.1,0.3,0.2c0.1,0.1,0.3,0,0.4,0c0.1,0,0.2-0.1,0.3-0.2c0.1,0,0.2-0.1,0.3-0.1
		c0.3-0.1,0.6-0.4,0.8-0.8C89,116.3,88.6,113.8,87.3,113z"/>
	<path fill="#2A8EC6" d="M88.7,110.9c0.1-0.2,0.1-0.4,0.1-0.6c0-0.2-0.1-0.3-0.3-0.4c-0.1-0.3-0.5-0.5-0.7-0.2
		c-0.2,0-0.4,0.1-0.5,0.3c0,0.1,0,0.2,0,0.3c-0.1,0-0.1,0.1,0,0.2c0,0,0,0.1,0,0.1c-0.1,0.4,0.1,0.8,0.4,1c0.1,0.1,0.3,0.1,0.4,0
		c0,0,0.1,0,0.1-0.1c0.1,0,0.1,0,0.2,0.1C88.8,111.7,89,111.2,88.7,110.9z"/>
	<path fill="#2A8EC6" d="M93.3,124c0,0,0-0.1,0-0.1s0-0.1,0-0.1c-0.6-1.7-3.1-2.9-4.7-2.5c-0.2,0-0.3,0.2-0.3,0.4
		c0,0.5,0.2,0.9,0.5,1.4c0.4,1.3,2.6,2.3,3.9,1.7c0.1,0,0.3,0,0.4-0.1c0.1,0,0.2-0.1,0.3-0.2C93.3,124.2,93.4,124.1,93.3,124z"/>
	<path fill="#2A8EC6" d="M104.8,121.4C104.8,121.3,104.9,121.3,104.8,121.4c0.4-0.6,0.5-1.2,0.5-1.7c0-0.1,0-0.2-0.1-0.3
		c0-0.1,0-0.2,0-0.3v0c0-0.1,0-0.3,0-0.4c0-0.1-0.1-0.3-0.2-0.3c-0.1,0-0.2,0-0.4,0c-0.1-0.1-0.2-0.1-0.4-0.2
		c-1.1-0.4-2.4,0.5-3,1.3c-0.7,0.9-0.7,2.2,0.1,2.9c0.1,0.1,0.1,0.1,0.2,0.2c0.6,0.5,1.7,0.4,2.3-0.1c0.3-0.2,0.5-0.5,0.7-0.8
		C104.7,121.6,104.7,121.5,104.8,121.4z"/>
	<path fill="#2A8EC6" d="M102,103c0-0.2-0.4-0.5-0.5-0.2c0.1-0.1,0,0,0,0s-0.1,0-0.2,0.1l0,0c0,0-0.1,0-0.2,0.1c0,0,0,0-0.1,0h0
		c0,0-0.1,0-0.1,0.1c-0.1,0.1-0.1,0.2-0.1,0.3c0,0.2,0.1,0.4,0.3,0.5c0.1,0,0.3,0,0.4,0.1c0.3,0.2,0.6-0.2,0.5-0.4
		C102,103.3,102,103.1,102,103z"/>
	<path fill="#2A8EC6" d="M105,105.5C105,105.4,105,105.4,105,105.5c-0.2-0.4-0.5-0.5-0.8-0.6c-0.3-0.1-0.6-0.2-0.8-0.3
		c-0.3,0-0.5,0-0.7,0.1c-0.1,0-0.2,0-0.3,0c-0.1,0-0.3,0.2-0.3,0.3c0,0.1,0,0.3-0.1,0.4c-0.1,0.3,0,0.7,0.1,0.9
		c0.5,0.8,1.8,0.9,2.5,0.4c0,0,0,0,0.1,0c0.2,0,0.3-0.1,0.4-0.3C105.2,106.2,105.1,105.8,105,105.5z"/>
	<path fill="#2A8EC6" d="M101.1,105.6c-0.1-0.2-0.3-0.4-0.5-0.4c0,0-0.1-0.1-0.2-0.1c-0.3-0.1-0.7,0.3-0.4,0.5c0,0,0.1,0.1,0.1,0.1
		c0,0,0,0,0,0v0c0,0.3,0.3,0.4,0.5,0.3C100.9,106.3,101.3,106,101.1,105.6z"/>
</g>
<g>
	<circle fill="#2680A8" cx="41.2" cy="110.5" r="10.2"/>
	<path fill="#58B7E0" d="M33.9,110.8c0.1-0.3,0-0.7-0.1-1c-0.1-0.3-0.2-0.5-0.4-0.7c-0.1-0.1-0.2-0.1-0.3-0.1
		c-0.2,0.1-0.4,0.2-0.5,0.3c0,0-0.1,0.1-0.1,0.1c-0.2,0.4-0.3,0.8-0.2,1.3c0,0,0,0,0,0c0,0.2-0.1,0.2,0.1,0.4c0,0,0,0,0.1,0
		c0.2,0.4,0.4,0.8,0.7,0.7c0.1,0,0.2,0,0.3-0.1c0,0,0,0,0-0.1C33.8,111.6,33.9,111.2,33.9,110.8C33.9,110.9,34,110.9,33.9,110.8z"/>
	<path fill="#58B7E0" d="M40.2,103C40.1,103,40.1,103,40.2,103c-0.1-0.1-0.1-0.1-0.1-0.1c0-0.1-0.1-0.2-0.2-0.2c0,0,0,0,0,0l0,0
		c-0.1,0-0.2-0.1-0.2-0.1c-0.2-0.1-0.4,0.1-0.3,0.3c0,0.1,0,0.3,0.1,0.4c0,0.1,0.1,0.1,0.1,0.1c0.1,0.1,0.3,0.1,0.4,0.1
		c0.1,0,0.1,0,0.2-0.1c0,0,0,0,0,0c0.1,0,0.1-0.1,0.1-0.1c0,0,0-0.1,0.1-0.1C40.4,103.2,40.3,103,40.2,103z"/>
	<path fill="#58B7E0" d="M48,107.5c-0.2-0.3-0.5-0.4-0.8-0.4c0,0-0.1-0.1-0.2-0.1c-0.5-0.2-1,0-1.2,0.5c-0.2,0.4-0.1,0.9,0.1,1.3
		c0,0,0,0.1,0,0.1c0.2,0.9,1.3,1.7,1.9,0.8c0.1-0.1,0.1-0.2,0.1-0.3C48.4,109,48.3,108,48,107.5z"/>
	<path fill="#2A8EC6" d="M35.8,113.6c-0.2,0-0.4,0-0.6,0.1c-0.2,0-0.3,0-0.5,0c-0.5,0-0.9,0.1-1.3,0.3c-0.1,0.1-0.2,0.2-0.1,0.4
		c0.3,0.9,0.9,1.7,1.6,2.3l0,0c0.2,0.2,0.4,0.3,0.6,0.4c0.1,0,0.1,0.1,0.2,0.1c0.2,0.1,0.4,0.2,0.7,0.2c0.2,0.1,0.5,0,0.7,0
		c0.1,0,0.2,0,0.3,0c0.1,0,0.2-0.1,0.3-0.2c0-0.1,0.1-0.2,0.1-0.2c0.1-0.1,0.1-0.1,0.1-0.2c0.1-0.2,0.2-0.5,0.2-0.8
		C38.2,115.1,36.9,113.6,35.8,113.6z"/>
	<path fill="#2A8EC6" d="M35.9,111.8c0-0.2-0.1-0.3-0.2-0.4c-0.1-0.1-0.2-0.1-0.3-0.2c-0.2-0.2-0.5-0.1-0.6,0.1
		c-0.1,0-0.2,0.2-0.2,0.4c0,0.1,0,0.1,0.1,0.2c0,0.1,0,0.1,0.1,0.2c0,0,0,0.1,0,0.1c0.1,0.3,0.4,0.4,0.6,0.5c0.1,0,0.3,0,0.3-0.1
		c0,0,0-0.1,0-0.1c0.1,0,0.1,0,0.2,0C36.2,112.3,36.2,111.8,35.9,111.8z"/>
	<path fill="#2A8EC6" d="M44,118.3C43.9,118.3,43.9,118.3,44,118.3c-0.1-0.1-0.1-0.1-0.2-0.1c-1-0.8-3.1-0.6-4,0.3
		c-0.1,0.1-0.1,0.3,0,0.4c0.2,0.3,0.5,0.5,0.8,0.7c0.8,0.7,2.5,0.4,3.2-0.4c0.1-0.1,0.2-0.1,0.2-0.2c0.1-0.1,0.1-0.2,0.1-0.3
		C44.1,118.5,44,118.4,44,118.3z"/>
	<path fill="#2A8EC6" d="M50.3,112.1C50.3,112.1,50.3,112.1,50.3,112.1c0-0.5-0.1-1-0.4-1.3c0-0.1-0.1-0.1-0.2-0.1
		c0-0.1-0.1-0.1-0.1-0.2l0,0c0-0.1-0.1-0.2-0.1-0.3c0-0.1-0.2-0.1-0.3-0.1s-0.1,0.1-0.2,0.1c-0.1,0-0.2,0-0.3,0
		c-0.8,0.2-1.3,1.3-1.4,2c-0.1,0.9,0.4,1.7,1.2,1.8c0.1,0,0.1,0,0.2,0c0.6,0.1,1.2-0.4,1.4-1c0.1-0.3,0.1-0.5,0.2-0.8
		C50.3,112.3,50.3,112.2,50.3,112.1z"/>
	<path fill="#2A8EC6" d="M41.3,101.4c-0.1-0.1-0.4-0.1-0.4,0.1c0-0.1,0,0,0,0c0,0-0.1,0.1-0.1,0.1l0,0c0,0-0.1,0.1-0.1,0.1
		c0,0,0,0,0,0.1l0,0c0,0,0,0.1,0,0.1c0,0.1,0,0.2,0.1,0.2c0.1,0.1,0.2,0.2,0.4,0.2c0.1,0,0.2-0.1,0.3-0.1c0.3,0,0.3-0.3,0.2-0.5
		C41.4,101.6,41.3,101.5,41.3,101.4z"/>
	<path fill="#2A8EC6" d="M44.2,101.9C44.1,101.8,44.1,101.8,44.2,101.9c-0.3-0.1-0.5-0.2-0.7-0.1c-0.2,0-0.5,0.1-0.6,0.1
		c-0.2,0.1-0.3,0.2-0.4,0.3c-0.1,0-0.1,0.1-0.2,0.2c-0.1,0.1-0.1,0.2-0.1,0.3c0,0.1,0.1,0.2,0.1,0.3c0.1,0.2,0.2,0.5,0.5,0.6
		c0.7,0.3,1.5-0.1,1.8-0.7c0,0,0,0,0.1,0c0.1-0.1,0.1-0.2,0.1-0.3C44.6,102.2,44.4,102,44.2,101.9z"/>
	<path fill="#2A8EC6" d="M41.7,103.5c-0.1-0.1-0.3-0.1-0.5,0c0,0-0.1,0-0.2,0c-0.3,0-0.4,0.5,0,0.5c0,0,0.1,0,0.1,0c0,0,0,0,0,0l0,0
		c0.1,0.2,0.3,0.2,0.4,0C41.9,104,42,103.6,41.7,103.5z"/>
</g>
<g>
	<circle fill="#2C6D84" cx="143.9" cy="101.8" r="7.1"/>
	<path fill="#58B7E0" d="M141.6,97.3c0.2,0,0.4-0.2,0.6-0.3c0.1-0.1,0.3-0.3,0.3-0.5c0-0.1,0-0.1,0-0.2c-0.1-0.1-0.2-0.2-0.3-0.2
		c0,0-0.1,0-0.1-0.1c-0.3,0-0.6,0.1-0.9,0.2c0,0,0,0,0,0c-0.1,0.1-0.2,0-0.2,0.1c0,0,0,0,0,0.1c-0.2,0.2-0.4,0.5-0.3,0.7
		c0,0.1,0.1,0.1,0.1,0.1c0,0,0,0,0.1,0C141.1,97.4,141.4,97.4,141.6,97.3C141.6,97.3,141.6,97.3,141.6,97.3z"/>
	<path fill="#58B7E0" d="M148.4,99.1C148.4,99,148.4,99,148.4,99.1c0-0.1,0-0.1,0-0.1c0.1,0,0.1-0.1,0.1-0.2c0,0,0,0,0,0l0,0
		c0-0.1,0-0.1,0-0.2c0-0.2-0.2-0.2-0.3-0.1c-0.1,0.1-0.2,0.1-0.2,0.2c0,0,0,0.1,0,0.1c0,0.1,0,0.2,0,0.3c0,0,0.1,0.1,0.1,0.1
		c0,0,0,0,0,0c0,0,0.1,0.1,0.1,0c0,0,0.1,0,0.1,0C148.3,99.3,148.4,99.2,148.4,99.1z"/>
	<path fill="#58B7E0" d="M147.7,105.3c0.1-0.2,0.1-0.4,0-0.6c0,0,0-0.1,0-0.1c0-0.3-0.3-0.6-0.6-0.6c-0.3,0-0.6,0.2-0.8,0.5
		c0,0,0,0,0,0c-0.5,0.3-0.7,1.3,0,1.4c0.1,0,0.1,0,0.2,0C146.9,106,147.5,105.6,147.7,105.3z"/>
	<path fill="#2A8EC6" d="M140.4,99.3c-0.1-0.1-0.1-0.3-0.2-0.4c0-0.1-0.1-0.2-0.1-0.3c-0.1-0.3-0.3-0.5-0.6-0.7
		c-0.1-0.1-0.2-0.1-0.3,0c-0.5,0.4-0.8,1-1,1.7l0,0c-0.1,0.2-0.1,0.4-0.1,0.5c0,0.1,0,0.1,0,0.2c0,0.2,0,0.3,0.1,0.5
		c0,0.2,0.1,0.3,0.2,0.4c0,0.1,0,0.1,0,0.2c0,0.1,0.1,0.1,0.2,0.1c0.1,0,0.1,0,0.2,0c0.1,0,0.1,0,0.2,0c0.2,0,0.4,0,0.6-0.1
		C140.1,101.1,140.7,100,140.4,99.3z"/>
	<path fill="#2A8EC6" d="M141.6,98.8c0.1-0.1,0.2-0.1,0.2-0.2c0-0.1,0-0.2,0-0.3c0.1-0.2-0.1-0.4-0.2-0.3c-0.1-0.1-0.2-0.1-0.3,0
		c0,0-0.1,0.1-0.1,0.1c-0.1,0-0.1,0-0.1,0.1c0,0,0,0-0.1,0c-0.2,0.1-0.2,0.4-0.2,0.6c0,0.1,0.1,0.2,0.2,0.1c0,0,0.1,0,0.1,0
		c0,0,0,0.1,0.1,0.1C141.4,99.1,141.7,99,141.6,98.8z"/>
	<path fill="#2A8EC6" d="M139.7,105.8C139.7,105.7,139.7,105.7,139.7,105.8c0-0.1,0-0.1,0-0.1c0.2-0.9-0.5-2.2-1.3-2.5
		c-0.1,0-0.2,0-0.3,0.1c-0.1,0.2-0.2,0.5-0.2,0.7c-0.2,0.7,0.4,1.7,1.2,1.9c0.1,0,0.1,0.1,0.2,0.1c0.1,0,0.1,0,0.2,0
		C139.6,105.9,139.6,105.8,139.7,105.8z"/>
	<path fill="#2A8EC6" d="M145.4,108.1C145.4,108.1,145.4,108.1,145.4,108.1c0.3-0.1,0.6-0.3,0.7-0.6c0,0,0-0.1,0-0.1
		c0,0,0.1-0.1,0.1-0.1l0,0c0.1,0,0.1-0.1,0.1-0.2c0,0,0-0.1,0-0.2c-0.1,0-0.1-0.1-0.2-0.1c0-0.1-0.1-0.1-0.1-0.2
		c-0.4-0.5-1.2-0.5-1.7-0.3c-0.6,0.2-1,0.7-0.8,1.3c0,0.1,0,0.1,0,0.1c0.1,0.4,0.6,0.7,1,0.6c0.2,0,0.3,0,0.5-0.1
		C145.3,108.1,145.3,108.1,145.4,108.1z"/>
	<path fill="#2A8EC6" d="M149.7,99.3c0.1-0.1,0-0.3-0.2-0.3c0.1,0,0,0,0,0c0,0-0.1,0-0.1,0l0,0c0,0-0.1,0-0.1,0c0,0,0,0-0.1,0l0,0
		c0,0-0.1,0-0.1,0c-0.1,0-0.1,0.1-0.1,0.1c0,0.1,0,0.2,0,0.3c0,0.1,0.1,0.1,0.1,0.2c0.1,0.2,0.3,0.1,0.3,0
		C149.6,99.5,149.7,99.4,149.7,99.3z"/>
	<path fill="#2A8EC6" d="M150.2,101.3C150.2,101.3,150.2,101.3,150.2,101.3c0-0.2-0.1-0.4-0.1-0.5c-0.1-0.1-0.2-0.3-0.3-0.4
		c-0.1-0.1-0.2-0.1-0.3-0.2c0,0-0.1-0.1-0.1-0.1c-0.1,0-0.2,0-0.2,0c-0.1,0-0.1,0.1-0.2,0.1c-0.1,0.1-0.2,0.3-0.2,0.4
		c0,0.5,0.5,0.9,1,0.9c0,0,0,0,0,0c0.1,0.1,0.2,0,0.2,0C150.1,101.7,150.2,101.5,150.2,101.3z"/>
	<path fill="#2A8EC6" d="M148.5,100.2c0-0.1,0-0.2-0.1-0.3c0,0,0-0.1,0-0.1c-0.1-0.2-0.4-0.1-0.3,0.1c0,0,0,0.1,0,0.1c0,0,0,0,0,0
		l0,0c-0.1,0.1,0,0.3,0.1,0.3C148.3,100.4,148.5,100.4,148.5,100.2z"/>
</g>
</svg>
