<?xml version="1.0" encoding="utf-8"?>
<!-- Generator: Adobe Illustrator 16.0.4, SVG Export Plug-In . SVG Version: 6.00 Build 0)  -->
<!DOCTYPE svg PUBLIC "-//W3C//DTD SVG 1.1//EN" "http://www.w3.org/Graphics/SVG/1.1/DTD/svg11.dtd">
<svg version="1.1" id="Layer_1" xmlns="http://www.w3.org/2000/svg" xmlns:xlink="http://www.w3.org/1999/xlink" x="0px" y="0px"
	 width="668px" height="815.5px" viewBox="-26.5 -23.5 668 815.5" enable-background="new -26.5 -23.5 668 815.5"
	 xml:space="preserve">
<g id="Layer_1_2_" display="none">
	<g id="Layer_1_1_" display="inline">
		<path fill="#FFFFFF" d="M1493.208,1153.152c-1.584,0-1.584,3.168,0,3.168S1494.792,1153.152,1493.208,1153.152z"/>
	</g>
	<g id="Layer_3" display="inline">
		<path fill="#FFFFFF" d="M386.784,776.16c-5.544,0-5.544,8.712,0,8.712S392.328,776.16,386.784,776.16z"/>
		<path fill="#EEEEEE" d="M615.672,1125.432l-0.792-0.792c-1.584-0.792-2.376-0.792-3.96-2.376l0,0l0,0
			c-0.792-0.792-2.376-0.792-3.168-0.792l0,0l0,0c-0.792,0-2.376-0.792-3.168-0.792l0,0c-5.544,0-11.088,1.584-11.88,6.336
			c-1.584,3.168-0.792,7.128,1.584,10.296c0,0,0,0.792,0.792,0.792c0.792,0.793,1.584,0.793,2.376,1.584
			c0.792,0.793,1.584,0.793,2.376,1.584c2.376,2.377,5.544,4.753,7.92,7.129c0,0,0,0,0.792,0l0,0c0.792,1.584,0.792,2.375,0,3.959
			c0,0,0,0-0.792,0.793c-0.792,0.792-1.584,0.792-3.168,0.792s-2.376,0-3.96,0c-0.792-0.792-2.376-0.792-3.168-1.584
			s-1.584-1.584-2.376-3.168c0-0.792,0-1.584,0-2.376s0-1.584-0.792-2.376c-1.584-0.792-3.168-1.584-5.544-1.584
			c-0.792,0-1.584,0.792-1.584,1.584c0,0,0,0,0,0.792c0,1.584,0,3.168,0.792,4.752v0.792c1.584,3.96,4.752,5.544,8.712,7.92h0.792
			c1.584,0.792,3.96,1.584,5.544,1.584c0.792,0,1.584,0,2.376,0l0,0l0,0l0,0c0,0,0,0,0.792,0l0,0c0,0,0.792,0,1.584,0
			c1.584-0.792,3.96-0.792,4.752-2.376c3.168-1.584,4.752-4.752,3.96-7.92c0-0.792,0-0.792,0-1.584
			c-0.792-3.168-3.168-5.544-6.336-7.92l-0.792-0.792c-1.584-0.792-3.168-2.376-4.752-3.168c-0.792-0.792-1.584-0.792-2.376-1.584
			l0,0c-0.792-0.792-1.584-1.584-2.376-2.376c-0.792-0.793-0.792-0.793-0.792-1.584v-0.793c0-0.791,0.792-1.584,0.792-2.375
			c0.792-0.793,2.376-1.584,4.752-0.793c2.376,0.793,7.128,3.168,7.128,5.545c0,0.791,0,0.791,0.792,0.791
			c1.584,0,3.168,0.793,4.752,1.584c0.792,0,2.376,0.793,3.168,0.793l0.792-0.793c0-3.168,0-6.336-2.376-8.712
			C616.464,1127.016,616.464,1126.224,615.672,1125.432z"/>
		<path fill="#EEEEEE" d="M657.648,1172.16c0.791,0,1.584,0,2.376,0l0,0c0.792-2.376,1.584-4.752,1.584-7.128
			c0.792-2.376,0.792-4.752,0.792-7.128c2.376-5.544,0-12.672-4.752-15.84c-3.961-2.376-8.713-0.792-11.881,3.168
			c0-0.792,0-0.792,0-1.584s-0.791-1.584-1.584-1.584c-0.791-0.792-0.791-0.792-1.584-0.792c0,0-0.791-0.792-1.584-0.792
			c-0.791-0.793-2.376-0.793-3.96-0.793h-0.792c-0.791,0-0.791,0-1.584,0.793c-1.584,0-2.376,0.792-3.168,2.376l0,0
			c0-0.792,0-1.584,0-2.376l0,0c0,0,0,0,0-0.793c0-0.792-0.792-0.792-1.584-0.792s-0.792,0-1.584,0h-0.792c-0.792,0-0.792,0-1.584,0
			l0,0l0,0h-0.792v0.792l0,0c0,0.793,0,2.377,0,3.168c-0.791,2.377-0.791,5.545-0.791,7.92c-0.793,4.753-1.584,9.505-2.377,13.465
			c0,1.584,0.792,2.376,2.377,2.376c0.791,0,2.375,0,3.168,0.792c0.791,0.792,1.584,0,1.584-0.792
			c0.791-3.168,1.584-6.336,1.584-9.504c0.791-1.584,0.791-3.168,0.791-5.544c0-0.793,0-0.793,0-2.377
			c0.793-0.791,1.584-2.375,3.168-3.167c0,0,0,0,0.793,0c1.584,0,3.168,0.792,3.959,1.583c0.793,0.793,0.793,1.584,0.793,2.377l0,0
			c0,2.376-0.793,4.752,0,7.128c0,0.792-0.793,2.376-0.793,3.168c0,2.376-1.584,4.752-1.584,7.128c0,3.168,3.961,2.376,6.337,3.168
			c0.792,0,0.792,0,0.792-0.793c0.792-4.752,1.584-8.712,2.376-13.463c0-0.793,0.792-3.168,0.792-4.753c0,0,0,0,0-0.792
			c0.792-2.376,2.376-2.376,4.752-2.376c1.584,0,2.376,1.584,3.168,3.168c0,0,0,0,0,0.792c0,2.376-0.792,3.96-0.792,6.336
			c-0.792,2.376-0.792,4.752-0.792,7.128c0,1.584-0.792,3.168-0.792,3.96c0,0.793,0,0.793,0.792,1.584
			C654.48,1171.368,656.064,1172.16,657.648,1172.16L657.648,1172.16z"/>
		<path fill="#EEEEEE" d="M677.448,1133.352c-0.792-0.791-1.584-0.791-2.376,0c-1.584,0-3.168,0.793-3.96,2.377l0,0
			c-0.792,1.584-0.792,3.168,0.792,4.752c0.792,0.792,2.376,2.376,3.96,1.584l0,0c0.792,0,1.584,0,1.584-0.792l0.792-0.792l0,0
			C679.824,1138.104,679.824,1134.936,677.448,1133.352z"/>
		<path fill="#EEEEEE" d="M678.24,1146.024c0,0,0-0.792-0.792-0.792c-1.584-0.793-3.168,0-4.752-0.793l0,0l0,0l0,0l0,0
			c-0.792,0-0.792,0-0.792,0.793c-0.792,2.375-0.792,4.752-0.792,7.92c0,5.544,0,11.088-0.792,15.84s3.168,3.96,7.128,4.752
			c0.792,0,0.792-0.792,0.792-0.792c0-6.336,0.792-12.672,1.584-19.8C678.24,1150.776,679.032,1148.4,678.24,1146.024z"/>
		<path fill="#EEEEEE" d="M698.04,1168.992l-0.792-0.792l0,0c-0.792,0-2.376-0.792-3.168-0.792c0-3.96,0-7.92,0-11.88
			c0-0.792,0-2.376,0-3.96c0.792,0,2.376,0,3.168,0s0.792,0,0.792-0.793c0-0.791,0.792-2.375,0.792-3.959c0,0,0-0.793-0.792-0.793
			s-1.584,0-2.376,0c0,0-0.792,0-1.584,0c0-2.376,0-4.752,0-7.128c0-0.792,0-0.792-0.792-0.792c-1.584,0-3.168,0-3.96,0
			s-1.584,0-2.376,0.792s0,3.168,0,4.753c0,0.792,0,2.376,0,3.168l0,0c-0.792,0-1.584,0-2.376,0h-0.792c0,0,0,0,0,0.791l0,0l0,0
			c0,0.793,0,2.377,0,3.168c0,0,0,0.793,0.792,0.793s2.376,0,3.168,0l0,0v0.792l0,0l0,0l0,0l0,0c-0.792,3.168,0,6.336,0,9.504
			c0,0,0,0,0,0.792s0,1.584,0,2.376s0,1.584,0,2.376l0,0c0,2.376,1.584,4.752,3.96,5.544c0.792,0,2.376,0.792,3.96,0.792
			c0.792,0,2.376,0,3.168,0h0.792l0,0C698.832,1172.16,698.04,1169.784,698.04,1168.992z"/>
		<path fill="#EEEEEE" d="M729.72,1168.2c0-1.584,0-3.168,0-5.544c0-3.168,0-5.544-0.792-8.712c0-0.792,0-2.376-0.792-3.168
			c0,0,0,0,0-0.792c0-3.168-2.376-4.752-4.752-6.336c-2.376-0.793-4.752-0.793-7.128,0c0,0,0,0-0.792,0
			c-2.376,0.792-4.752,2.376-5.544,4.752c0-1.584,0-3.168-0.792-5.544c0,0,0,0,0-0.792c0-0.793,0-2.377,0-3.168
			c0-0.793,0-2.377,0-3.961c0-0.791,0-0.791-0.792-0.791s-2.376,0-3.168,0.791c-0.792,0-0.792,0-1.584,0s-0.792,0-0.792,0.793
			c0,3.96,0,8.712,0.792,12.672c0,3.168,0,6.336,0.792,9.504c0,0,0,0,0,0.792c0,3.168,0,6.336,0.792,9.504l0,0l0,0l0,0l0,0
			c0,0.792,0,2.376,0,3.96c0,0.792,0.792,0.792,0.792,0.792c1.584,0.792,3.168,0,4.752,0c0,0,0.792,0,0.792-0.792l0.792-0.792
			c0-3.96-0.792-7.128-0.792-11.088v-0.792c0-0.792,0-1.584,0-2.376c0-1.584,0.792-3.96,0.792-5.544
			c1.584-0.792,3.168-1.584,4.752-1.584c2.376,0,3.168,1.584,4.752,3.168c0,2.376,0,3.96,0.792,6.336c0,2.376,0,3.96,0.792,6.336
			c0,2.376,0,3.96,0,5.544l0.792,0.792c2.376,0,3.96,0,6.336,0c0.792,0,0.792,0,0.792-0.792
			C729.72,1169.784,729.72,1168.992,729.72,1168.2z"/>
		<path fill="#EEEEEE" d="M761.4,1156.32c-2.377-5.544-7.92-6.336-13.465-6.336l0,0c-0.791,0-2.375,0-3.959,0
			c-0.793,0-0.793,0-1.584,0c0-0.793-0.793-0.793-0.793-1.584c0,0,0-0.793,0.793-0.793c2.375-2.375,7.127-2.375,8.711,0
			c0.793,0.793,0.793,0.793,1.584,0c1.584,0,3.169,0,4.752-0.791c0,0,0.793,0,0.793-0.793l0,0l0,0c0,0,0,0,0-0.792
			c-0.793-2.376-2.377-3.168-3.961-3.96l0,0c-0.791-0.792-2.375-0.792-3.168-0.792h-0.791c0,0,0,0-0.793,0l0,0l0,0
			c-0.791,0-2.376,0-3.168,0c-3.168,0-7.92,1.584-8.712,3.96c-1.584,1.584-2.376,4.752-1.584,7.128c0,2.376,1.584,4.753,4.752,6.336
			c2.376,0.792,4.753,0.792,7.128,0.792c1.584,0,4.752,0,7.129,0l0,0c0.792,0.793,0.792,0.793,1.584,1.584c0,0.793,0,0.793,0,1.584
			l-0.792,0.793c-3.169,1.584-7.128,2.376-9.505-0.793c0,0-0.791-0.792-0.791,0h-0.793c-0.791,0-2.375,0-3.168,0.793l0,0h-0.791l0,0
			c-0.793,0-0.793,0.792-0.793,1.584c0.793,2.376,2.377,3.168,3.168,3.96c0.793,0.792,1.584,0.792,2.377,0.792
			c5.544,2.376,12.672,0,16.632-3.168l0,0c1.584-0.792,2.376-4.752,1.584-7.128C761.4,1157.112,761.4,1156.32,761.4,1156.32z"/>
		<path fill="#EEEEEE" d="M792.288,1140.48L792.288,1140.48c0-0.793,0-0.793,0-1.584c0,0,0-0.793-0.792-0.793c0,0,0,0,0-0.792
			c-0.792-0.792-0.792-1.584-1.584-2.376c-2.376-3.168-4.752-5.544-8.712-6.336c-3.168,0-7.128,0-9.504,2.376
			c-2.376,0.792-3.96,2.376-5.544,4.752c0,0-0.792,0-0.792,0.792c-0.792,2.377-0.792,4.753-0.792,7.129l0,0
			c0,2.376,0.792,4.752,1.584,7.127v0.793c0.792,0.792,0.792,1.584,1.584,2.376c1.584,2.376,3.168,3.96,6.336,4.752
			c0.792,0,2.376,0.792,3.168,0.792c7.128,0.792,14.256-3.96,15.048-11.088c0,0,0,0,0-0.792
			C793.08,1145.232,793.08,1142.856,792.288,1140.48z M781.992,1152.36c-0.792,0-0.792,0-1.584,0.792
			c-2.376,0-3.96-0.792-5.544-1.584c-0.792-2.376-2.376-3.96-3.168-6.336l0,0c0-0.792,0-2.376,0-3.96c0-0.792,0-1.584,0.792-2.376
			c0.792-0.793,1.584-1.584,2.376-2.377c1.584-0.792,3.168-0.792,4.752-0.792c0.792,0,0.792,0,1.584,0.792
			c0.792,0.793,1.584,2.377,3.168,3.168c0.792,2.377,1.584,4.753,2.376,7.92C785.16,1149.192,783.576,1150.776,781.992,1152.36z"/>
		<path fill="#EEEEEE" d="M827.136,1136.52c0-2.375-2.376-4.752-3.168-6.336c-2.376-3.168-3.168-7.92-6.336-11.088l0,0l0,0
			c-0.792-1.584-2.376-3.168-4.752-3.168c-0.792,0-0.792,0-1.584,0s-0.792,0-1.584,0c-1.584,0-3.168,0.792-4.752,1.584
			c-2.376,1.584-3.96,4.752-4.752,7.128c-0.792-0.792-0.792-1.584-1.584-2.376c0,0-0.792-0.792-0.792,0
			c-0.792,0.792-5.544,1.584-5.544,3.168s1.584,3.168,2.376,3.96c0.792,1.584,2.376,3.168,3.168,5.544v0.792
			c2.376,3.96,3.96,7.128,6.336,11.089l0,0c0,0.791,0.792,1.584,0.792,2.375c0,0.793,0.792,0.793,0.792,0
			c1.584-0.791,3.168-1.584,4.752-2.375c0.792,0,0.792-0.793,0-1.584v-0.793c0,0,0,0,0-0.792c-1.584-3.168-3.168-7.92-5.544-11.088
			c-0.792-0.792-0.792-2.376-2.376-3.96v-0.792c0-0.792,0-0.792,0-1.584s0.792-1.584,0.792-2.376l0.792-0.792l0,0
			c1.584-0.792,3.168-2.376,4.752-0.792c0.792,0,0.792,0.792,1.584,0.792l0,0l0,0c0.792,1.584,2.376,3.168,3.168,5.544
			c0,0.792,0,0.792,0.792,0.792c0.792,0.792,0.792,1.584,1.584,2.376c0.792,1.584,0.792,2.376,2.376,3.96
			c0.792,0.792,0.792,3.168,2.376,3.96l0,0h0.792c0.792,0,0.792,0,1.584-0.792s2.376-1.584,3.168-2.376
			C826.344,1137.312,826.344,1136.52,827.136,1136.52L827.136,1136.52z"/>
		<path fill="#EEEEEE" d="M820.8,1096.92c-0.792-1.584-3.168-2.376-4.752-2.376c-0.792,0-1.584,0.792-2.376,2.376
			c-0.792,3.168,0,7.128,3.168,7.128c1.584,0,3.168-0.792,4.752-2.376C822.384,1100.088,821.592,1098.504,820.8,1096.92z"/>
		<path fill="#EEEEEE" d="M840.6,1127.016c-2.376-3.168-4.752-7.128-7.128-11.088c-0.792-0.792-0.792-2.376-1.584-3.168l0,0l0,0
			c-0.792-1.584-2.376-3.168-3.168-4.752c-0.792-0.792-2.376-2.376-3.168-3.96c0,0-0.792,0-0.792,0.792
			c-1.584,0-3.168,2.376-4.752,2.376c0,0-0.792,0.792,0,0.792c0.792,0.793,1.584,1.584,2.376,2.377
			c0.792,2.375,2.376,3.959,3.96,5.543l0,0l0,0l0,0c1.584,3.168,3.96,6.337,6.336,8.713c0.792,0.792,0.792,1.584,1.584,2.376
			c0,0.792,0.792,0.792,0.792,1.584s0.792,0.792,1.584,0C837.432,1130.184,838.224,1128.6,840.6,1127.016
			C840.6,1127.808,840.6,1127.016,840.6,1127.016z"/>
		<path fill="#EEEEEE" d="M866.736,1106.424c-0.792,0-1.584,0-2.376-0.792l0,0l0,0c-1.584-1.584-2.376-3.96-3.96-5.544
			c-0.792-0.792-1.584-2.376-3.168-3.168l0,0c-0.793-0.792-1.584-2.376-2.377-3.168l0,0c-0.791-0.792-1.584-1.584-2.375-2.376l0,0
			c-1.584-0.792-3.169-0.792-4.753-0.792c-0.792,0-2.376,0.792-3.168,0.792c-1.584,0.792-3.96,1.584-5.544,3.168
			c-3.96,3.168-4.752,7.92-3.168,12.672c0,0,0,0,0,0.792l0,0c0,0.792,0.792,0,0.792,0s0.792,0,0.792-0.792
			c0.792-0.792,1.584-0.792,2.376-2.376c0,0,0,0,0.792,0l0,0l0.792-0.792l0,0c0-0.792-0.792-1.584-0.792-2.376s0-1.584,0.792-2.376
			s1.584-1.584,2.376-2.376c1.584-0.792,3.168-0.792,4.752,0c0,0.792,0,1.584,0,2.376c-2.376,2.376-3.96,4.752-5.544,7.128l0,0
			c-1.584,2.376-3.168,5.544-1.584,7.92c0.792,1.584,1.584,3.168,2.376,3.96c0.793,0.792,2.377,2.376,3.961,2.376c0,0,0,0,0.791,0
			c2.377,0.792,4.752-0.792,7.129-2.376c1.584-1.584,2.376-3.168,3.168-4.752c0-0.792,0.792-2.376,0.792-3.96l0,0l0,0
			c0,0.792,0.792,1.584,1.584,1.584s2.376-0.792,3.168-1.584s2.376-1.584,3.168-2.376L866.736,1106.424z M853.271,1112.76
			L853.271,1112.76c-0.791,0.792-2.375,1.584-3.168,1.584c-0.791,0-0.791,0-1.584-0.792c-0.791-0.792-0.791-0.792-1.584-1.584
			c0-2.376,0.793-3.96,1.584-5.544c0,0,0,0,0.793-0.792l0,0c0.791-0.792,0.791-0.792,1.584-1.584l0,0
			c0.791-0.792,0.791-1.584,0.791-2.376c0.793,0.792,1.584,1.584,2.377,2.376l0,0c0,0.792,0.791,2.376,0.791,3.168l0,0
			C855.648,1108.8,854.856,1110.384,853.271,1112.76z"/>
		<path fill="#EEEEEE" d="M890.496,1083.456c-0.792-0.792-0.792-1.584-1.584-2.376c-0.792-2.376-3.96-4.752-6.336-6.336
			c-0.792-0.792-2.376-2.376-3.96-3.168c-2.376-2.376-5.544-4.752-8.712-3.96c0,0,0,0-0.792,0s-0.792,0-1.584,0.792l0,0
			c-4.752,1.584-7.92,6.336-7.128,11.088c-0.792-0.792-1.584-1.584-2.376-1.584c-1.584,0-3.96,2.376-4.752,3.96
			c0,0-0.792,0.792,0,0.792c0.792,0.792,2.376,2.376,3.168,3.168c2.376,2.376,3.96,3.96,5.544,6.336l0,0l0,0
			c0.792,1.584,2.376,3.168,4.752,3.96c1.584,1.584,3.168,3.96,4.752,4.752h0.792c0.792-1.584,5.544-3.168,3.96-5.544
			c-0.792-0.792-2.376-1.584-3.168-2.376l0,0c-1.584-1.584-2.376-3.168-4.752-3.96l-0.792-0.792l-0.792-0.792l0,0
			c-0.792-0.792-0.792-1.584-1.584-2.376l0,0c-0.792-0.792-0.792-2.376-0.792-3.96c0-2.376,0.792-3.96,3.168-4.752
			c0.792-0.792,3.168,0,4.752,0.792l0,0c0.792,0.792,1.584,0.792,2.376,2.376c1.584,1.584,3.168,3.168,4.752,4.752
			c1.584,2.376,3.168,3.96,4.752,5.544c0,0,0.792,0.792,0.792,0C887.328,1086.624,888.912,1085.04,890.496,1083.456
			C890.496,1084.248,890.496,1083.456,890.496,1083.456z"/>
		<path fill="#EEEEEE" d="M577.656,1185.624c-0.792,0-0.792,0.792-0.792,0.792s0,0.792,0.792,0.792
			c1.584,0.792,3.168,0.792,4.752,0.792h0.792h0.792c0,0,0,0,0.792-0.792c0-0.792,0.792-0.792,0.792-1.584
			c0.792,0,2.376-0.792,3.168-0.792c1.584,0,3.168,0.792,4.752,1.584c0,0.792,0.792,1.584,0.792,2.376v0.792
			c-3.96,3.168-15.84-2.376-17.424,3.168c-0.792,0.792-1.584,1.584-2.376,3.168c-0.792,2.376-0.792,5.544,0.792,7.128
			c1.584,5.544,10.296,5.544,15.048,2.376c0,0.792-0.792,1.584,0,2.376c0,0,0,0.792,0.792,0.792l0,0c0,0,0,0.792,0.792,0.792
			s0.792,0,1.584,0l0,0c0.792,0,2.376,0.792,3.168,0.792s1.584,0,0.792-0.792c0-0.792-0.792-1.584-0.792-2.376l0,0
			c0.792-1.584,0.792-3.168,1.584-4.752l0,0c0.792-1.584,0.792-3.168,0.792-3.96c0-1.584,0.792-2.376,1.584-3.96l0,0l0,0l0,0
			c0,0,0,0,0-0.792c0.792-1.584,0.792-3.168,0.792-4.752l0,0C600.624,1180.08,580.032,1176.12,577.656,1185.624z M591.912,1198.296
			c0,0.792-0.792,1.584-0.792,2.376s-0.792,0.792-0.792,2.376c-0.792,0-1.584,0.792-2.376,0.792
			c-2.376,0.792-4.752,0.792-6.336-0.792c0-0.792-0.792-0.792-0.792-1.584s0-1.584,0.792-2.376s0.792-0.792,1.584-1.584
			c1.584-0.792,3.96,0,5.544,0s3.168,0,4.752,0C592.704,1197.504,591.912,1198.296,591.912,1198.296L591.912,1198.296z"/>
		<path fill="#EEEEEE" d="M630.72,1207.008c0.792-3.168,1.584-7.128,1.584-11.088c0,0,0,0,0-0.792l0,0
			c-0.792-3.168-4.752-6.336-8.712-6.336c-0.792,0-2.376,0-3.168,0c0,0,0,0-0.792,0l0,0l0,0l0,0
			c-0.792,0.792-2.376,0.792-3.168,2.376l0,0l0,0l0,0c0-0.792,0-1.584,0-3.168l0,0l0,0c0-0.792-0.792-0.792-0.792-0.792
			s-0.792-0.792-0.792,0c-0.792,0-2.376,0-3.168,0h-0.792c0,0,0,0-0.792,0s0,0.792,0,0.792c-0.792,3.168-0.792,5.544-1.584,8.712
			v0.792c0,1.584-0.792,3.168-0.792,4.752c0,2.376-0.792,3.96-1.584,5.544c0,0.792-2.376,4.752,0,5.544
			c1.584,0.792,4.752,2.376,5.544,0.792c0.792-0.792,0.792-1.584,0.792-2.376c0-3.168,0.792-6.336,1.584-9.504
			c0-0.792,0.792-2.376,0.792-3.168c0.792-0.792,1.584-2.376,2.376-3.168c2.376-0.792,5.544-0.792,7.128,0.792
			c0,0.792,0.792,2.376,0.792,3.168c0,1.584,0,2.376-0.792,3.96c0,0.793,0,1.584,0,2.377c-0.792,3.168-1.584,7.127-2.376,11.088
			c0,0.792,0,0.792,0.792,0.792c2.376,0,3.168,0.792,5.544,0.792c0.792,0,0.792-0.792,0.792-0.792c0-0.792,0-2.376,0-3.168
			C629.928,1211.76,629.928,1209.384,630.72,1207.008z"/>
		<path fill="#EEEEEE" d="M666.36,1186.416c0-0.792-0.792-1.584-2.376-1.584c-0.792,0-2.377-0.792-3.961-0.792
			c0,0-0.791,0-0.791,0.792l0,0c0,1.584,0,3.168,0,4.752c0,0.792,0,0.792,0,2.376s-0.793,3.168-0.793,4.752v0.792l0,0l0,0
			c-0.791-0.792-0.791-1.584-2.375-2.376l0,0l0,0l0,0l0,0c-1.584-1.584-4.752-2.376-7.129-1.584c-0.792,0-2.376,0.792-3.96,1.584
			s-3.168,1.584-4.752,3.168c-1.584,2.376-3.168,5.544-3.168,8.712c0,0.793,0,2.377,0,3.961c0,3.167,2.376,6.336,4.752,7.92
			c0.792,0.792,2.376,2.376,3.96,2.376l0,0c0.792,0,2.376,0.792,3.168,0.792c1.584,0,3.168,0,3.961-0.792
			c1.584-0.792,2.375-1.584,3.959-3.168c0,0.792,0,1.584,0,2.376s0,1.584,0.793,1.584c1.584,0,3.168,0,5.543,0
			c0,0,0.793,0,0.793-0.792c0-1.584,0.791-3.168,0.791-4.753v-0.792c0.793-3.168,0.793-7.92,0.793-11.88l0,0l0,0l0,0l0,0
			c0-3.168,0.791-5.544,0.791-8.712v-0.792l0,0c0.793-2.376,0.793-4.752,0.793-6.336C666.36,1188,667.152,1186.416,666.36,1186.416z
			 M656.064,1210.176c0,0.792,0,0.792,0,1.584s-0.793,1.584-0.793,2.376l0,0l-0.791,0.792c-0.793,0-1.584,0.792-2.377,0.792
			c-1.584,0-2.376-0.792-3.96-0.792c0,0-0.792,0-0.792-0.792l-0.791-0.792c0-1.584-0.793-2.376-0.793-3.96c0-0.792,0-2.376,0-3.168
			c0-1.584,0.793-2.376,0.793-3.96c0.791-0.792,2.375-2.376,3.168-3.168c1.584,0,3.959-0.792,5.543,0l0,0l0.793,0.792l0,0
			c0,2.376,0.791,4.752,0.791,7.92C656.064,1209.384,656.064,1209.384,656.064,1210.176z"/>
		<path fill="#EEEEEE" d="M717.048,1208.592c0-1.584-1.584-3.168-3.168-4.752c-0.792-0.792-2.376-1.584-3.96-2.376
			c-0.792-0.792-2.376-0.792-3.96-0.792c-3.96-0.792-8.712-1.584-12.672-3.96c0,0-0.792-0.792-0.792-1.584l0,0
			c0.792-0.792,0.792-2.376,2.376-3.168l0,0c3.96-0.792,7.92-1.584,11.88,0.792v0.792v0.792c0,0,0,0.792,0.792,0.792v0.792
			c0,0.792,0.792,0.792,0.792,0.792c1.584,0,3.168,0,4.752,0c0.792,0,0.792-0.792,0.792-0.792c0-1.584-0.792-3.96-1.584-4.752l0,0
			l0,0l0,0l-0.792-0.792c-0.792-0.792-1.584-0.792-2.376-1.584s-2.376-0.792-3.168-1.584c-0.792,0-1.584,0-2.376,0
			c-1.584,0-3.168,0-4.752-0.792c0,0,0,0-0.792,0c-1.584,0-3.168,0.792-4.752,0.792c-3.168,0.792-6.336,4.752-7.128,7.92
			c-0.792,1.584-0.792,3.168,0,4.752l0,0c0,3.96,2.376,5.544,5.544,7.128c4.752,2.377,9.504,2.377,15.048,3.961
			c0.792,0.791,2.376,1.583,3.168,3.167c0,0.792,0,0.792,0,1.584c-0.792,1.584-1.584,2.376-3.168,3.96
			c-2.376,0-4.752,0.793-7.128,0.793c-0.792,0-1.584-0.793-2.376-0.793c-2.376-0.792-2.376-3.168-3.168-4.752h-0.792
			c-2.376,0-3.96,0-5.544,0c-0.792,0-0.792,0.792-0.792,0.792c0,0.792,0,0.792,0,1.584l0,0l0,0c0,1.584,0.792,3.168,2.376,4.753l0,0
			l0,0l0,0l0,0c0.792,0.791,1.584,1.584,2.376,1.584c0,0,0,0,0,0.791c4.752,3.168,11.88,2.377,17.424,0.793
			c0.792,0,2.376-0.793,3.168-0.793c1.584,0,3.168-0.791,3.168-2.375c0.792-0.793,0.792-1.584,1.584-2.377
			c0.792-1.584,0.792-3.168,0.792-5.544C717.048,1210.968,717.048,1210.176,717.048,1208.592
			C717.048,1209.384,717.048,1209.384,717.048,1208.592z"/>
		<path fill="#EEEEEE" d="M749.52,1209.384L749.52,1209.384c0-3.168,0-7.128-1.584-10.296c0-0.792-0.791-1.584-1.584-3.168
			c-0.791-1.584-2.375-3.168-4.752-3.96c0,0,0,0-0.791,0l0,0c-0.793-0.792-1.584-0.792-3.169-0.792c-0.792,0-0.792,0-0.792,0.792
			c-3.168,0-7.128,1.584-9.504,4.752c0-0.792,0-1.584,0-2.376c0,0,0-0.792-0.792-0.792c0-0.792-0.792-0.792-0.792-0.792
			c-0.792,0-2.376,0.792-3.168,0.792l0,0l0,0H721.8c0,0-0.792,0-0.792,0.792c0,0,0,0,0,0.792c0,2.376,0.792,4.752,1.584,7.128
			c0,0.792,0,2.376,0,3.96c0.792,3.96,0.792,7.92,2.376,11.88c0,0.792,0,2.376,0,3.168c0,2.376,0,4.752,0.792,7.92l0,0
			c0,0.793,0,1.584,0,2.377c0,0,0,0.791,0.792,0.791h0.792c1.584,0,3.168,0,4.752,0c0.792,0,0.792,0,0.792-0.791
			c0-0.793,0-2.377-0.792-3.168c0,0,0,0,0-0.793c0-3.168-0.792-6.336-1.584-9.504c1.584,1.584,3.961,2.376,5.544,2.376
			c1.584,0,3.169,0,3.96-0.792c2.377,0,4.752-2.376,5.545-3.96c0.791-1.584,2.375-3.96,2.375-6.336
			C749.52,1210.176,749.52,1209.384,749.52,1209.384z M742.392,1208.592c0,0.792-0.792,2.376-0.792,3.168s-0.792,0.792-0.792,0.792
			s-0.792,0-0.792,0.792c0,0,0,0-0.792,0.792c-2.376,0.792-4.752,0-6.336,0l-0.792-0.792c-0.792-0.792-1.584-2.376-2.376-3.168
			c0-0.792,0-1.584,0-2.376v-0.792c0-0.792,0-2.376,0-3.96c0.792-1.584,1.584-2.376,2.376-3.96l0,0
			c2.376-0.792,4.752-0.792,6.336-0.792l0,0c0.792,0.792,1.584,2.376,2.377,3.168c0,0.792,0.791,0.792,0.791,1.584s0,0.792,0,1.584
			C742.392,1205.424,742.392,1207.008,742.392,1208.592z"/>
		<path fill="#EEEEEE" d="M782.784,1209.384c-0.792,0-0.792-0.792-1.584-0.792c0-0.792-0.792-1.584-0.792-2.376l0,0
			c0-1.584-0.792-2.376-0.792-3.96c-0.792-3.168-0.792-6.336-2.376-9.504v-0.792c0-1.584-0.792-3.168-2.376-3.96l0,0l0,0l0,0
			c0,0,0,0-0.792,0c-1.584-0.792-2.376-1.584-3.96-1.584h-0.792c-4.752-0.792-11.088,0.792-13.464,5.544
			c-0.792,1.584-1.584,3.168-1.584,4.752c0,0.792,0,1.584,0,2.376l0,0l0,0c0,0,0,0.792,0.792,0c0.792,0,0.792,0,1.584-0.792
			c0,0,0,0,0.791,0h0.793c0,0,1.584,0,2.376-0.792s0.792-0.792,0.792-1.584l0,0l0,0c0-2.376,4.752-3.168,7.128-3.168
			c0.792,0,0.792,0.792,1.584,0.792l0.792,0.792c0,0.792,0,0.792,0,1.584l0,0c0,0.792-0.792,0.792-0.792,1.584
			c-2.376,0.792-5.544,1.584-7.92,3.168s-4.753,3.168-4.753,6.336c0,1.584,0,3.168,0.793,3.96c0,1.584,1.584,3.168,3.168,3.96
			c1.584,1.584,3.96,2.376,6.336,1.584l0,0c3.96,0.792,6.336-2.376,7.92-5.544l0,0c0-0.792,0.792-0.792,0.792-1.584l0,0
			c0,0.792,0.792,2.376,0.792,3.168c0,0,0.792,0.792,0.792,0c0.792-0.792,2.376-0.792,3.96-0.792l0,0
			C781.2,1210.968,781.992,1210.176,782.784,1209.384C782.784,1210.176,782.784,1209.384,782.784,1209.384z M769.32,1208.592
			c-0.792,0.792-2.376,0.792-3.168,1.584c0,0,0,0-0.792,0c-2.376,0-2.376-3.168-3.168-4.752c1.584-0.792,3.168-2.376,5.544-3.96
			c1.584-0.792,2.376-0.792,3.96-2.376c0,0.792,0,0.792,0.792,1.584c0,0.792,0,1.584,0.792,2.376
			C771.696,1205.424,770.904,1207.008,769.32,1208.592z"/>
		<path fill="#EEEEEE" d="M809.712,1197.504c0-0.792,0-1.584,0-2.376c0-1.584-0.792-3.168-0.792-5.544l0,0
			c-1.584,0.792-3.168,1.584-4.752,3.168l0,0c0,0.792,0,2.376,0,3.168l0,0l0,0c-0.792,0.792-1.584,2.376-2.376,3.168
			c-2.376,0.792-3.96,0-5.544-0.792c0,0,0,0-0.792,0c-0.792-0.792-1.584-2.376-2.376-3.168c-0.792-2.376-0.792-3.96-0.792-6.336
			c0-0.792,0-2.376,0.792-3.96c0-0.792,0.792-0.792,0.792-1.584c2.376-0.792,4.752-1.584,7.128,0c0,0,0,0,0,0.792
			c0.792,0.792,1.584,1.584,2.376,1.584s0.792-0.792,1.584-0.792c0.792-0.792,2.376-0.792,3.168-1.584c0.792,0,0.792-0.792,0-1.584
			l0,0c-0.792-0.792-1.584-1.584-2.376-2.376l0,0l0,0c-0.792-0.792-2.376-1.584-3.168-2.376c-0.792,0-1.584-0.792-2.376-0.792
			h-0.792h-0.792c-0.792,0-0.792,0-0.792,0l0,0h-0.792c-2.376,0-5.544,0.792-5.544,2.376c-0.792,0.792-1.584,1.584-2.376,2.376
			c0,0,0,0-0.792,0c0,0.792-0.792,0.792-0.792,1.584l0,0c-0.792,0.792-0.792,2.376-1.584,3.96c0,1.584,0,3.168,0.792,5.544
			c0,2.376,0.792,3.96,2.376,5.544c0.792,2.376,2.376,3.96,4.752,5.544l0.792,0.792c0,0,0,0.792,0.792,0.792l0,0
			c0.792,0.792,1.584,0.792,2.376,0.792c2.376,0.792,5.544,0,7.128-0.792c0,0,0,0,0.792,0c0.792-0.792,2.376-0.792,3.168-1.584
			l0.792-0.792h0.792C807.336,1200.672,808.128,1199.088,809.712,1197.504L809.712,1197.504z"/>
		<path fill="#EEEEEE" d="M839.016,1179.288c0-0.792-0.792-0.792-0.792-0.792c-1.584,0-2.376,0.792-3.168,0.792l0,0
			c-0.792,0-1.584,0.792-1.584,1.584c0,0-0.792,0-0.792,0.792v0.792c0,0.792,0,0.792,0,1.584c-1.584,2.376-4.752,3.168-7.128,3.96
			l0,0c-0.792,0-2.376-0.792-3.168-0.792c-0.792-0.792-1.584-2.376-2.376-3.168c0.792-0.792,2.376-0.792,3.96-1.584
			c3.168-0.792,5.544-2.376,8.712-4.752c1.584-0.792,3.96-1.584,5.544-2.376c0.792,0,0.792-0.792,0.792-1.584c0,0,0,0-0.792-0.792
			c-0.792-3.168-3.96-6.336-7.128-7.128l0,0c-1.584-0.792-3.168-0.792-4.752-0.792c-3.168-0.792-6.336,0-8.712,1.584l0,0
			c-4.752,3.168-6.336,8.712-5.544,14.256c0,1.584,0,2.376,0.792,3.96c0,2.376,1.584,3.96,3.168,5.544l0,0
			c2.376,2.376,4.752,3.96,7.128,3.96C830.304,1195.92,841.392,1189.584,839.016,1179.288z M816.048,1177.704
			c0-1.584,0.792-3.168,1.584-4.752l0.792-0.792c0.792-0.792,1.584-0.792,2.376-0.792l0,0c2.376-0.792,4.752,0.792,6.336,2.376l0,0
			v0.792c-3.96,1.584-7.92,3.168-11.88,5.544C816.84,1178.496,816.048,1177.704,816.048,1177.704z"/>
		<path fill="#EEEEEE" d="M887.328,1145.232C887.328,1145.232,886.536,1145.232,887.328,1145.232
			c-3.168-5.544-5.544-10.297-9.504-14.256l0,0c-2.376-3.168-4.752-5.545-7.128-9.505c-1.584,0.792-3.168,1.584-3.96,2.376
			c-1.584,0.793-3.168,1.584-4.752,3.168l-0.792,0.793l0,0l0,0c0,0,0,0,0,0.791l0,0l0,0l0,0c1.584,7.921,5.544,15.841,9.504,22.969
			c-5.544-6.336-13.464-11.88-20.593-15.84l0,0c0,0,0,0-0.791,0l0,0c0-0.793-0.793,0-1.584,0c-2.377,2.376-4.752,3.96-7.129,5.544
			l0,0c-0.791,0-0.791,0-0.791,0.792s0,0.792,0.791,0.792l0,0l0,0c0.793,0.792,0.793,0.792,1.584,1.584
			c0.793,0.792,1.584,2.376,2.377,3.168c1.584,2.376,3.168,3.96,4.752,5.544c0,0,0,0,0,0.792l0,0l0,0l0,0
			c2.376,2.376,3.96,5.544,6.336,7.92c0.792,0.792,1.584,2.376,2.376,3.168c0,0,0,0.792,0.792,0.792l0,0
			c0.792,1.584,1.584,3.168,2.376,4.752c0,0,0.792,0.792,1.584,0c1.584-0.792,2.376-1.584,4.752-2.376l0.792-0.792
			c0-0.792,0-0.792-0.792-1.584v-0.792c-0.792-1.584-2.376-2.376-3.168-3.96c0-0.792-0.792-0.792-1.584-1.584
			c-0.792-1.584-1.584-2.376-3.168-3.96c-2.376-3.168-3.96-7.128-6.336-9.504l0,0l0,0l0,0l0,0c3.168,3.168,7.128,5.544,11.088,8.712
			l0,0c1.584,1.584,3.168,3.168,4.752,4.752c0.792,1.584,2.376,2.376,3.96,3.168l0.792,0.792c0.792-0.792,1.584-1.584,2.376-2.376
			s2.376-1.584,3.168-2.376c0-0.792,0-0.792-0.792-1.584c0,0,0-0.792-0.792-0.792c-0.792-0.792-0.792-2.376-1.584-3.168
			c-0.792-3.96-2.376-7.128-4.752-11.088c-0.792-2.376-2.376-5.544-3.168-7.92l0,0c0-0.792,3.168,2.376,3.168,2.376l0,0
			c0.792,0.792,0.792,1.584,1.584,2.376l0.792,0.792c0.792,0.792,1.584,1.584,2.376,3.168c2.376,3.96,4.752,7.92,7.92,11.088h0.792
			C894.456,1152.36,892.08,1150.776,887.328,1145.232z"/>
		<path fill="#EEEEEE" d="M917.424,1128.6c-0.792-0.792-1.584-1.584-2.376-2.376l0,0c-3.168-3.96-7.128-7.92-10.296-11.88
			c-0.792-0.792-1.584-1.584-2.376-2.376l0,0l0,0l0,0c-0.792-0.792-1.584-2.376-2.376-3.168c0-0.792-0.792-0.792-0.792-1.584
			c-0.792,0.792-1.584,1.584-2.376,2.376l-0.792,0.792l0,0c0,0,0,0,0,0.792c0.792,0.793,0.792,0.793,1.584,1.584l0,0
			c0.792,1.584,1.584,3.168,3.168,4.752c0.792,0.793,1.584,1.584,2.376,2.377c0.792,0.792,1.584,2.376,2.376,3.168
			c0,0,0,0.791,0.792,0.791c0,0.793,0.792,0.793,0.792,1.584l0,0l0,0c0,2.377,0.792,3.961,0,6.337
			c-0.792,0.792-1.584,0.792-2.376,1.584c-1.584-0.792-3.168-1.584-4.752-3.168c-0.792-1.584-2.376-2.376-3.168-3.96
			c-2.376-2.377-4.752-5.544-7.128-7.92h-0.792c-1.584,0.792-3.96,2.376-4.752,4.752c0,0.792,0,0.792,0.792,0.792
			c1.584,3.168,4.752,5.544,7.128,7.92c2.376,3.168,4.752,6.336,7.92,7.92l0,0c0.792,0.792,2.376,0.792,3.168,0.792
			c2.376,0,3.96-0.792,4.752-2.376h0.792c1.584-1.584,2.376-3.168,2.376-5.544c0.792-1.584,0.792-3.168,0-4.752l0,0
			c0.792,0.792,2.376,1.584,3.168,2.376h0.792c0.792-0.792,3.168-1.584,3.96-3.168l0,0
			C917.424,1129.393,917.424,1129.393,917.424,1128.6z"/>
		<path fill="#EEEEEE" d="M934.848,1099.296c-2.376-2.376-3.96-2.376-6.336-2.376c-0.792,0-2.376,0-3.96,0.792c0,0,0,0-0.792,0.792
			c-0.792,0-1.584,0.792-2.376,1.584l0,0l-0.792,0.792l-0.792,0.792c-0.792,0-0.792,0-1.584,0.792c-0.792,0-2.376,0.792-3.168,0.792
			l0,0c0,0,0-0.792-0.792-0.792c0-0.792,0-1.584,0-2.376v-0.792c0,0,0.792-0.792,0.792-1.584c0.792-0.792,2.376-2.376,3.96-2.376
			l0,0h0.792l0,0c0,0,0.792,0,0.792,0.792h0.792c0.792-1.584,2.376-2.376,3.168-3.168v-0.792c-0.792-0.792-2.376-0.792-3.168-1.584
			c-1.584-0.792-3.168-0.792-4.752,0c-2.376,0.792-3.96,1.584-5.544,3.168s-4.752,3.96-4.752,7.128
			c-0.792,1.584-0.792,3.168,0,4.752l0,0v0.792v0.793c0.792,1.584,1.584,2.375,3.168,3.959c0,0,0,0,0.792,0
			c0.792,0.793,2.376,0.793,3.96,0.793h0.792c1.584,0,3.168-0.793,4.752-1.584c0.792-0.793,5.544-4.752,8.712-5.545
			c0,0,0.792,0,0.792,0.793c0,0.792,0,0.792,0,1.584l0,0c0,0.792,0,1.584-0.792,2.376l0,0l0,0c-0.792,0.792-2.376,2.376-3.96,3.168
			c-0.792,0.792-2.376,0.792-3.96,0c-0.792,0-0.792,0-1.584,0c-0.792,1.584-2.376,2.376-3.168,3.96c0,0,0,0.792,0,1.584
			c5.544,7.128,13.464,0,17.424-5.544l0,0c0.792-1.584,1.584-3.168,1.584-4.753l0,0c0,0,0,0,0-0.791
			C937.224,1104.048,937.224,1101.672,934.848,1099.296z"/>
		<path fill="#EEEEEE" d="M955.44,1074.744c0-0.792-0.792-0.792-0.792-0.792h-0.792c-0.792,0.792-2.376,2.376-2.376,3.96
			l-0.793,0.792v0.792l0,0l0,0v0.792c-0.791,0.792-0.791,2.376-0.791,3.168c-0.793,0.792-1.584,1.584-3.168,2.376
			c-0.793,0-0.793,0.792-1.584,0.792c-2.377,0-3.961-0.792-6.337-1.584c0,0,0-0.792,0.792-0.792c1.584-2.376,3.168-3.96,4.752-6.336
			c1.584-1.584,2.377-3.168,3.961-5.544c0,0,0,0,0.791-0.792l0.793-0.792c0,0,0-0.792,0.791-0.792c0.793,0,1.584-0.792,0.793-1.584
			c0-0.792-0.793-0.792-0.793-1.584c-0.791-0.792-1.584-0.792-3.168-1.584l0,0c-0.792-0.792-2.376-1.584-3.168-1.584
			c-3.168-1.584-10.296,0.792-12.672,4.752c-0.792,0.792-0.792,1.584-1.584,2.376c0,0,0,0-0.792,0
			c-2.376,2.376-3.96,7.128-1.584,10.296c0.792,2.376,2.376,4.752,4.752,6.336c2.376,3.168,7.128,5.544,11.089,5.544h0.791
			c3.961,0,6.336-2.376,8.713-4.752c0.791-0.792,1.584-2.376,2.376-3.168c0,0,0.792-0.792,0.792-1.584
			c0.791-0.792,0.791-1.584,0.791-2.376c0,0,0.793,0,0.793-0.792C957.023,1080.288,956.232,1077.912,955.44,1074.744z
			 M932.472,1081.08c0-0.792,0-0.792,0-1.584l0,0l0,0c0.792-1.584,0.792-2.376,1.584-3.96c0,0,0,0,0.792,0
			c1.584-0.792,3.168-0.792,5.544-0.792l0,0c0.792,0,0.792,0.792,1.584,0.792c-2.376,3.168-5.544,6.336-7.92,9.504
			C934.056,1083.456,934.056,1081.872,932.472,1081.08z"/>
		<path fill="#EEEEEE" d="M976.824,1051.776c-7.128-4.753-14.256-10.296-22.176-13.464c0-0.793-0.793-0.793-1.584-0.793l0,0l0,0l0,0
			l0,0c-0.793,0.793-1.584,2.377-2.377,3.168l-0.791,0.793v0.792c0,0-0.793,0.792,0,0.792c0.791,0,0.791,0.792,1.584,0.792l0,0l0,0
			l0,0l0,0c3.168,2.376,7.127,4.752,10.296,7.128c2.376,0.792,3.168,2.376,4.752,4.752c0,1.584-0.792,2.376-0.792,3.96
			c-0.792,0.792-2.376,1.584-3.168,2.376c-0.792,0-1.584-0.792-2.377-0.792c-0.791,0-2.375-0.792-3.168-1.584
			c-1.584-0.792-3.168-2.376-4.752-3.168c-2.376-1.584-5.544-3.168-7.128-5.544h-0.792c-1.584,1.584-2.376,3.96-3.168,5.544
			c0,0.792,0.792,0.792,0.792,0.792l0,0l0,0l0,0l0,0c0,0,0.792,0,0.792,0.792c0,0,0,0,0,0.792c3.168,2.376,5.544,3.96,9.504,5.544
			c0.792,0.792,2.377,1.584,3.96,2.376c1.584,1.584,3.96,2.376,6.337,2.376c0.791,0,2.376,0,3.168-0.792
			c1.584,0,3.168-1.584,3.96-3.168c0.792-0.792,1.584-2.376,1.584-3.168c0,0,0.792,0,0.792-0.792c0-2.376,0-3.96,0-5.544l0,0
			c0.792,0.792,0.792,0.792,1.584,1.584s1.584,0,1.584,0c0.792-1.584,1.584-3.168,2.376-4.752
			C977.616,1052.568,977.616,1051.776,976.824,1051.776z"/>
		<path fill="#EEEEEE" d="M1000.584,1008.216c-0.792,0-0.792,0-1.584-0.792l0,0c-0.792-0.792-4.752-2.376-5.544-3.168
			c-0.792,0-0.792-0.792-1.584-0.792s-1.584-0.792-2.376-0.792c-4.752-3.168-11.88-7.128-14.256-2.376l0,0
			c-0.792,0-0.792,0.792-1.584,1.584c0,0,0,0-0.792,0v0.792c-0.792,1.584-0.792,3.96-0.792,6.336l0,0l0,0l0,0l0,0
			c0,0.792,0,2.376,0.792,3.168c-0.792,0-0.792,0-1.584,0h-0.792c-3.168,0.792-7.128,4.752-5.544,7.92c0,1.584,0,2.376,0.792,3.96
			v0.792c-0.792,0-1.584-0.792-2.376-0.792h-0.792c-0.792,1.584-1.584,3.168-2.376,4.753l0,0c0,0,0,0,0,0.791c0,0.793,0,0,0,0.793
			c2.376,1.584,4.752,2.376,7.128,3.96l0,0l0,0c0,0,0,0,0.792,0c0.792,0.792,2.376,0.792,3.168,1.584
			c2.376,0.792,3.96,2.376,6.336,2.376c0.792,0,0.792,0.792,1.584,0.792c1.584,0.792,3.168,1.584,4.752,2.376h0.792
			c0-0.792,0.792-0.792,0.792-1.584c0.792,0,0.792-0.792,1.584-2.376c1.584-2.376-5.544-4.752-7.128-5.544l0,0H979.2
			c-2.376-1.584-5.544-3.168-8.712-4.752c0,0-0.792,0-0.792-0.793l0,0c0-0.791,0-0.791-0.792-1.584c0-0.791,0-1.583,0-3.167
			c0-0.792,0.792-0.792,0.792-1.584l0.792-0.792c0.792,0,2.376,0,3.168-0.793h0.792c0.792,0,1.584,0.793,2.376,0.793
			c0,0,0,0.792,0.792,0.792l0,0c1.584,0.792,3.168,1.584,4.752,2.376s3.168,1.584,4.752,2.376l0,0c0.792,0,1.584,0.792,2.376,0.792
			h0.792c0.792-1.584,4.752-4.752,2.376-6.336c-1.584-0.792-3.168-1.584-4.752-2.376c-2.376-0.792-4.752-2.376-7.128-3.168l0,0l0,0
			l0,0l0,0c-0.792,0-0.792-0.792-1.584-0.792c0,0,0,0,0-0.792c-0.792-1.584-2.376-3.168-3.168-5.544c0-0.792,0-0.792,0.792-1.584
			c0,0,0,0,0-0.792c0.792-0.792,3.168-0.792,5.544-0.792c0,0,0.792,0,0.792,0.792l0,0c3.96,2.376,8.712,4.752,12.672,7.128
			c2.376,0.792,3.96-3.168,4.752-4.752C1001.376,1009.8,1001.376,1009.008,1000.584,1008.216z"/>
		<path fill="#EEEEEE" d="M924.552,1038.312L924.552,1038.312c-2.376-0.793-4.752-1.584-6.336-2.377
			c-3.168-0.791-7.128-2.375-10.296-3.168c-0.792,0-2.376-0.791-3.96-0.791c-5.544-2.377-11.88-3.961-17.424-5.545
			c-0.792,0-0.792,0-0.792,0.793l0,0c-0.792,0.791-0.792,0.791-1.584,1.584c0,0-0.792,0-0.792,0.791v0.793
			c-0.792,0.792-0.792,1.584-0.792,2.376c0,0,0,0,0,0.792l0,0c0,0,0,0,0,0.792v0.792c1.584,2.376,3.168,4.752,4.752,7.128
			c0,0,0,0,0,0.792c3.168,5.544,8.712,11.088,12.672,17.424l0,0l0,0c0.792,1.584,1.584,3.168,2.376,3.96s0.792,2.376,2.376,3.168
			c0,0,0,0,0.792,0h0.792c0.792-1.584,2.376-2.376,3.168-4.752v-0.792c0,0,0.792-0.792,0-0.792
			c-0.792-2.376-3.168-4.752-4.752-6.336c0.792-1.584,1.584-3.168,3.168-4.752c1.584-2.376,3.96-4.752,5.544-7.128h0.792
			c0.792,0,1.584,0,2.376,0.792h0.792c0,0,0,0,0.792,0.792c0.792,0,1.584,0,2.376,0.792l0,0c0,0,0,0.792,0.792,0
			c2.376-0.792,3.168-3.96,4.752-5.544C926.136,1039.104,925.344,1038.312,924.552,1038.312z M897.624,1045.44L897.624,1045.44
			c-2.376-3.168-3.168-5.544-5.544-8.713c0.792,0,2.376,0.792,3.168,0.792c0,0,0,0,0.792,0c2.376,0.793,4.752,1.584,7.92,2.377
			c0.792,0,2.376,0.792,3.168,0.792c-2.376,2.376-4.752,4.752-5.544,7.92C900,1047.816,899.208,1046.232,897.624,1045.44z"/>
		<path fill="#EEEEEE" d="M902.376,1008.216L902.376,1008.216c-1.584-2.376-3.96-2.376-5.544-0.792s-2.376,4.752-0.792,6.336
			c0.792,2.376,3.96,1.584,5.544,0.792c0.792,0,0.792,0,1.584-0.792C904.752,1012.176,903.96,1009.8,902.376,1008.216z"/>
		<path fill="#EEEEEE" d="M931.68,1026.432v-0.792c-3.168-2.376-7.128-4.752-11.088-6.336c-3.96-2.376-7.92-5.544-11.88-7.128
			c0,0-0.792,0-0.792,0.792c-0.792,1.584-1.584,3.168-2.376,4.752c0,0.792,0,0.792,0.792,0.792c3.168,2.376,7.128,3.96,10.296,5.544
			l0,0c1.584,1.584,3.96,3.168,6.336,3.96c2.376,1.584,3.96,3.168,5.544,3.168h0.792
			C930.096,1029.6,930.888,1028.016,931.68,1026.432C931.68,1027.224,931.68,1027.224,931.68,1026.432z"/>
		<path fill="#EEEEEE" d="M939.6,1012.968c-0.792-0.792-2.376-0.792-3.96-1.584c-1.584-1.584-3.96-2.376-6.336-3.168
			c-0.792-0.792-2.376-1.584-3.96-2.376c-0.792-3.168-2.376-6.336-0.792-10.296c0-0.792,0-0.792-0.792-0.792
			c-1.584-0.792-4.752-3.96-7.128-1.584c-1.584,1.584,0,5.544,0.792,7.128c0,0.792,0,1.584,0.792,2.376
			c-0.792-0.792-2.376-0.792-3.96-1.584h-0.792c0,0-0.792,0.792-0.792,1.584l0,0c0,0-0.792,0.792,0,0.792
			c0,0.792-0.792,1.584,0,2.376l0,0c0,0,0,0,0,0.792h0.792c0.792,0.792,2.376,1.584,3.168,2.376
			c2.376,0.792,4.752,2.376,6.336,3.168l0,0c3.96,2.376,7.92,4.752,12.672,6.336h0.792
			C937.224,1016.136,938.808,1014.552,939.6,1012.968C940.392,1012.968,939.6,1012.968,939.6,1012.968z"/>
		<path fill="#EEEEEE" d="M587.16,1295.712c0-0.792,0-1.584,0.792-3.168l0,0c0-0.792,0-1.584,0.792-3.168
			c0.792-2.376,1.584-5.544,1.584-8.712c0.792-3.168,2.376-5.544,2.376-9.504c0-0.792-0.792-0.792-0.792-0.792
			c-3.168,0-4.752-2.376-7.128-2.376l0,0c-0.792,0-1.584,0-1.584,0l0,0v0.792c-0.792,3.168-1.584,6.336-1.584,9.504l0,0
			c-0.792,1.584-0.792,3.96-1.584,5.544c-0.792,3.96-2.376,7.92-2.376,11.88c0,1.584-0.792,2.376-0.792,3.96
			c-0.792,1.584-0.792,3.168-0.792,4.752c-0.792,0.792-0.792,2.376-1.584,3.168c0,0-0.792,0-0.792,0.792h-0.792
			c-3.168,0.792-5.544-0.792-7.92-3.168c-0.792-3.168,0-5.544,0.792-8.712c0,0,0-0.792-0.792-0.792s-0.792,0-0.792,0
			c-0.792-0.792-2.376-0.792-3.168-1.584c-0.792,0-1.584,0-2.376-0.792c0,0,0,0-0.792,0h-0.792l0,0l0,0
			c-0.792,3.168-2.376,10.296,0,13.464c0.792,2.376,2.376,3.96,4.752,5.544c0,0,0,0,0.792,0s0.792,0.792,1.584,0.792
			c4.752,2.376,10.296,3.168,15.048,0.792h0.792c0.792-0.792,0.792-0.792,1.584-1.584c0,0,0,0,0.792,0
			c2.376-2.376,3.96-5.544,4.752-9.504l0,0l0,0c0-0.792,0-0.792,0.792-1.584C586.368,1301.256,587.16,1298.088,587.16,1295.712z"/>
		<path fill="#EEEEEE" d="M632.304,1298.088c0.792-2.376,1.584-4.752,0.792-6.336c0-0.792-1.584-1.584-2.376-1.584
			c-2.376,0-3.168-0.792-5.544-0.792h-0.792c0,0,0,0,0,0.792v0.792c0,0,0,0,0,0.792c-0.792,3.168-0.792,7.128-1.584,10.296
			s-1.584,7.128-0.792,9.504c-0.792,1.584-0.792,3.168-2.376,4.752c-2.376,0.792-5.544,2.376-7.92,2.376
			c-0.792-0.792-1.584-0.792-2.376-1.584s-0.792-1.584-1.584-2.376c0-0.792,0-2.376,0-3.168l0,0c0.792-3.96,0.792-7.92,1.584-12.672
			c0.792-3.168,3.96-11.88-1.584-11.88c-2.376,0-5.544-0.792-6.336,1.584c-1.584,3.96-1.584,9.504-1.584,13.464c0,0,0,0,0,0.792
			c0,1.584,0,3.168-0.792,4.752c-0.792,3.168-0.792,6.336-0.792,9.504c0,0,0,0,0,0.793c0,0.792,0,0,0,0.792
			c0,2.376,1.584,4.752,3.168,6.336c0,0,0,0,0.792,0l0.792,0.792l0,0c0,0,0,0,0.792,0c2.376,1.584,4.752,2.376,7.128,2.376
			c4.752,0,7.128-2.376,9.504-4.752c0,1.584,0,2.376,0,3.96c0,0.792,0.792,0.792,0.792,0.792l0,0c1.584,0.792,5.544,0,7.128,0.792
			c0.792,0.792,2.376-0.792,0.792-1.584c0,0,0.792-0.792,0.792-1.584c0.792-5.544,2.376-11.88,2.376-18.216
			C632.304,1303.632,632.304,1300.464,632.304,1298.088z"/>
		<path fill="#EEEEEE" d="M652.896,1279.08L652.896,1279.08c-1.584-0.792-3.168-0.792-4.752-0.792c-0.793,0-2.377,0-3.168,0l0,0
			h-0.793c0,3.96-0.791,8.712-0.791,12.672c0,5.544-0.793,10.296-1.584,15.84c-0.793,4.752-1.584,10.296-1.584,15.84
			c0,0,0,0,0,0.792c0,0.793,0,2.377,0,3.168v0.793c0,0.791,0,0.791,0.791,0.791c2.377,0,4.752,0,7.129,0.793
			c0.791,0,0.791,0,0.791-0.793c0.793,0,0.793,0,1.584-0.791c1.584-7.129,0.793-15.049,1.584-22.177
			C652.896,1297.296,652.896,1288.584,652.896,1279.08C653.688,1279.872,653.688,1279.872,652.896,1279.08z"/>
		<path fill="#EEEEEE" d="M693.288,1293.336h-0.792l0,0c-2.376,0-3.168,0-5.544,0.792c0-0.792-1.584-0.792-1.584,0
			c-1.584,5.544-3.168,10.296-4.752,15.84c-1.584,3.96-2.376,7.92-3.96,11.88c-0.792-3.96-2.376-8.712-3.168-12.672v-0.792
			c-0.792-2.376-1.584-5.544-2.376-7.92c0-2.376-0.792-5.544-3.168-7.92l0,0c-2.376-0.792-5.544,0-7.92,0c0,0-0.792,0-0.792,0.792
			h-0.792c0,3.168,0.792,7.128,3.168,10.296c0.792,3.96,2.376,7.92,3.96,11.88c0.792,2.376,0.792,3.96,2.376,5.544
			c1.584,3.96,3.168,8.712,4.752,12.673c-0.792,0.792-0.792,2.376-0.792,3.168c0,0,0,0-0.792,0.792
			c-1.584,1.584-3.168,1.584-5.544,0.792c0-0.792-0.792-0.792-0.792,0l0,0c0,0,0,0,0,0.792s0,0,0,0.792s0,1.584,0,2.376
			c0,1.584,0,3.168,0,4.752c0,0.792,0.792,0.792,1.584,0c0.792,0.792,2.376,0,3.168,0c1.584,0,3.96-0.792,5.544-1.584
			c0.792,0,0.792-0.792,1.584-0.792c0,0,0.792,0,0.792-0.792c0.792-1.584,1.584-3.168,1.584-4.752c2.376-3.96,3.96-7.92,5.544-11.88
			c2.376-7.92,7.92-15.841,7.92-24.553c0.792-1.584,1.584-3.168,2.376-5.544l0,0c0-0.792,0.792-1.584,0.792-3.168
			C694.872,1293.336,694.08,1293.336,693.288,1293.336z"/>
		<path fill="#EEEEEE" d="M744.768,1318.68c0-7.128-0.791-14.256-2.376-20.592c0-2.376-0.792-3.96-0.792-5.544s0-3.168,0-5.544
			s0-4.752,0-7.128c0-0.792-0.792-2.376-2.376-2.376c-0.792,0-0.792,0-1.584,0c0,0-0.792,0-1.584,0h-0.792c-0.792,0-1.584,0-2.376,0
			c0,0-0.792,0-0.792,0.792c0,0-0.792,0-0.792,0.792c-0.792,2.376-1.584,4.752-3.168,7.128s-5.544,3.168-7.92,3.168l0,0
			c0,0-0.792,0-0.792,0.792s0,1.584,0.792,2.376l0,0c0,0.792,0,1.584,0.792,2.376l0,0c0,0.792,0,0.792,0.792,0.792s2.376,0,3.168,0
			l0,0c2.376,0,4.752-0.792,7.128-0.792c0,6.336,0.792,12.672,2.376,19.8c0,4.753,0,9.505,1.584,13.464l0,0v0.793
			c2.376,0,9.505,0.792,9.505-2.377C745.561,1323.432,744.768,1321.056,744.768,1318.68z"/>
		<path fill="#EEEEEE" d="M790.704,1287.792c-0.792-4.752-3.168-9.504-6.336-11.88c0,0,0-0.792-0.792-0.792
			c-1.584-0.792-2.376-1.584-3.96-2.376c-2.376-2.376-6.336-2.376-10.296-0.792c-3.168,0-5.544,1.584-7.129,3.168l-0.791,0.792
			l-0.793,0.792c0,0-0.791,0-0.791,0.792c-2.377,3.96-3.168,7.92-3.168,12.672s0.791,9.504,1.584,14.256v0.792
			c0.791,3.168,2.375,6.336,3.959,9.504c0.793,1.584,1.584,2.376,2.377,3.96c0,0.793,0.792,0.793,1.584,1.584c0,0,0,0,0.792,0.793
			c0.792,0.792,0.792,0,0.792,0l0,0c3.168,1.584,6.336,2.375,9.504,1.584c2.376,0,4.752,0,7.128-1.584
			c0.792-0.793,2.376-0.793,2.376-1.584c0.792-0.793,1.584-2.377,2.376-3.168c0,0,0-0.793,0.792-0.793l0,0
			c0.792-1.584,0.792-3.168,1.584-4.752c0-0.792,0-2.376,0-3.168C794.664,1302.048,793.08,1293.336,790.704,1287.792z
			 M783.576,1311.552c0,0.792,0,0.792-0.792,1.584l0,0c-0.792,0-0.792,0.792-1.584,0.792c-1.584,0-3.168,0.792-4.752,0.792
			c-0.792,0-0.792-0.792-2.376-0.792c-1.584-1.584-3.168-3.168-3.96-5.544c0-0.792-0.792-2.376-0.792-3.168
			c-0.792-2.376-1.584-5.544-2.376-7.92c0-0.792,0-0.792,0-1.584c0-2.376,0-5.544,0-7.92c0-0.792,0.792-2.376,0.792-3.168
			c0.792-0.792,2.376-2.376,3.168-3.168c2.376,0,3.96,0,5.544,0.792c0.792,0.792,0.792,0.792,0.792,1.584
			c0.792,1.584,0.792,3.168,1.584,4.752c0.792,3.168,1.584,5.544,2.376,8.713c0,0,0,0,0,0.792c0,2.376,0.792,5.544,0.792,7.92
			C783.576,1307.592,783.576,1309.968,783.576,1311.552z"/>
		<path fill="#EEEEEE" d="M807.336,1287.792c-0.792-1.584-1.584-1.584-3.168-1.584h-0.792c-0.792-2.376-1.584-5.544-3.168-7.92
			v-0.792c0-0.792-0.792-2.376-0.792-3.168c1.584,0,3.168-0.792,3.168-2.376c0-0.792,0-2.376-0.792-2.376
			c-0.792-0.792-2.376,0-3.168,0.792c0-1.584-0.792-3.168-0.792-3.96c0-1.584-1.584-1.584-2.376-0.792
			c-0.792,0-2.376,0.792-3.168,1.584c0,0.792,0,0.792,0.792,1.584l0,0c0,0.792,0.792,2.376,0.792,3.96l0,0
			c-0.792,0-1.584,0-2.376,0.792l0,0l0,0c0,0.792,0,2.376,0.792,3.168s1.584,0,2.376,0h0.792c0,1.584,0.792,3.168,0.792,3.96v0.792
			c0,1.584,0.792,2.376,0.792,3.96l0,0c0,2.376,1.584,5.544,3.96,6.336c1.584,0.792,3.96,0,5.544-0.792
			C808.128,1290.96,808.128,1289.376,807.336,1287.792z"/>
		<path fill="#EEEEEE" d="M830.304,1280.664c-0.792-0.792-0.792-2.376-1.584-3.168l0,0c0-0.792,0-0.792-0.792-1.584v-0.792l0,0
			c0-0.792-0.792-2.376-1.584-3.168l0,0c-0.792-1.584-0.792-3.168-2.376-4.752c0,0,0,0-0.792,0
			c-0.792-0.792-0.792-0.792-1.584-0.792c-0.792-0.792-1.584-0.792-3.168-0.792c-2.376-0.792-5.544,0.792-7.128,3.168
			c-0.792,0.792-0.792,1.584-1.584,2.376c0-0.792,0-0.792-0.792-1.584c0-0.792,0-0.792-0.792-1.584c0-0.792,0-0.792-0.792-1.584
			c0-0.792-0.792-2.376-0.792-3.96l-0.792-0.792c-0.792,0-2.376,0.792-3.168,0.792l0,0c0,0-0.792,0-0.792,0.792
			c0.792,3.168,1.584,5.544,3.168,8.712c0,3.168,1.584,5.544,3.168,8.712c0.792,1.584,1.584,3.96,2.376,5.544l0,0l0,0l0,0
			c0,1.584,0.792,2.376,0.792,3.168l0,0c0,0.792,0.792,0.792,1.584,0c0.792,0,1.584-0.792,3.168-0.792l0.792-0.792
			c-0.792-1.584-1.584-3.168-2.376-5.544c0-2.376-0.792-3.96-1.584-5.544l0,0c0-1.584,0-3.168,0.792-4.752l0,0
			c0.792-0.792,2.376-0.792,3.168-2.376c0.792,0,1.584,0.792,2.376,0.792l0,0c0.792,0.792,0.792,2.376,1.584,3.96
			c0,0.792,0,0.792,0.792,1.584c0,2.376,0.792,3.96,2.376,5.544c0,0.792,0.792,2.376,0.792,3.168s0.792,0.792,0.792,0
			c0.792-0.792,3.96-0.792,4.752-2.376C831.096,1282.248,830.304,1280.664,830.304,1280.664z"/>
		<path fill="#EEEEEE" d="M913.464,1267.992c-0.792-2.376-2.376-4.752-3.168-6.336c0,0-0.792,0-1.584,0
			c-0.792,0.792-2.376,1.584-3.96,2.376l0,0c-3.168,1.584-7.128,3.96-10.296,5.544l0,0c-0.792,0.792-2.376,0.792-3.168,1.584l0,0
			c0-1.584,0.792-2.376,0.792-3.96c0.792-0.792,0.792-2.376,0.792-3.168c0.792-0.792,0.792-2.376,1.584-3.168l0,0l0,0
			c0.792-0.792,0.792-1.584,0.792-3.168c0,0,0,0,0-0.792l0,0c3.168-5.544,3.96-11.88,0.792-17.424c0,0,0,0-0.792-0.792
			s-0.792-2.376-0.792-2.376c0-0.793-0.792-0.793-1.584-1.584c-1.584-2.377-4.752-3.961-7.92-3.961
			c-2.376,0-6.336-0.791-8.712,0.793h-0.792l0,0c-3.168,1.584-7.128,3.168-9.504,6.336c0,0,0,0-0.792,0
			c-2.376,2.376-2.376,7.128-0.792,10.296l0,0l0,0v0.792c0,2.376,0.792,4.752,1.584,6.336h0.792c2.376-0.792,3.96-2.376,6.336-2.376
			c0.792,0,0.792-0.792,0.792-0.792c0-0.792-0.792-1.584-0.792-2.376c0-3.168,0.792-6.336,2.376-8.712l0,0l0,0
			c3.96-1.584,7.128-0.792,9.504,1.584c0.792,1.584,0.792,3.168,1.584,5.544c0,0.792,0,1.584,0,2.376s0,0.792,0,1.584
			c-1.584,4.752-4.752,8.712-6.336,12.672c-2.376,7.92-2.376,12.672,0.792,19.8c0,0.792,1.584,0.792,1.584,0
			c2.376-0.792,4.752-2.376,7.128-3.168c1.584-0.792,3.168-2.376,4.752-3.168c3.168-1.584,6.336-3.168,9.504-4.752
			c0.792-0.792,3.168-1.584,4.752-3.168c0.792-0.792,1.584-0.792,2.376-1.584C913.464,1268.784,914.256,1267.992,913.464,1267.992z"
			/>
		<path fill="#EEEEEE" d="M937.224,1228.393L937.224,1228.393c-2.376-3.961-4.752-7.921-8.712-10.297
			c-0.792-0.792-1.584-1.584-2.376-2.376s-0.792-0.792-1.584-1.584c-3.168-3.168-7.128-3.96-11.88-3.168
			c-1.584,0-3.168,0.792-4.752,1.584h-0.792c0,0,0,0-0.792,0c-3.168,1.584-6.336,5.544-7.128,9.504
			c-0.792,3.168-0.792,6.337,0.792,8.712c0,0.793,0,0.793,0.792,2.377v0.792c0,0.792,0.792,2.376,0.792,3.168
			c0.792,2.376,2.376,4.752,3.96,6.336c0.792,1.584,2.376,2.376,3.168,3.96c1.584,2.376,3.168,3.96,5.544,5.544
			c2.376,3.168,6.336,5.544,10.296,5.544c1.584,0,3.168,0,4.752,0c0.792,0,0.792,0,1.584-0.792l0,0h0.792c0,0,0,0,0.792,0
			s2.376-0.792,3.168-1.584c1.584-0.792,3.168-2.376,3.96-3.96c0,0,0,0,0.792,0l0,0c2.376-3.168,3.168-6.336,2.376-8.712
			C943.561,1237.896,941.184,1231.561,937.224,1228.393z M934.056,1246.607c-0.792,1.584-1.584,2.377-2.376,3.168
			c0,0-0.792,0-1.584,0s-2.376,0-3.96,0c-1.584-1.584-3.168-3.168-5.544-3.959c-0.792-0.793-1.584-1.584-2.376-2.377
			c-1.584-2.376-3.168-4.752-4.752-7.128c-0.792-1.584-2.376-3.96-3.168-5.544c-0.792-2.376-0.792-3.96-1.584-5.544
			c0-1.584,0.792-3.168,1.584-4.752c2.376-0.792,3.96-1.584,6.336-0.792c1.584,0.792,3.168,2.376,3.96,3.168
			s2.376,1.584,3.168,2.376l0.792,0.792c0.792,1.584,2.376,3.168,3.96,5.544c1.584,3.168,3.168,5.544,4.752,8.712
			C932.472,1242.648,933.264,1244.232,934.056,1246.607C934.056,1245.816,934.056,1245.816,934.056,1246.607z"/>
		<path fill="#EEEEEE" d="M973.656,1223.64l-0.792-0.792c-0.792-1.584-2.376-3.168-3.96-4.752l0,0
			c-3.168-3.96-7.128-8.712-11.088-12.672c-0.792-1.584-2.376-2.376-3.168-3.96c-3.168-2.376-5.545-7.128-8.713-10.296
			c-0.791-1.584-3.168-3.168-3.959-4.752l0,0c-0.793,0.792-1.584,0.792-2.377,2.376l0,0c0,0,0,0-0.792,0
			c-0.792,0.792-2.376,1.584-3.168,2.376v0.792c0,0,0,0,0,0.792s0.792,1.584,1.584,2.376l0,0c0,1.584,0.792,2.376,0.792,3.96
			c-0.792,2.376-2.376,3.96-3.168,5.544l0,0c-0.792,0.792-2.376,1.584-2.376,3.168l0,0l0,0c0,0,0,0,0,0.792l0,0l0,0l0,0
			c0,0.792,0.792,0.792,0.792,0.792c0.792,0.792,0.792,1.584,2.376,2.376l0,0h0.792l0,0l0,0c0.792,0,2.376-1.584,3.168-2.376
			c1.584-1.584,3.168-2.376,4.752-3.96l0,0c0,0,0,0,0.792,0l0.792,0.792c1.584,2.376,3.168,3.96,4.752,5.544c0,0,0,0,0.792,0
			c0.792,1.584,2.376,3.168,3.96,4.752l0,0l0.792,0.792c0.792,1.584,2.376,3.168,3.169,3.96c0,0.793,0.791,0.793,0.791,1.584
			c0,0.793,0.793,0.793,0.793,1.584c1.584,2.377,3.168,4.752,4.752,5.545c0.791,0,1.584,0,0.791-0.793l0,0
			c1.584-1.584,3.961-3.168,5.545-4.752C973.656,1224.432,973.656,1224.432,973.656,1223.64
			C974.448,1224.432,974.448,1224.432,973.656,1223.64z"/>
		<path fill="#EEEEEE" d="M1005.336,1195.92c0.792-3.168,1.584-6.336,0-8.712l0,0c0,0,0,0,0-0.792s0-1.584-0.792-2.376
			c-2.376-7.128-8.712-11.88-16.632-11.88c-7.128,0-15.048,5.544-15.048,12.672c-0.792-1.584-1.584-3.168-3.168-4.752
			c-0.792-1.584-1.584-3.168-2.376-3.96c3.96-4.752,9.504-8.712,13.464-13.464c0.792-0.792,0-1.584,0-2.376
			c-0.792-1.584-3.96-3.168-5.544-4.753h-0.792c-2.376,3.168-6.336,5.545-9.504,8.713c-3.168,2.376-5.544,5.544-7.92,8.712v0.792
			c-0.792,0-0.792,0.792,0,0.792c3.168,3.96,6.336,7.92,9.504,12.672c1.584,2.376,3.96,6.336,6.336,7.92c0.792,0,0.792,0,0.792,0
			l0,0c2.376-0.792,3.96-3.168,5.544-4.752v-0.792c0-3.168,1.584-5.544,3.96-7.128c1.584-0.792,3.96-0.792,5.544-0.792
			c0.792,0.792,2.376,1.584,3.168,2.376c2.376,2.376,3.168,4.752,3.96,7.128c0,0.792,0,2.376,0,3.168c0,0,0,0,0,0.792l0,0
			c-0.792,1.584-2.376,2.376-3.96,3.168c-2.376,0.792-4.752,0-7.128-0.792c0,0,0,0-0.792,0h-0.792c-1.584,0-2.376,2.376-3.168,3.168
			s-2.376,2.376-2.376,3.168c0,0,0,0.792,0.792,0.792c3.168,2.376,6.336,3.168,10.296,3.168c1.584,0.792,3.96,0,5.544-0.792h0.792
			c2.376-0.792,4.752-3.96,7.128-7.128C1003.752,1199.088,1005.336,1197.504,1005.336,1195.92z"/>
		<path fill="#EEEEEE" d="M856.439,1295.712c0-0.792-0.791-0.792-0.791-1.584c-1.584-4.752-7.129-7.92-10.297-3.96
			c0,0,0,0-0.791,0.792c-1.584,0.792-2.377,3.168-1.584,4.752c0,0.792,0,1.584,0.791,2.376c1.584,3.168,4.752,3.168,7.92,2.376
			c0,0.792,0.793,2.376,0.793,3.168s0,1.584,0,2.376c0,1.584-2.377,3.168-3.168,4.752v0.793c0,0,0,0.792,0.791,0.792
			c2.377,0,3.961-1.584,5.545-3.168C858.023,1304.424,858.023,1298.88,856.439,1295.712z"/>
	</g>
</g>
<g id="Layer_2">
	<g>
		<path fill="#EEEEEE" d="M158.526,196.819c-1.178-7.072-9.428-10.605-16.5-9.428c0,0,0,0-1.178,0h-1.179c-1.179,0-1.179,0-2.357,0
			c-1.179,0-2.357,0-2.357,1.179c0,0,0,0-1.179,0c0,0,0,0-1.178,0c0,0-1.179,0-1.179,1.177c-1.179,1.18-2.357,3.537-3.536,4.714
			l-1.178,1.181c0,1.178,0,1.178,0,2.357c-1.179,0-1.179,1.178-1.179,2.356c-1.178,3.536,0,8.25,2.357,11.786
			c0,1.178,0,1.178,0,1.178s0,0,1.179,1.179l0,0l0,0c3.536,3.536,7.071,7.071,10.607,9.428c7.071,3.536,10.607,11.786,7.071,18.857
			c-1.179,0-1.179,1.178-2.357,1.178c-5.893,0-8.25-4.714-9.428-9.428c-1.179-3.536-8.25-3.536-8.25,1.178
			c0,5.893,1.178,12.964,8.25,16.5c2.357,1.178,4.714,1.178,7.071,1.178c0,0,0,0,1.179,0h1.178c4.715,0,8.25,0,11.786-3.536
			c2.357-2.356,3.536-5.893,3.536-9.428l0,0c8.25-11.786-12.964-23.572-21.215-29.464c-1.178-2.358-1.178-4.714,0-7.072
			c1.179-5.893,8.25-2.356,11.786,0c1.179,2.357,3.536,5.894,4.714,8.25c2.357,2.357,5.893,0,5.893-2.356v-1.18
			c0-1.178,0-1.178,0-2.356C160.883,201.533,159.705,199.176,158.526,196.819z"/>
		<path fill="#EEEEEE" d="M210.383,212.142c-4.714-2.356-10.607,0-14.143,3.536c-1.179-2.357-2.357-3.536-4.714-4.714
			c-5.893-3.536-10.607,0-14.143,5.892l0,0c0-1.178-1.179-1.178-2.357-2.356c-1.179-1.179-2.358-1.179-3.536,0
			c-1.179,0-3.536,2.356-2.357,4.714c1.178,4.714,2.357,9.429,2.357,14.143v1.179c0,4.714,0,8.25,1.178,12.964l0,0l0,0v1.178
			c1.179,4.714,8.25,3.536,8.25-1.178c0,0,0,0,0-1.178v-1.18l0,0c0-3.536,2.357-27.108,8.25-23.571l0,0c0,0,0,0,0,1.179
			c0,2.356,0,5.893,1.178,8.25c0,2.356,0,3.536,0,5.893c0,3.536,0,7.071,0,9.429c0,5.892,9.429,7.07,9.429,0
			c0-3.536,0-7.072,0-9.429c0-3.536,1.178-7.071,0-11.786c0-1.178,0-1.178,0-2.356c1.178-1.179,2.357-2.357,3.536-3.536
			c4.714-3.536,5.893,3.536,5.893,5.893c0,7.072,0,12.965,1.178,20.036c1.179,5.894,11.786,3.536,9.429-2.356
			C218.633,233.355,223.347,218.033,210.383,212.142z"/>
		<path fill="#EEEEEE" d="M237.49,229.821c0-3.536-1.179-5.894-2.357-9.431c0-3.535,0-5.891-1.178-9.429
			c-2.357-4.714-10.607-3.535-8.25,2.358c1.178,2.357,0,5.894,0,9.428c0,3.538,1.178,7.074,1.178,10.608
			c0,4.715,1.179,10.607,4.715,12.965c2.357,1.178,5.893,0,5.893-3.536C241.026,239.249,238.669,234.535,237.49,229.821z"/>
		<path fill="#EEEEEE" d="M223.347,177.961c-5.893,3.536-1.178,11.786,4.715,11.786c1.178,0,1.178-1.178,2.357-1.178
			c0,0,0,0,1.179-1.178C232.776,182.676,229.24,174.425,223.347,177.961z"/>
		<path fill="#EEEEEE" d="M263.42,205.07c-1.18,1.179-3.537,1.179-4.716,1.179v-1.179c0,0,0,0,0-1.179c0,0,0,0,0-1.18l0,0l0,0
			c-1.179-7.07-2.355-15.32-2.355-22.392c0-1.178-1.18-2.358-2.357-2.358c-1.18-2.356-5.894-2.356-5.894,1.18
			c0,8.25,1.178,17.678,2.357,25.929c0,1.179,0,2.357,0,2.357c-2.357,0-3.536,0-5.893,0c-1.179,0-1.179,0-1.179,1.178
			c-3.535,1.18-2.357,7.072,1.179,7.072c2.357,0,4.714,0,7.071,0c0,3.536,1.179,7.072,1.179,10.607c0,0,1.179,10.607,2.357,11.786
			c-1.179,1.178-1.179,2.356,0,3.535l0,0c1.179,2.357,4.714,3.536,7.071,1.179c3.537-4.714,0-16.5-1.179-22.393
			c0-2.356-1.178-3.536-1.178-5.893c2.357-1.179,4.714-1.179,7.071-2.357C271.67,209.785,268.134,201.533,263.42,205.07z"/>
		<path fill="#EEEEEE" d="M311.741,229.821c-2.356-3.536-3.535-7.074-4.714-10.608c-1.178-3.536-1.178-5.893-2.357-9.428
			c-2.357-4.715-5.893-9.431-10.607-10.609c-4.714-1.177-9.428,1.179-11.786,4.714v1.179c-2.357-7.071-4.714-15.323-7.071-22.394
			c0-2.357-1.18-4.715-2.357-7.072l0,0l0,0c0,0,0,0,0-1.179c-1.179-3.535-7.072-1.178-5.895,2.358
			c2.357,9.428,5.895,18.858,8.251,28.286c2.357,10.607,4.714,21.216,7.071,31.823c1.179,5.893,10.607,3.536,9.429-2.357
			c-1.179-5.893-2.357-10.607-4.714-16.502c0,0,0,0,1.178-1.177c0-2.356,1.179-4.714,1.179-5.895c1.178-5.892,5.893-3.535,8.25,0
			c2.357,3.538,2.357,9.429,4.714,12.966c1.179,3.536,3.536,7.072,5.893,9.428C308.206,239.249,314.099,234.535,311.741,229.821z"/>
		<path fill="#EEEEEE" d="M328.242,206.247c-2.357-1.178-5.894-2.356-8.25-3.536c-1.18-1.178-1.18-2.356-1.18-3.535
			c0-1.179,3.536,1.178,4.715,1.178c3.535,2.356,9.429,0,5.894-4.713c-2.358-4.714-7.072-7.073-11.786-5.895
			c-1.179,0-1.179,0-1.179,1.18h-1.179c-4.714,1.177-4.714,8.249-3.536,11.786c1.18,5.892,7.071,8.25,11.786,10.606
			c1.179,0,8.25,5.893,4.715,5.893c-2.357,0-5.894-1.18-8.25-2.357c-4.715,0-5.894,5.894-2.357,8.25
			c8.25,4.715,21.214,4.715,21.214-7.073C337.671,212.142,331.777,208.605,328.242,206.247z"/>
		<path fill="#EEEEEE" d="M356.527,185.033c-2.357-2.356-5.893-4.714-9.429-4.714h-1.178c-1.179,0-2.358,0-4.715,0
			c-1.179,0-2.357-1.178-3.535,0c-10.608,3.537-8.25,17.68-4.715,25.93c4.715,9.428,15.321,15.321,25.929,10.606
			c4.714-2.356,7.071-8.25,7.071-14.142C365.956,195.642,361.242,189.747,356.527,185.033z M348.277,206.247
			c-3.535-1.178-5.893-5.893-5.893-9.428c0-1.178,0-2.358,0-2.358s0-1.178,0-2.356v-1.178c0-1.179,0-1.179,1.178-2.357
			c2.358-1.178,7.072,1.178,8.25,2.357c2.357,2.356,4.715,5.893,5.894,9.428C357.706,206.247,352.992,208.605,348.277,206.247z"/>
		<path fill="#EEEEEE" d="M397.777,188.569c-7.071-9.428-11.785-27.107-25.929-28.286c-7.07,0-9.429,4.714-9.429,10.607
			l-1.178-1.179c-3.536-3.536-8.25,1.179-5.894,4.714c1.179,1.179,2.357,3.536,4.714,4.715c1.18,1.178,2.357,2.356,2.357,3.536
			c0,1.178,1.179,1.178,1.179,1.178c4.714,5.893,8.25,11.786,9.43,17.678c1.178,4.714,9.428,3.536,8.25-2.356
			c-1.18-5.894-5.894-10.607-8.25-15.322c-1.18-1.178-2.358-3.536-3.536-4.714c-1.18-4.715-2.357-15.322,5.893-8.25
			c5.894,4.714,8.25,15.32,12.964,21.214C393.063,197.999,401.314,193.284,397.777,188.569z"/>
		<path fill="#EEEEEE" d="M414.277,176.783c-4.714-4.714-8.248-8.25-12.963-12.964c0-1.178,0-1.178-1.18-2.357
			c-3.536-3.536-5.893-8.25-9.429-11.786c-2.357-3.536-8.25,1.18-5.893,4.714c5.893,10.607,14.143,20.036,22.393,29.465
			C411.92,187.391,418.993,180.319,414.277,176.783z"/>
		<path fill="#EEEEEE" d="M373.028,122.569C371.849,121.39,371.849,121.39,373.028,122.569
			C371.849,121.39,371.849,121.39,373.028,122.569C371.849,121.39,371.849,121.39,373.028,122.569
			C371.849,121.39,371.849,121.39,373.028,122.569c-2.358-1.18-4.716,0-4.716,2.356c0,1.179,0,1.179,0,2.357l0,0v1.178
			c0,3.536,2.357,7.072,5.894,4.714c2.357-1.179,3.536-3.536,2.357-5.893C376.563,124.926,375.385,122.569,373.028,122.569z"/>
		<path fill="#EEEEEE" d="M441.387,149.675c-4.715,0-9.429-4.714-12.965-9.428c-2.357-3.536-4.716-7.071-5.894-9.428
			c-2.356-3.536-5.895-2.357-7.071,0c-18.858,5.893-4.714,33,7.071,38.893c8.25,3.536,14.144-2.357,14.144-10.606v-1.18
			c2.356,1.18,3.536,1.18,5.893,1.18C448.458,159.105,448.458,148.497,441.387,149.675z M424.887,162.641
			c-7.072-3.536-16.5-18.857-8.25-25.929c1.178,3.536,3.535,7.072,5.892,9.428c1.179,1.179,1.179,2.357,2.358,3.536
			C426.064,152.033,430.778,164.997,424.887,162.641z"/>
		<path fill="#EEEEEE" d="M474.386,127.283c-2.357-2.357-5.892-4.714-8.25-7.072c-2.357-2.357-4.714-5.893-7.071-8.25
			c-3.536-3.536-9.428-8.25-14.143-8.25c-9.429-1.179-11.785,7.071-10.607,14.143c-1.178-1.179-3.536-1.179-4.714-1.179
			c-4.714,0-4.714,7.071,0,7.071c4.714,1.179,8.25,4.714,11.786,8.25c3.535,4.714,8.25,8.25,10.607,14.143l0,0
			c2.356,4.715,10.606,1.179,8.25-4.714c-3.536-5.893-9.43-11.786-14.144-16.5c-1.179-1.179-2.357-2.356-3.536-3.536
			c0-3.535-1.178-5.892,0-9.428c1.179-3.536,8.25,3.536,9.43,3.536c5.892,5.892,10.606,15.321,18.856,17.678
			C474.386,136.711,476.744,130.819,474.386,127.283z"/>
	</g>
	<g>
		<path fill="#EEEEEE" d="M540.386,48.319c-7.07-10.608-21.214-17.68-31.82-23.573c-5.894-3.536-24.751-15.321-31.821-8.25
			c-7.072,7.072,4.714,22.393,9.428,28.286c0,1.18,0,2.357,1.179,2.357c2.357,2.357,3.535,4.714,5.893,7.071c0,1.18,0,1.18,0,2.357
			c0,2.357,2.357,4.714,4.715,4.714c2.356,2.357,3.535,3.538,5.892,5.895c3.536,3.534,7.072,7.071,11.786,9.429h1.18
			c1.178,1.178,4.714,0,4.714-1.18c0-1.177,0-1.177,0-2.357c1.179-5.892-3.536-8.249-8.25-11.786
			c-2.357-2.357-4.714-3.536-7.071-5.893c1.178-5.893,4.714-10.607,7.071-15.321c7.07,4.714,15.32,9.428,21.215,15.321
			C536.85,58.924,542.743,53.031,540.386,48.319z M484.993,24.746c5.893,1.179,11.786,4.714,17.679,8.25c0,0,0,0,0,1.179
			c-1.179,3.536-3.536,7.073-5.893,10.607c-2.357-3.536-5.894-8.25-8.251-11.786C487.351,30.639,486.172,28.282,484.993,24.746
			C484.993,25.924,484.993,25.924,484.993,24.746z"/>
		<path fill="#EEEEEE" d="M548.638,32.996c-5.895-5.893-11.788-9.428-18.858-14.143c-1.18-1.178-2.357-2.357-4.714-4.714
			c-1.18-1.179-3.536-2.357-4.716-3.536c-3.534-2.357-7.07,2.357-4.714,5.893c3.536,4.714,8.25,8.25,11.786,11.786
			c4.714,3.536,9.428,7.071,14.144,10.607C546.279,44.781,552.172,37.71,548.638,32.996z"/>
		<path fill="#EEEEEE" d="M493.243-7.076c-1.179,0-3.535,1.179-3.535,2.358l0,0l0,0l0,0c-2.357,4.714,2.356,9.428,7.071,8.25
			C503.85,3.532,499.136-5.897,493.243-7.076z"/>
		<path fill="#EEEEEE" d="M555.709,20.032c-2.357-4.714-8.252-8.25-12.966-10.607c-1.178-3.536-3.536-5.893-5.894-8.251
			c-2.356-3.535-1.178-7.071-1.178-10.607c0-1.178,1.178-2.357,1.178-2.357c2.357-4.714-4.714-8.25-7.07-3.536c0,0,0,0,0,1.179
			l-1.18,1.179c-2.356,3.535-3.534,11.785-2.356,17.678c-3.535,0-4.714,0-4.714,3.536c0,1.179,1.179,2.357,1.179,2.357
			c4.714,2.357,9.428,4.714,14.142,8.25c1.18,1.179,3.536,2.357,4.716,3.536c2.356,2.357,3.534,4.714,5.892,5.893
			c1.181,1.178,4.715,1.178,5.895-1.179l0,0C555.709,24.746,556.886,22.389,555.709,20.032z"/>
	</g>
	<g>
		<path fill="#EEEEEE" d="M165.598,301.713c0-3.536-3.536-4.714-5.893-3.536c-5.893-1.178-11.786,1.18-16.5,4.715
			c-8.25,7.071-15.322,20.036-10.607,30.642c4.714,10.608,16.5,10.608,23.571,2.358c1.179-1.18,1.179-2.358,2.357-3.536
			c1.179,3.536,2.357,5.893,4.714,8.25c3.536,4.714,10.607-2.357,5.893-5.894c-7.072-8.25-4.715-17.678-3.536-27.106
			C165.598,305.249,165.598,302.892,165.598,301.713z M140.848,331.178c-5.893-7.072,7.071-28.286,16.5-27.107v1.178
			c-1.179,3.536-2.357,8.25-2.357,11.786C152.633,321.749,149.098,341.784,140.848,331.178z"/>
		<path fill="#EEEEEE" d="M193.883,299.356c-5.893-3.536-11.786,1.178-15.322,7.07c0-1.178-1.178-3.535-1.178-4.714
			c-1.179-3.536-5.893-2.356-5.893,1.179c2.357,12.964,2.357,24.751,2.357,37.715l0,0l0,0v1.18c1.179,4.714,8.25,3.535,8.25-1.18
			c0-8.251,0-16.5-2.357-24.751l0,0c0-3.536,4.714-8.25,8.25-9.429c2.357-1.178,3.536,5.894,3.536,8.251
			c0,9.428,0,18.859,4.714,27.106c2.357,4.714,9.429,1.181,8.25-3.534c-2.357-9.43-2.357-17.68-3.536-27.108
			C199.776,306.427,198.597,301.713,193.883,299.356z"/>
		<path fill="#EEEEEE" d="M223.347,272.249c0,4.714-1.178,10.607,0,16.5c0,2.358,0,4.714,0,7.072c-3.535,0-7.071,1.178-10.607,3.536
			c-8.25,7.07-9.428,23.571-5.893,33c3.536,9.428,15.322,16.5,22.393,7.072c1.179-1.177,1.179-2.357,1.179-3.535
			c0,1.177,1.179,2.357,1.179,3.535c2.357,4.714,10.607,0,7.071-4.715c-2.357-4.714-4.714-8.248-5.893-12.964
			c0-7.071-1.178-14.142-2.357-21.214c0-1.178,0-1.178-1.179-2.358c0-8.25,0-17.678,1.179-25.928
			C231.598,267.535,223.347,267.535,223.347,272.249z M216.276,332.356c-4.714-4.714-3.536-12.964-2.357-18.857
			c0-2.356,4.714-12.964,8.25-10.606c0,4.714,0,9.428,1.178,14.142C224.526,321.749,223.347,339.428,216.276,332.356z"/>
	</g>
	<g>
		<path fill="#EEEEEE" d="M327.062,294.642c-3.535-3.536-5.892-5.894-10.606-9.429c-2.357-1.178-3.535-2.356-5.893-3.536l0,0l0,0
			l0,0c0,0,0,0-1.179-1.178c-2.357-2.357-3.536-3.536-5.893-5.892c-1.179-1.18-1.179-2.357-1.179-3.536
			c-1.178-3.536,0-5.893,3.536-4.714c2.357,1.178,4.714,3.535,7.072,5.893c2.356,2.357,4.714,1.178,5.892,0l0,0
			c1.18-1.179,1.18-2.358,1.18-3.536c0,0,0,0,0-1.178s-1.18-2.357-2.357-2.357c-4.714-10.606-21.215-16.5-25.929-1.178
			c0,1.178,0,1.178,0,2.357c0,1.178-1.179,1.178-1.179,2.356c0,2.357,0,5.894,1.179,8.25c0,4.714,2.357,8.25,7.071,12.964
			c7.072,7.072,22.394,11.786,24.75,22.394c-1.179,0-1.179,1.178-1.179,2.357c-1.178,7.071-7.071,4.714-11.785,1.178
			c-2.357-2.357-3.536-3.536-5.894-4.714l-1.178-1.179h-1.179l0,0c-2.357-1.179-4.714-1.179-4.714,1.179
			c-2.357,7.071,3.536,11.786,10.607,15.321c7.071,4.715,16.5,7.071,21.215,0c2.356-1.179,3.535-3.535,4.714-7.071
			C334.135,309.963,330.599,299.356,327.062,294.642z"/>
		<path fill="#EEEEEE" d="M348.277,271.07c-4.715,1.179-7.071,5.893-7.071,10.606c0,0,0,0,0-1.178
			c-1.179-2.357-3.535-2.357-4.714-2.357c-1.18,0-2.357,1.179-3.536,2.357c0,1.178,0,2.358,0,3.536
			c2.356,4.714,4.715,8.25,7.071,12.964c5.894,10.608,10.607,22.394,16.5,34.179c2.357,5.893,11.785,1.178,8.251-4.715
			c-2.358-4.714-5.894-10.607-8.251-15.321c11.785,3.536,17.679-8.25,15.321-18.857C370.67,281.677,360.062,267.535,348.277,271.07z
			 M362.42,298.177c0,3.536-3.535,2.358-5.893,1.18c-5.893-3.536-5.893-10.608-7.071-16.5c0-1.18,0-1.18-1.179-1.18l0,0
			c1.179-8.25,11.785,5.894,12.965,9.43C362.42,293.463,363.599,295.82,362.42,298.177z"/>
		<path fill="#EEEEEE" d="M408.387,279.32c-2.357,0-7.072-4.714-8.252-7.071c-4.715-5.893-9.429-11.786-12.965-18.858
			c-2.356-3.536-7.071-2.356-8.25,0c-5.892,2.358-8.25,14.144-7.071,20.036c1.18,9.43,4.715,21.215,14.144,24.75
			c8.25,2.358,14.143-3.535,12.965-11.785c3.535,2.356,7.072,3.535,10.606,2.356C415.457,286.392,413.101,279.32,408.387,279.32z
			 M389.527,287.57C389.527,288.749,389.527,288.749,389.527,287.57c-1.179,1.178-2.357,0-3.535,0
			c-2.357-2.357-3.536-5.894-4.714-8.25c-1.18-2.357-1.18-5.894-2.358-8.25c0-1.179,0-4.714,0-7.071
			C383.635,271.07,389.527,278.141,389.527,287.57z"/>
		<path fill="#EEEEEE" d="M428.422,263.999c0,5.892-5.894,4.714-10.607,3.536c-3.537-1.178-5.895-4.714-7.071-8.25
			c-1.18-3.536-1.18-5.894-2.356-9.429c0,0,0-1.178,0-2.356c1.177,0,2.356,0,2.356-2.358c0-1.178,1.177-1.178,1.177-2.356
			c1.181,0,2.357,0,3.537,0c4.715,2.356,8.249-4.714,3.536-7.072c-2.356-2.357-5.893-2.357-9.43-1.178l0,0c0,0,0,0-1.177,0
			c-4.715,1.178-7.072,7.071-8.252,11.786c-2.357,7.07,1.18,16.5,4.714,23.57c8.252,11.786,35.359,11.786,29.466-7.071
			C435.493,258.106,428.422,259.285,428.422,263.999z"/>
		<path fill="#EEEEEE" d="M455.528,246.321c0,7.07-8.25,1.178-10.606-1.18c0,0,0-1.178-1.179-1.178
			c4.715-2.357,9.429-4.714,11.785-9.428c2.357-4.714,0-8.25-3.534-10.607l-1.18-1.18c-7.071-5.892-17.678-7.071-20.036,2.357
			c0,0,0,0,0,1.18c-1.178,2.357-1.178,4.714,0,8.25c1.18,9.428,5.894,16.5,12.965,22.393c9.429,5.893,23.571,2.357,22.393-10.606
			C464.958,239.249,455.528,239.249,455.528,246.321z M439.028,233.355c0-3.535-1.178-8.25,3.536-5.893
			c4.714,2.358,1.179,7.072-2.356,9.429C439.028,235.713,439.028,234.535,439.028,233.355z"/>
	</g>
	<g>
		<path fill="#EEEEEE" d="M539.207,170.891c-4.714-5.894-12.964-9.429-20.035-12.965c-10.606-5.892-20.036-11.786-30.644-17.678
			c-3.535-2.357-8.25,1.179-5.893,5.893c3.536,9.429,9.429,18.857,16.5,27.107c-7.071-4.714-15.321-8.25-22.392-11.786
			c-3.536-1.178-7.072,2.357-4.716,5.893c9.43,15.322,22.394,29.464,34.18,42.431c2.357,2.356,7.071-1.181,4.714-3.538
			c-7.072-10.605-16.5-20.036-24.75-29.464c10.607,5.893,20.036,14.143,30.644,21.216c4.714,3.534,10.606-2.357,7.07-7.073
			c-8.25-10.607-17.678-21.215-24.75-33.001c11.786,7.072,22.394,14.144,31.821,22.394
			C535.672,182.676,543.922,175.604,539.207,170.891z"/>
		<path fill="#EEEEEE" d="M549.815,139.069c-3.536-5.893-9.43-12.964-15.322-14.143c-5.894-2.356-9.428,7.071-3.536,9.429
			c4.715,2.356,16.5,14.142,11.786,20.035c-3.536,3.536-17.678-11.785-20.035-14.143c-2.358-2.357-5.893,1.179-4.715,3.536
			c3.536,7.072,8.25,12.964,15.322,17.678c4.714,3.536,14.142,3.536,17.679-2.356C555.709,153.211,554.529,146.14,549.815,139.069z"
			/>
		<path fill="#EEEEEE" d="M571.029,113.14c-3.535-4.714-9.429-5.893-15.322-3.536c-2.356,1.178-7.071,5.893-8.25,2.357
			c-1.178-3.536,0-8.25,4.715-8.25c3.537,0,3.537-5.893,0-5.893h-1.178c-1.179-1.179-2.356-1.179-3.537-1.179
			c-7.071,1.179-11.785,8.251-10.607,15.322c1.18,5.893,4.716,10.608,9.43,10.608c3.536,1.178,8.25,0,11.787-2.358
			c2.357-1.178,5.891-3.536,5.891,1.178c0,5.894-4.714,7.072-9.428,5.894c-5.894-1.178-7.072,7.072-2.357,9.428
			C566.316,142.605,580.459,124.926,571.029,113.14z"/>
		<path fill="#EEEEEE" d="M588.709,81.319c-3.535-2.357-8.25,2.357-5.893,5.893c1.179,2.357,1.179,3.536,1.179,5.893
			c0,3.535-2.357,5.893-5.894,5.893c-3.535,0-5.893-1.179-8.25-3.536c1.178-1.179,1.178-3.536,2.357-4.714
			c0-1.179,0-1.179,1.178-2.358c4.715-7.071,8.251-15.321-1.178-17.678c-9.429-2.358-20.037,7.071-16.502,16.5
			c4.717,10.607,17.68,20.036,29.467,16.5C593.424,104.891,596.959,88.39,588.709,81.319z M563.957,80.14
			c1.181,0,2.357-1.178,3.537-1.178h1.18l-1.18,1.178c0,1.179,0,3.536-1.178,4.714c-1.179,2.357-2.356,3.535-2.356,5.893
			c-1.18-1.179-2.358-2.358-2.358-3.536C559.243,84.854,560.424,82.497,563.957,80.14z"/>
		<path fill="#EEEEEE" d="M580.459,38.889c-2.357-1.178-5.893,1.179-5.893,3.536l0,0c0,2.357,2.357,4.714,3.535,4.714
			c8.25,3.537,18.857,7.071,22.394,16.5c0,1.18,1.179,5.895,0,5.895c-2.357,1.177-7.071-1.18-9.429-2.357
			c-5.893-2.357-12.965-5.895-18.857-9.43c-2.357-2.357-7.071,2.357-3.535,4.714c7.07,7.073,36.535,27.109,41.25,8.25
			C612.28,54.21,593.424,43.604,580.459,38.889z"/>
		<path fill="#EEEEEE" d="M635.852,7.067c-8.25-4.714-18.856-8.25-28.285-12.964c-5.893-2.357-15.321-4.714-18.857,2.357
			c-2.357,5.893-1.179,10.607,2.357,15.322c-1.179,0-1.179,0-2.357,0c-8.25,2.357-5.893,8.25-3.535,14.143c0,0,0,0-1.179,0
			c-3.536-1.179-7.071,4.714-3.536,7.071h1.179l0,0l0,0c3.536,2.357,8.25,3.538,11.786,4.715h1.178
			c2.357,1.18,3.536,1.18,5.894,2.357c3.535,1.18,5.893,2.357,9.429,2.357c2.356,1.18,4.714,2.357,7.071,2.357
			c2.356,0,4.714-1.178,4.714-3.536l0,0c0-2.357-1.179-3.535-2.357-4.714c0,0,0,0-1.178-1.179c-1.179,0-2.358-1.178-3.536-1.178
			c-3.536-1.179-8.25-2.357-11.786-3.536c-3.535-1.179-5.893-2.357-9.428-3.536c-1.179-1.178-1.179-2.357-2.357-3.535
			c-8.25-9.429,1.179-7.072,4.714-7.072c2.357,0,4.715,1.179,5.894,1.179c7.071,3.536,15.321,5.893,21.214,7.071
			c4.714,1.179,9.428-4.714,4.714-8.25h-1.178l0,0l0,0c-4.715-2.357-9.429-3.536-15.322-4.714
			c-3.535-1.179-7.071-2.357-10.606-4.715c-2.357-1.178-10.607-9.428-3.536-9.428c4.715,0,9.429,3.535,14.143,5.893
			c5.894,2.357,11.786,4.714,17.68,8.25C634.674,18.853,640.566,9.425,635.852,7.067z"/>
	</g>
	<path fill="#EEEEEE" d="M28.882,397.179c-1.179-3.536-7.072-4.714-9.429-1.178c0,1.178-1.179,1.178-1.179,2.357
		c0,0-1.178,1.179-1.178,2.357c0,1.178,0,1.178,0,2.357c-4.715,10.606-5.893,22.392-9.429,33
		c-2.357,7.072-4.714,15.322-7.071,22.392c-2.358,7.071-5.893,7.071-11.786,1.18c-1.179-1.18-1.179-3.536-1.179-5.893
		c0,0,0,0,0-1.179l0,0c0-2.358,0-3.537,0-4.715c0-7.072-9.429-5.894-9.429,0c-1.18,8.25-1.18,18.856,7.072,24.75
		c5.893,4.715,15.322,8.25,22.393,3.536c3.536-2.358,5.893-7.071,7.071-10.608c1.178,0,2.357-1.178,2.357-2.356
		c4.714-11.784,7.071-23.571,9.428-36.534C27.703,416.035,31.239,406.607,28.882,397.179z"/>
	<path fill="#EEEEEE" d="M71.311,438.429c0-7.071-10.607-7.071-10.607,0c0,8.25-2.357,16.5-4.714,24.75
		c-1.179,3.535-2.357,7.071-3.536,10.606c-4.714,9.431-9.428,0-10.607-3.535c-2.357-9.428,3.536-20.036,4.714-29.465
		c0-2.356,0-3.534-1.178-4.713c0-1.178,0-1.178,0-2.358c0,0,0,0,0-1.179l0,0v-1.178c0-4.713-7.072-5.894-8.25-1.179
		c-2.357,5.894-2.357,11.785-3.536,16.5c-1.179,5.894-2.357,11.785-2.357,18.856c0,5.894,1.178,11.787,5.893,15.322
		c3.535,4.715,8.25,9.43,15.321,9.43c8.25,0,11.786-9.43,14.143-16.502c2.357-10.606,4.715-21.213,4.715-31.821
		C71.311,440.785,71.311,439.607,71.311,438.429z"/>
	<path fill="#EEEEEE" d="M97.239,416.035c0-2.356-1.178-3.534-2.357-5.893c-1.178-2.356-4.714-2.356-7.071-1.178
		c-9.429,8.249-8.25,29.464-10.607,42.43c-2.357,10.606-9.429,34.178,2.357,42.428c2.357,1.181,5.893,0,5.893-2.356
		c3.536-15.322,4.714-31.822,7.071-48.321c1.179-2.359,1.179-5.894,1.179-8.25c0,0,0,0,0-1.181
		c2.357-4.713,3.536-9.429,2.357-14.142c0,0,0,0,0-1.178C98.417,417.214,98.417,417.214,97.239,416.035z"/>
	<path fill="#EEEEEE" d="M131.419,452.572c0-5.894-8.25-5.894-9.43,0c-1.177,4.713-1.177,10.606-2.357,16.5
		c-1.177,2.356-1.177,4.713-2.357,8.25c-1.177,3.535-2.357,7.071-4.714,9.428c-1.177,1.181-2.357,1.181-3.534,1.181
		c-1.18-1.181-1.18-3.537-1.18-5.896c0-9.428,1.18-18.856,1.18-28.284c1.177-1.179,1.177-2.356,2.355-3.537
		c3.536-4.713-4.714-9.429-8.25-4.713c-7.071,9.428-14.143,43.605,1.179,51.858c2.357,2.356,4.716,3.534,8.25,4.715
		c-1.179,5.892-3.536,11.785-4.714,17.678c-1.179,5.892-2.358,10.606-4.715,15.322c-1.178,0-3.535-1.181-5.893-2.358
		c0-2.357-1.178-4.714-1.178-7.072c0-1.178-1.179-1.178-2.357-2.356c0-2.356,0-5.894,1.178-8.25c0-5.894-8.25-7.071-9.428-1.178
		c-2.357,8.25-4.714,24.749,3.536,30.643c7.072,5.894,15.321,8.25,22.393,1.179c9.431-9.429,10.607-20.037,12.965-33
		c1.18-8.25,3.537-17.678,4.714-25.931c1.18-3.534,2.357-7.071,2.357-11.784C130.24,467.894,132.598,459.644,131.419,452.572z"/>
	<path fill="#EEEEEE" d="M271.67,485.572c1.179-3.537-2.357-7.072-5.893-5.894c-1.18,0-2.357,0-3.537,1.181
		c-2.357-14.146-4.714-27.108-7.071-41.252c-1.177-10.606,0-20.035-4.714-29.465c-1.179-2.356-3.536-2.356-4.714-2.356
		c-1.179-1.179-3.536-1.179-5.893,0c0,0,0,1.179-1.179,1.179l0,0c-1.179,1.178-1.179,2.357-2.357,2.357
		c-1.179,1.179-1.179,2.356-2.357,2.356c-2.357,2.356-4.714,5.894-7.072,7.072c-2.357,2.356-5.893,3.534-8.25,4.713
		c-3.536,2.358-2.357,8.25,2.357,8.25c1.179,0,1.179,1.181,2.357,0c5.893-1.179,9.429-4.713,12.964-9.429
		c1.179-1.178,2.357-2.356,3.536-3.534c0,7.071,2.357,15.321,3.535,21.213c1.179,12.965,2.358,25.93,4.715,37.715
		c-7.072,1.181-14.143,2.356-20.036,4.715c-5.893,2.356-3.536,11.785,2.357,9.429h1.179c0,0,1.178,0,2.357,0
		c2.357,0,3.536,0,5.893,0c3.535,0,7.071,0,9.43,0h1.177c0,0,0,0,1.18,0c1.177,0,2.357,0,2.357,0c1.177,0,2.357,0,4.714-1.179
		c1.177,0,1.177,0,2.357,0h1.177l0,0l0,0c1.18,0,1.18,0,2.357-1.178c1.18,0,1.18-1.181,2.357-1.181l0,0c1.18,0,3.537,0,3.537-2.356
		C271.67,487.931,272.849,486.75,271.67,485.572L271.67,485.572z"/>
	<path fill="#EEEEEE" d="M315.277,434.895c0-1.181-1.179-3.537-2.356-4.716c0-1.178,0-1.178,0-2.356
		c-1.18-4.715-4.715-10.608-8.251-14.144c-1.178-2.356-2.357-3.536-4.714-4.714c0,0-1.179-1.179-1.179-2.357
		c-1.178-1.179-1.178-1.179-2.357-1.179c-2.357-2.356-5.893-3.536-8.25-3.536c-1.178,0-1.178,0-2.357,0
		c-7.071-2.356-10.607,2.357-14.143,10.608c-2.357,4.713-3.536,10.606-3.536,16.5c-4.714,17.678-2.357,40.071,12.965,50.678
		c12.964,9.428,29.464,10.608,35.357-7.071c1.179-3.535,1.179-7.072,1.179-10.606C321.171,453.751,319.992,444.322,315.277,434.895z
		 M291.706,465.535c-5.893-4.713-8.25-11.784-9.429-18.856c0-1.178,0-2.356,0-3.534c0-5.894,0-12.966,2.357-18.859
		c1.178-2.356,1.178-4.713,2.357-7.071c2.357-2.356,7.071-2.356,11.785,3.537c0,0,1.179,0,1.179,1.178c0,0,0,0,1.179,1.179
		c7.071,12.965,11.786,28.287,8.25,42.428C303.492,466.714,298.777,466.714,291.706,465.535z"/>
	<path fill="#EEEEEE" d="M365.956,419.572c-3.536-8.25-7.071-28.286-21.214-21.215c-1.18,0-1.18,1.179-2.357,1.179
		c-1.179-3.536-2.357-7.072-3.536-10.607c0-1.178-2.356-2.356-3.536-2.356c0,0-1.178,0-1.178-1.18c-1.179,0-3.536,1.18-3.536,2.358
		c-1.178,4.714,0,9.428,2.357,14.142c0,0,0,0-1.179,0c-2.356,0-4.715,0-7.071,0c0-1.178-1.179-2.356-1.179-3.535l0,0
		c0-1.179-1.179-2.357-1.179-3.535c0-1.18-1.178-1.18-2.356-1.18c-2.357-1.178-7.071,1.18-5.894,3.536
		c1.179,2.357,1.179,4.714,2.357,7.071c-2.357,0-3.535,1.179-5.893,2.357h-1.179l0,0h-1.179c-4.714,2.357-1.179,8.25,3.535,8.25
		c2.357,0,3.536-1.179,5.894-1.179c0,0,0,0,1.178,0c1.18,7.072,3.536,14.144,8.25,21.216c2.358,3.534,8.25,0,7.072-3.537
		c-1.179-7.072-3.536-12.963-7.072-18.856c1.18,0,1.18,0,2.358-1.179c1.178,0,2.356-1.18,2.356-2.357
		c1.179,0,1.179-1.179,1.179-2.357c2.356,4.715,4.715,9.428,5.893,14.144c0,1.178,1.179,2.356,2.357,2.356
		c1.179,2.356,1.179,3.537,2.356,5.894l0,0l0,0v1.178c2.358,4.716,9.43,1.179,8.25-3.534c-2.356-5.894-5.892-14.144-3.535-20.037
		c0-1.179,2.357,1.179,2.357,1.179c1.178,2.356,2.357,4.715,2.357,7.071c1.178,3.537,1.178,8.25,4.714,10.606
		C364.778,427.822,368.312,423.107,365.956,419.572z"/>
	<path fill="#EEEEEE" d="M415.457,430.179c-5.894-5.894-15.322,2.356-11.785,9.429c0,1.178,1.177,3.537,3.534,4.715
		c2.357,1.179,4.714,1.179,5.895,0c0,3.535-2.357,7.072-3.537,9.429c-1.177,4.713,4.714,7.071,7.07,4.713
		C424.887,450.214,423.706,436.072,415.457,430.179z"/>
	<path fill="#EEEEEE" d="M500.314,397.179c0-3.536-3.535-5.893-7.071-3.536c-4.715,2.358-9.429,5.894-14.143,8.25
		c2.357-24.75,3.535-57.75-27.106-64.822c-16.501-3.536-20.036,28.286-9.43,31.822c1.179,2.358,4.714,2.358,5.894,0
		c1.179-2.356,0-7.07,0-9.428c0-4.714-1.18-15.323,11.786-5.895c3.534,3.537,5.892,7.073,7.07,12.966
		c4.714,15.321-2.356,31.821,0,48.321c0,2.356,3.536,3.537,5.894,3.537c4.714,0,9.428-1.181,12.964-3.537
		c5.893-2.356,11.786-5.893,16.5-9.429C506.208,401.893,503.85,397.179,500.314,397.179z"/>
	<path fill="#EEEEEE" d="M534.493,340.607c-7.071-10.608-28.285-38.894-43.607-24.751c-1.178,1.178-2.357,2.357-3.535,4.714
		c-4.715,7.072-2.357,16.5,1.178,24.751c3.536,8.249,10.607,21.215,21.215,29.465c1.179,1.178,2.356,2.356,3.536,3.536
		c7.07,5.892,20.036,10.606,27.106,3.535c2.357-1.178,3.538-2.356,4.714-4.714C550.994,367.714,541.565,350.037,534.493,340.607z
		 M502.672,325.284c14.144,3.536,22.394,20.037,27.107,31.823c1.178,1.179,3.536,10.606,3.536,14.144
		c-1.18,1.178-3.536,1.178-7.072,0c-8.25-2.358-15.321-10.607-20.035-16.5c0-1.18-1.179-1.18-2.358-2.357
		c-2.356-7.072-3.535-15.323-4.714-23.573C500.314,327.642,501.493,326.463,502.672,325.284z"/>
	<path fill="#EEEEEE" d="M591.066,324.106c-1.179,1.178-2.357,2.357-3.536,2.357c-2.356-2.357-4.714-4.714-5.893-7.071
		c-5.894-7.072-12.964-12.965-20.037-20.036c0,0,0,0-1.177,0c-4.715-5.894-9.43-11.786-14.144-17.68
		c-1.181-1.178-3.537-1.178-4.715-1.178c-2.358-1.178-5.894,0-5.894,3.536c0,2.357,0,7.072,0,10.607
		c-1.179,3.535-3.536,7.071-4.715,10.606c-1.178,4.714,4.715,8.25,8.25,4.714c3.536-3.536,4.715-8.25,5.893-11.786
		c4.716,5.894,8.251,10.607,14.144,15.322c4.714,3.536,8.251,8.25,11.786,12.964c2.357,3.536,4.715,5.893,7.072,9.429
		c-4.715,3.536-8.25,8.25-10.607,12.964c-2.356,4.714,2.357,9.428,7.072,7.072c2.357-1.179,4.714-3.536,7.071-4.714
		c8.25-4.715,16.5-12.965,17.679-21.215C600.495,324.106,594.602,321.749,591.066,324.106z"/>
	<path fill="#EEEEEE" d="M627.602,272.249c-11.786-21.214-35.356-14.143-43.606,3.536c-3.536-3.536-8.251-9.428-9.429-11.786
		c1.178-1.179,3.535-2.358,4.714-3.536c4.715-4.714,10.607-9.428,14.144-15.322c1.178-1.178,1.178-2.356,0-3.536c0,0,0,0,0-1.178
		c1.178-4.714-3.536-7.072-7.072-4.714c-3.535,3.536-7.071,7.072-10.607,11.786c0,1.178-1.178,1.178-1.178,2.356
		c-3.537,2.357-7.072,4.715-9.429,7.072c-3.537,2.357-5.895,4.714-7.071,8.25c-4.716,8.25,12.963,17.679,17.678,21.215
		c1.18,1.178,1.18,1.178,2.357,1.178c2.357,2.356,4.715,4.714,7.072,5.893c2.356,2.357,7.071,1.179,8.25-2.356
		c0-2.358,1.178-4.714,1.178-7.072c2.357-18.857,20.036,0,22.394,3.536c3.535,4.714,3.535,9.428,1.179,12.964
		c-2.358,2.357-4.715,3.536-7.072,3.536c-1.178,0-3.535,0-5.893-1.178l0,0c-5.893-1.179-9.429,7.071-3.535,9.428h1.178l0,0l0,0
		c8.25,3.536,16.5,3.536,22.394-3.536c1.179-2.357,2.356-3.536,3.536-7.071C633.495,292.285,633.495,282.856,627.602,272.249z"/>
</g>
</svg>
